/* XPM */
static char * close_pressed_xpm[] = {
"20 24 9 1",
" 	c None",
".	c #939393",
"+	c #FFFFFF",
"@	c #DEDEDE",
"#	c #ACCB87",
"$	c #9BC364",
"%	c #ECECEC",
"&	c #C4E1A1",
"*	c #9BC264",
"....................",
"++++++++++++++++++++",
"@@@@@@@@@@@@@@@@@@@@",
"@@@@@@@@@@@@@@@@@@@@",
"@@@@@@@@@@@@@@@@@@@@",
"@@@@@@@@@@@@@@@@@@@@",
"@@@@@@@@@@@@@@@@@@@@",
"@@@@@@@@@@@@@@@@@@@@",
"@@@@@@@@@@@@@@@@@@@@",
"@@@@@@##@@@@##@@@@@@",
"@@@@@@$$#@@#$$@@@@@@",
"@@@@@@%$$##$$%@@@@@@",
"@@@@@@@%$$$$%@@@@@@@",
"@@@@@@@@&**&@@@@@@@@",
"@@@@@@@&####&@@@@@@@",
"@@@@@@&##%%##&@@@@@@",
"@@@@@@##%@@%##@@@@@@",
"@@@@@@%%@@@@%%@@@@@@",
"@@@@@@@@@@@@@@@@@@@@",
"@@@@@@@@@@@@@@@@@@@@",
"@@@@@@@@@@@@@@@@@@@@",
"@@@@@@@@@@@@@@@@@@@@",
"@@@@@@@@@@@@@@@@@@@@",
"@@@@@@@@@@@@@@@@@@@@"};
