/* XPM */
static char * maximize_pressed_xpm[] = {
"20 24 8 1",
" 	c None",
".	c #939393",
"+	c #FFFFFF",
"@	c #DEDEDE",
"#	c #A3C48E",
"$	c #ACCB87",
"%	c #F4F4F4",
"&	c #9BC364",
"....................",
"++++++++++++++++++++",
"@@@@@@@@@@@@@@@@@@@@",
"@@@@@@@@@@@@@@@@@@@@",
"@@@@@@@@@@@@@@@@@@@@",
"@@@@@@@@@@@@@@@@@@@@",
"@@@@@@@@@@@@@@@@@@@@",
"@@@@@@@@@@@@@@@@@@@@",
"@@@@@@@@@@@@@@@@@@@@",
"@@@@@@@@@##@@@@@@@@@",
"@@@@@@@@@##@@@@@@@@@",
"@@@@@@@@@##@@@@@@@@@",
"@@@@@@########@@@@@@",
"@@@@@@$$$$$$$$@@@@@@",
"@@@@@@%%%$$%%%@@@@@@",
"@@@@@@@@@&&@@@@@@@@@",
"@@@@@@@@@&&@@@@@@@@@",
"@@@@@@@@@%%@@@@@@@@@",
"@@@@@@@@@@@@@@@@@@@@",
"@@@@@@@@@@@@@@@@@@@@",
"@@@@@@@@@@@@@@@@@@@@",
"@@@@@@@@@@@@@@@@@@@@",
"@@@@@@@@@@@@@@@@@@@@",
"@@@@@@@@@@@@@@@@@@@@"};
