/* XPM */
static char * menu_pressed_xpm[] = {
"20 24 18 1",
" 	c None",
".	c #939393",
"+	c #FFFFFF",
"@	c #DEDEDE",
"#	c #C4E1A1",
"$	c #A3C48E",
"%	c #EBECED",
"&	c #DFDFDF",
"*	c #E1E9EE",
"=	c #9BC264",
"-	c #E8ECEF",
";	c #E1E1E1",
">	c #E0F3C5",
",	c #E0E8EE",
"'	c #E0E0E0",
")	c #E6E6E6",
"!	c #E2E2E2",
"~	c #EDEDED",
"....................",
"++++++++++++++++++++",
"@@@@@@@@@@@@@@@@@@@@",
"@@@@@@@@@@@@@@@@@@@@",
"@@@@@@@@@@@@@@@@@@@@",
"@@@@@@@@@@@@@@@@@@@@",
"@@@@@@@@@@@@@@@@@@@@",
"@@@@@@@@@@@@@@@@@@@@",
"@@@@@@@@@@@@@@@@@@@@",
"@@@@@@@@@@@@@@@@@@@@",
"@@@@@@@@@@@@@@@@@@@@",
"@@@@@@#$$$$$$#@@@@@@",
"@@@@@@%#$$$$#%@@@@@@",
"@@@@@@&*#==#-@@@@@@@",
"@@@@@@@;>##,'@@@@@@@",
"@@@@@@@@)#>!@@@@@@@@",
"@@@@@@@@@~)@@@@@@@@@",
"@@@@@@@@@@@@@@@@@@@@",
"@@@@@@@@@@@@@@@@@@@@",
"@@@@@@@@@@@@@@@@@@@@",
"@@@@@@@@@@@@@@@@@@@@",
"@@@@@@@@@@@@@@@@@@@@",
"@@@@@@@@@@@@@@@@@@@@",
"@@@@@@@@@@@@@@@@@@@@"};
