/* XPM */
static char * shade_toggled_pressed_xpm[] = {
"20 24 13 1",
" 	c None",
".	c #8D8D8D",
"+	c #FFFFFF",
"@	c #DEDEDE",
"#	c #ACCB87",
"$	c #9BC264",
"%	c #EBECED",
"&	c #E1E8ED",
"*	c #E8EBEE",
"=	c #D3F4AC",
"-	c #E0E8EE",
";	c #DFDFDF",
">	c #C4E1A1",
"....................",
"++++++++++++++++++++",
"@@@@@@@@@@@@@@@@@@@@",
"@@@@@@@@@@@@@@@@@@@@",
"@@@@@@@@@@@@@@@@@@@@",
"@@@@@@@@@@@@@@@@@@@@",
"@@@@@@@@@@@@@@@@@@@@",
"@@@@@@@@@@@@@@@@@@@@",
"@@@@@@@@@@@@@@@@@@@@",
"@@@@@@@@@##@@@@@@@@@",
"@@@@@@@@@$$@@@@@@@@@",
"@@@@@@@@@$$@@@@@@@@@",
"@@@@@@@@@$$@@@@@@@@@",
"@@@@@@###$$###@@@@@@",
"@@@@@@%#$$$$#%@@@@@@",
"@@@@@@@&$$$#*@@@@@@@",
"@@@@@@@@=$#-;@@@@@@@",
"@@@@@@@@@>=@@@@@@@@@",
"@@@@@@@@@@@@@@@@@@@@",
"@@@@@@@@@@@@@@@@@@@@",
"@@@@@@@@@@@@@@@@@@@@",
"@@@@@@@@@@@@@@@@@@@@",
"@@@@@@@@@@@@@@@@@@@@",
"@@@@@@@@@@@@@@@@@@@@"};
