/* XPM */
static char * shade_pressed_xpm[] = {
"20 24 11 1",
" 	c None",
".	c #8D8D8D",
"+	c #FFFFFF",
"@	c #DEDEDE",
"#	c #C4E1A1",
"$	c #A3C48E",
"%	c #ACCB87",
"&	c #EAEBEC",
"*	c #E1E8EC",
"=	c #E8EAED",
"-	c #BCDBA7",
"....................",
"++++++++++++++++++++",
"@@@@@@@@@@@@@@@@@@@@",
"@@@@@@@@@@@@@@@@@@@@",
"@@@@@@@@@@@@@@@@@@@@",
"@@@@@@@@@@@@@@@@@@@@",
"@@@@@@@@@@@@@@@@@@@@",
"@@@@@@@@@@@@@@@@@@@@",
"@@@@@@@@@@@@@@@@@@@@",
"@@@@@@@@@##@@@@@@@@@",
"@@@@@@@@#$$#@@@@@@@@",
"@@@@@@@#%$$%#@@@@@@@",
"@@@@@@#%#$$#%#@@@@@@",
"@@@@@@&*=$$==&@@@@@@",
"@@@@@@@@@##@@@@@@@@@",
"@@@@@@@@@--@@@@@@@@@",
"@@@@@@@@@%%@@@@@@@@@",
"@@@@@@@@@==@@@@@@@@@",
"@@@@@@@@@@@@@@@@@@@@",
"@@@@@@@@@@@@@@@@@@@@",
"@@@@@@@@@@@@@@@@@@@@",
"@@@@@@@@@@@@@@@@@@@@",
"@@@@@@@@@@@@@@@@@@@@",
"@@@@@@@@@@@@@@@@@@@@"};
