/* XPM */
static char * stick_toggled_pressed_xpm[] = {
"20 24 9 1",
" 	c None",
".	c #8D8D8D",
"+	c #FFFFFF",
"@	c #DEDEDE",
"#	c #ACCB87",
"$	c #ECECEC",
"%	c #9BC364",
"&	c #A5C791",
"*	c #9FC39B",
"....................",
"++++++++++++++++++++",
"@@@@@@@@@@@@@@@@@@@@",
"@@@@@@@@@@@@@@@@@@@@",
"@@@@@@@@@@@@@@@@@@@@",
"@@@@@@@@@@@@@@@@@@@@",
"@@@@@@@@@@@@@@@@@@@@",
"@@@@@@@@@@@@@@@@@@@@",
"@@@@@@@@@@@@#@@@@@@@",
"@@@@@@@@##@@##@@@@@@",
"@@@@@@@###@####@@@@@",
"@@@@@@##$$@##$$@@@@@",
"@@@@@@%%@@%$$@@@@@@@",
"@@@@@@##@@$@##@@@@@@",
"@@@@@@##@@@@##@@@@@@",
"@@@@@@$&*****$@@@@@@",
"@@@@@@@$%%%%$@@@@@@@",
"@@@@@@@@$$$$@@@@@@@@",
"@@@@@@@@@@@@@@@@@@@@",
"@@@@@@@@@@@@@@@@@@@@",
"@@@@@@@@@@@@@@@@@@@@",
"@@@@@@@@@@@@@@@@@@@@",
"@@@@@@@@@@@@@@@@@@@@",
"@@@@@@@@@@@@@@@@@@@@"};
