/* XPM */
static char * stick_pressed_xpm[] = {
"20 24 10 1",
" 	c None",
".	c #8D8D8D",
"+	c #FFFFFF",
"@	c #DEDEDE",
"#	c #9BC364",
"$	c #ECECEC",
"%	c #9BC264",
"&	c #ACCB87",
"*	c #A5C791",
"=	c #9FC39B",
"....................",
"++++++++++++++++++++",
"@@@@@@@@@@@@@@@@@@@@",
"@@@@@@@@@@@@@@@@@@@@",
"@@@@@@@@@@@@@@@@@@@@",
"@@@@@@@@@@@@@@@@@@@@",
"@@@@@@@@@@@@@@@@@@@@",
"@@@@@@@@@@@@@@@@@@@@",
"@@@@@@@@@@@@@@@@@@@@",
"@@@@@@@@####@@@@@@@@",
"@@@@@@@######@@@@@@@",
"@@@@@@##$$$$##@@@@@@",
"@@@@@@%%@@@@%%@@@@@@",
"@@@@@@&&@@@@&&@@@@@@",
"@@@@@@&&@@@@&&@@@@@@",
"@@@@@@$*=====$@@@@@@",
"@@@@@@@$%%%%$@@@@@@@",
"@@@@@@@@$$$$@@@@@@@@",
"@@@@@@@@@@@@@@@@@@@@",
"@@@@@@@@@@@@@@@@@@@@",
"@@@@@@@@@@@@@@@@@@@@",
"@@@@@@@@@@@@@@@@@@@@",
"@@@@@@@@@@@@@@@@@@@@",
"@@@@@@@@@@@@@@@@@@@@"};
