/* XPM */
static char *top_right_active[] = {
/* columns rows colors chars-per-pixel */
"5 30 16 1 ",
"  c #010101",
". c #444444",
"X c gray21",
"o c gray22",
"O c #353535",
"+ c #373737",
"@ c #343434",
"# c gray20",
"$ c #323232",
"% c #313131",
"& c gray19",
"* c #2F2F2F",
"= c gray18",
"- c black",
"; c #2D2D2D",
": c white",
/* pixels */
"     ",
".... ",
"XXoX ",
"OO+X ",
"OO+X ",
"OO+O ",
"OO+O ",
"@@XO ",
"@@XO ",
"@@X@ ",
"##O@ ",
"##O# ",
"##O# ",
"$$@# ",
"$$@$ ",
"$$@$ ",
"%%#$ ",
"%%#% ",
"&&$% ",
"&&$& ",
"&&$& ",
"**%& ",
"**%* ",
"**%* ",
"==&=-",
"==&=-",
"==&=-",
"==&=-",
";;*;-",
";;*;-"
};
