/* XPM */
static char *top_left_active[] = {
/* columns rows colors chars-per-pixel */
"5 30 6 1 ",
"  c #010101",
". c #2D2D2D",
"X c #2F2F2F",
"o c #333333",
"O c #363636",
"+ c #444444",
/* pixels */
"     ",
" ++++",
" OOOO",
" OOOO",
" OoOO",
" OOOo",
" oOOO",
" Oooo",
" Oooo",
" oOoo",
" oooo",
" oooo",
" oooo",
" oooo",
" oooo",
" ooXo",
" ooXo",
" XXoX",
" oXXX",
" XXoX",
" oXXo",
" XXXX",
" XXXX",
" XXXX",
" XXXX",
" XXX.",
" .X.X",
" X.XX",
" X...",
" X..."
};
