/* XPM */
static char * close_pressed_xpm[] = {
"20 24 152 2",
"  	c None",
". 	c #939393",
"+ 	c #FFFFFF",
"@ 	c #BEBEBE",
"# 	c #BBBABA",
"$ 	c #968485",
"% 	c #6D4243",
"& 	c #561A1C",
"* 	c #591F21",
"= 	c #BDBDBD",
"- 	c #A89F9F",
"; 	c #541618",
"> 	c #5D181A",
", 	c #722E2F",
"' 	c #86494A",
") 	c #854849",
"! 	c #722D2E",
"~ 	c #5C1719",
"{ 	c #A79E9F",
"] 	c #530C0F",
"^ 	c #701719",
"/ 	c #9E3638",
"( 	c #CD8082",
"_ 	c #F3DBDC",
": 	c #F2D9D9",
"< 	c #CC7C7E",
"[ 	c #9E3436",
"} 	c #A79F9F",
"| 	c #BAB9B9",
"1 	c #5B1B1D",
"2 	c #791618",
"3 	c #AD2325",
"4 	c #B23031",
"5 	c #DF6668",
"6 	c #F1B5B6",
"7 	c #F0B3B3",
"8 	c #DE6364",
"9 	c #B12E30",
"0 	c #AD2224",
"a 	c #998687",
"b 	c #6A1417",
"c 	c #B52123",
"d 	c #B52526",
"e 	c #8B2828",
"f 	c #B23131",
"g 	c #EF6566",
"h 	c #EF6465",
"i 	c #8A4D4F",
"j 	c #991E21",
"k 	c #D22325",
"l 	c #E52426",
"m 	c #B52728",
"n 	c #8D2828",
"o 	c #B82C2D",
"p 	c #E52526",
"q 	c #8B2A2D",
"r 	c #B12325",
"s 	c #E32B2C",
"t 	c #F22E2F",
"u 	c #F83233",
"v 	c #BA2F2F",
"w 	c #8E2A2A",
"x 	c #BA3030",
"y 	c #F83434",
"z 	c #F23030",
"A 	c #E32C2D",
"B 	c #B12426",
"C 	c #8C2A2D",
"D 	c #8E2F31",
"E 	c #B82B2C",
"F 	c #EF3839",
"G 	c #F93F40",
"H 	c #FC4848",
"I 	c #BB3C3C",
"J 	c #8E2D2D",
"K 	c #BB3D3D",
"L 	c #FC4A4A",
"M 	c #F94242",
"N 	c #EF3A3B",
"O 	c #B92D2E",
"P 	c #8F3032",
"Q 	c #9D5C5E",
"R 	c #AD3031",
"S 	c #F44849",
"T 	c #FB5354",
"U 	c #BB4343",
"V 	c #8E2F2F",
"W 	c #BC5050",
"X 	c #BC5151",
"Y 	c #8E3030",
"Z 	c #BB4444",
"` 	c #FB5757",
" .	c #F44B4B",
"..	c #AE3334",
"+.	c #9E5E5F",
"@.	c #B59C9D",
"#.	c #913132",
"$.	c #EF5858",
"%.	c #D15152",
"&.	c #BC5656",
"*.	c #FE9898",
"=.	c #FE9999",
"-.	c #BC5757",
";.	c #D15454",
">.	c #EF5B5C",
",.	c #933334",
"'.	c #C6C6C6",
").	c #93494A",
"!.	c #B95656",
"~.	c #F37575",
"{.	c #D16868",
"].	c #FD9C9C",
"^.	c #FEA7A7",
"/.	c #FEA8A8",
"(.	c #FD9E9E",
"_.	c #D26A6A",
":.	c #F47878",
"<.	c #BA595A",
"[.	c #954B4D",
"}.	c #C0C0C0",
"|.	c #C3B9B9",
"1.	c #9A5656",
"2.	c #C77778",
"3.	c #F79595",
"4.	c #FDA4A4",
"5.	c #FDADAD",
"6.	c #FDAEAE",
"7.	c #FDA6A6",
"8.	c #F89798",
"9.	c #C87B7B",
"0.	c #9C595A",
"a.	c #C4B9B9",
"b.	c #C6BBBB",
"c.	c #A2696A",
"d.	c #BB8686",
"e.	c #D69999",
"f.	c #E4A4A4",
"g.	c #E4A5A5",
"h.	c #D69B9B",
"i.	c #BC8888",
"j.	c #A46C6D",
"k.	c #D0CFD0",
"l.	c #BCA8A8",
"m.	c #AF8687",
"n.	c #B18081",
"o.	c #B38384",
"p.	c #AF8788",
"q.	c #BDA8A8",
"r.	c #C9C9C9",
"s.	c #CFCFCF",
"t.	c #D3D3D3",
"u.	c #D2D2D2",
". . . . . . . . . . . . . . . . . . . . ",
"+ + + + + + + + + + + + + + + + + + + + ",
"@ @ @ @ @ @ @ @ @ @ @ @ @ @ @ @ @ @ @ @ ",
"@ @ @ @ @ @ @ @ @ @ @ @ @ @ @ @ @ @ @ @ ",
"@ @ @ @ @ @ @ @ @ @ @ @ @ @ @ @ @ @ @ @ ",
"@ @ @ @ @ @ # $ % & * % $ # @ = = @ @ @ ",
"@ @ @ = @ - ; > , ' ) ! ~ ; { = = = @ @ ",
"@ = = = { ] ^ / ( _ : < [ ^ ] } = = = @ ",
"= = = | 1 2 3 4 5 6 7 8 9 0 2 1 | = = @ ",
"= = = a b c d e f g h 4 e d c b a = = @ ",
"= = = i j k l m n o o n m p k j i = = @ ",
"@ = = q r s t u v w w x y z A B C = = @ ",
"@ @ = D E F G H I J J K L M N O P = @ @ ",
"@ @ @ Q R S T U V W X Y Z `  ...+.@ @ @ ",
"@ @ @ @.#.$.%.Y &.*.=.-.Y ;.>.,.@.@ @ @ ",
"@ @ @ '.).!.~.{.].^./.(._.:.<.[.'.@ @ @ ",
"@ @ @ }.|.1.2.3.4.5.6.7.8.9.0.a.}.@ @ @ ",
"@ @ @ @ '.b.c.d.e.f.g.h.i.j.b.'.@ @ @ @ ",
"@ @ @ @ @ '.k.l.m.n.o.p.q.k.'.@ @ @ @ @ ",
"@ @ @ @ @ @ }.r.s.t.u.s.r.}.@ @ @ @ @ @ ",
"@ @ @ @ @ @ @ @ @ @ @ @ @ @ @ @ @ @ @ @ ",
"@ @ @ @ @ @ @ @ @ @ @ @ @ @ @ @ @ @ @ @ ",
"@ @ @ @ @ @ @ @ @ @ @ @ @ @ @ @ @ @ @ @ ",
"@ @ @ @ @ @ @ @ @ @ @ @ @ @ @ @ @ @ @ @ "};
