/* XPM */
static char * close_inactive_xpm[] = {
"20 24 155 2",
"  	c None",
". 	c #939393",
"+ 	c #FFFFFF",
"@ 	c #BFBFBF",
"# 	c #BCBBBB",
"$ 	c #978485",
"% 	c #6D4244",
"& 	c #561A1C",
"* 	c #591F21",
"= 	c #A8A0A0",
"- 	c #541618",
"; 	c #5D181A",
"> 	c #722E2F",
", 	c #86494A",
"' 	c #854849",
") 	c #722D2E",
"! 	c #5C1719",
"~ 	c #530C0F",
"{ 	c #701719",
"] 	c #9E3638",
"^ 	c #CD8082",
"/ 	c #F3DBDC",
"( 	c #F2D9D9",
"_ 	c #CC7C7E",
": 	c #9E3436",
"< 	c #A9A0A0",
"[ 	c #BBBBBB",
"} 	c #5B1B1D",
"| 	c #791618",
"1 	c #AF2225",
"2 	c #CC3336",
"3 	c #DF6668",
"4 	c #F1B5B6",
"5 	c #F0B3B3",
"6 	c #DE6364",
"7 	c #CB3234",
"8 	c #AF2124",
"9 	c #9A8788",
"0 	c #6A1417",
"a 	c #B52123",
"b 	c #D12224",
"c 	c #DF2628",
"d 	c #E83A3C",
"e 	c #EF6666",
"f 	c #EF6465",
"g 	c #E8393A",
"h 	c #DF2627",
"i 	c #8A4E4F",
"j 	c #991E21",
"k 	c #D22325",
"l 	c #E52426",
"m 	c #EF2627",
"n 	c #F4292A",
"o 	c #F63132",
"p 	c #E52526",
"q 	c #8B2A2D",
"r 	c #B12325",
"s 	c #E32B2C",
"t 	c #F22E2F",
"u 	c #F83233",
"v 	c #FB3737",
"w 	c #FB3A3B",
"x 	c #FB3B3B",
"y 	c #FB3838",
"z 	c #F83434",
"A 	c #F23030",
"B 	c #E32C2D",
"C 	c #B12426",
"D 	c #8C2A2D",
"E 	c #8E2F31",
"F 	c #B82B2C",
"G 	c #EF3839",
"H 	c #F93F40",
"I 	c #FC4848",
"J 	c #FD5353",
"K 	c #FD5C5C",
"L 	c #FD5D5D",
"M 	c #FD5555",
"N 	c #FC4B4B",
"O 	c #F94242",
"P 	c #EF3A3B",
"Q 	c #B92D2E",
"R 	c #8F3032",
"S 	c #9D5C5E",
"T 	c #AD3031",
"U 	c #F44849",
"V 	c #FB5354",
"W 	c #FD6262",
"X 	c #FD7272",
"Y 	c #FD7F7F",
"Z 	c #FE8080",
"` 	c #FD7575",
" .	c #FD6565",
"..	c #FB5757",
"+.	c #F44B4B",
"@.	c #AE3334",
"#.	c #9E5E5F",
"$.	c #B59D9D",
"%.	c #913132",
"&.	c #EF5858",
"*.	c #FC6868",
"=.	c #FD7979",
"-.	c #FD8B8B",
";.	c #FE9999",
">.	c #FD8D8E",
",.	c #FD7C7C",
"'.	c #FC6B6B",
").	c #EF5B5C",
"!.	c #933334",
"~.	c #C7C6C6",
"{.	c #93494A",
"].	c #B95656",
"^.	c #FA7979",
"/.	c #FD9C9C",
"(.	c #FEA7A7",
"_.	c #FEA8A8",
":.	c #FD9E9E",
"<.	c #FD8E8E",
"[.	c #FA7C7C",
"}.	c #BA595A",
"|.	c #954B4D",
"1.	c #C1C1C1",
"2.	c #C3B9B9",
"3.	c #9A5656",
"4.	c #C77778",
"5.	c #F79595",
"6.	c #FDA4A4",
"7.	c #FDADAD",
"8.	c #FDAEAE",
"9.	c #FDA6A6",
"0.	c #F89798",
"a.	c #C87B7B",
"b.	c #9C595A",
"c.	c #C4B9B9",
"d.	c #C6C6C6",
"e.	c #C6BBBB",
"f.	c #A2696A",
"g.	c #BB8686",
"h.	c #D69999",
"i.	c #E4A4A4",
"j.	c #E4A5A5",
"k.	c #D69B9B",
"l.	c #BC8888",
"m.	c #A46C6D",
"n.	c #D0CFD0",
"o.	c #BCA8A8",
"p.	c #AF8687",
"q.	c #B18081",
"r.	c #B38384",
"s.	c #AF8788",
"t.	c #BDA8A8",
"u.	c #C9C9C9",
"v.	c #CFCFCF",
"w.	c #D3D3D3",
"x.	c #D2D2D2",
". . . . . . . . . . . . . . . . . . . . ",
"+ + + + + + + + + + + + + + + + + + + + ",
"@ @ @ @ @ @ @ @ @ @ @ @ @ @ @ @ @ @ @ @ ",
"@ @ @ @ @ @ @ @ @ @ @ @ @ @ @ @ @ @ @ @ ",
"@ @ @ @ @ @ @ @ @ @ @ @ @ @ @ @ @ @ @ @ ",
"@ @ @ @ @ @ # $ % & * % $ # @ @ @ @ @ @ ",
"@ @ @ @ @ = - ; > , ' ) ! - = @ @ @ @ @ ",
"@ @ @ @ = ~ { ] ^ / ( _ : { ~ < @ @ @ @ ",
"@ @ @ [ } | 1 2 3 4 5 6 7 8 | } [ @ @ @ ",
"@ @ @ 9 0 a b c d e f g h b a 0 9 @ @ @ ",
"@ @ @ i j k l m n o o n m p k j i @ @ @ ",
"@ @ @ q r s t u v w x y z A B C D @ @ @ ",
"@ @ @ E F G H I J K L M N O P Q R @ @ @ ",
"@ @ @ S T U V W X Y Z `  ...+.@.#.@ @ @ ",
"@ @ @ $.%.&.*.=.-.;.;.>.,.'.).!.$.@ @ @ ",
"@ @ @ ~.{.].^.-./.(._.:.<.[.}.|.~.@ @ @ ",
"@ @ @ 1.2.3.4.5.6.7.8.9.0.a.b.c.1.@ @ @ ",
"@ @ @ @ d.e.f.g.h.i.j.k.l.m.e.d.@ @ @ @ ",
"@ @ @ @ @ d.n.o.p.q.r.s.t.n.d.@ @ @ @ @ ",
"@ @ @ @ @ @ 1.u.v.w.x.v.u.1.@ @ @ @ @ @ ",
"@ @ @ @ @ @ @ @ @ @ @ @ @ @ @ @ @ @ @ @ ",
"@ @ @ @ @ @ @ @ @ @ @ @ @ @ @ @ @ @ @ @ ",
"@ @ @ @ @ @ @ @ @ @ @ @ @ @ @ @ @ @ @ @ ",
"@ @ @ @ @ @ @ @ @ @ @ @ @ @ @ @ @ @ @ @ "};
