/* XPM */
static char * close_prelight_xpm[] = {
"20 24 157 2",
"  	c None",
". 	c #939393",
"+ 	c #FFFFFF",
"@ 	c #BFBFBF",
"# 	c #BCBBBB",
"$ 	c #978485",
"% 	c #6D4244",
"& 	c #561A1C",
"* 	c #591F21",
"= 	c #BBBABA",
"- 	c #A8A0A0",
"; 	c #541618",
"> 	c #5D181A",
", 	c #722E2F",
"' 	c #86494A",
") 	c #854849",
"! 	c #722D2E",
"~ 	c #5C1719",
"{ 	c #A89F9F",
"] 	c #530C0F",
"^ 	c #701719",
"/ 	c #9E3638",
"( 	c #CD8082",
"_ 	c #F3DBDC",
": 	c #F2D9D9",
"< 	c #CC7C7E",
"[ 	c #9E3436",
"} 	c #A79F9F",
"| 	c #BBBBBB",
"1 	c #5B1B1D",
"2 	c #791618",
"3 	c #AD2325",
"4 	c #B23031",
"5 	c #DF6668",
"6 	c #F1B5B6",
"7 	c #F0B3B3",
"8 	c #DE6364",
"9 	c #B12E30",
"0 	c #AD2224",
"a 	c #9A8788",
"b 	c #6A1417",
"c 	c #B52123",
"d 	c #B52526",
"e 	c #8B2828",
"f 	c #B23131",
"g 	c #EF6566",
"h 	c #EF6465",
"i 	c #8A4E4F",
"j 	c #991E21",
"k 	c #D22325",
"l 	c #E52426",
"m 	c #B52728",
"n 	c #8D2828",
"o 	c #B82C2D",
"p 	c #E52526",
"q 	c #BEBEBE",
"r 	c #8B2A2D",
"s 	c #B12325",
"t 	c #E32B2C",
"u 	c #F22E2F",
"v 	c #F83233",
"w 	c #BA2F2F",
"x 	c #8E2A2A",
"y 	c #BA3030",
"z 	c #F83434",
"A 	c #F23030",
"B 	c #E32C2D",
"C 	c #B12426",
"D 	c #8C2A2D",
"E 	c #8E2F31",
"F 	c #B82B2C",
"G 	c #EF3839",
"H 	c #F93F40",
"I 	c #FC4848",
"J 	c #BB3C3C",
"K 	c #8E2D2D",
"L 	c #BB3D3D",
"M 	c #FC4A4A",
"N 	c #F94242",
"O 	c #EF3A3B",
"P 	c #B92D2E",
"Q 	c #8F3032",
"R 	c #9D5C5E",
"S 	c #AD3031",
"T 	c #F44849",
"U 	c #FB5354",
"V 	c #BB4343",
"W 	c #8E2F2F",
"X 	c #BC5050",
"Y 	c #BC5151",
"Z 	c #8E3030",
"` 	c #BB4444",
" .	c #FB5757",
"..	c #F44B4B",
"+.	c #AE3334",
"@.	c #9E5E5F",
"#.	c #B59C9D",
"$.	c #913132",
"%.	c #EF5858",
"&.	c #D15152",
"*.	c #BC5656",
"=.	c #FE9898",
"-.	c #FE9999",
";.	c #BC5757",
">.	c #D15454",
",.	c #EF5B5C",
"'.	c #933334",
").	c #C6C6C6",
"!.	c #93494A",
"~.	c #B95656",
"{.	c #F37575",
"].	c #D16868",
"^.	c #FD9C9C",
"/.	c #FEA7A7",
"(.	c #FEA8A8",
"_.	c #FD9E9E",
":.	c #D26A6A",
"<.	c #F47878",
"[.	c #BA595A",
"}.	c #954B4D",
"|.	c #C1C1C1",
"1.	c #C3B9B9",
"2.	c #9A5656",
"3.	c #C77778",
"4.	c #F79595",
"5.	c #FDA4A4",
"6.	c #FDADAD",
"7.	c #FDAEAE",
"8.	c #FDA6A6",
"9.	c #F89798",
"0.	c #C87B7B",
"a.	c #9C595A",
"b.	c #C4B9B9",
"c.	c #C0C0C0",
"d.	c #C6BBBB",
"e.	c #A2696A",
"f.	c #BB8686",
"g.	c #D69999",
"h.	c #E4A4A4",
"i.	c #E4A5A5",
"j.	c #D69B9B",
"k.	c #BC8888",
"l.	c #A46C6D",
"m.	c #C5C5C5",
"n.	c #D0CFD0",
"o.	c #BCA8A8",
"p.	c #AF8687",
"q.	c #B18081",
"r.	c #B38384",
"s.	c #AF8788",
"t.	c #BDA8A8",
"u.	c #BDBDBD",
"v.	c #C9C9C9",
"w.	c #CFCFCF",
"x.	c #D3D3D3",
"y.	c #D2D2D2",
"z.	c #C8C8C8",
". . . . . . . . . . . . . . . . . . . . ",
"+ + + + + + + + + + + + + + + + + + + + ",
"@ @ @ @ @ @ @ @ @ @ @ @ @ @ @ @ @ @ @ @ ",
"@ @ @ @ @ @ @ @ @ @ @ @ @ @ @ @ @ @ @ @ ",
"@ @ @ @ @ @ @ @ @ @ @ @ @ @ @ @ @ @ @ @ ",
"@ @ @ @ @ @ # $ % & * % $ = @ @ @ @ @ @ ",
"@ @ @ @ @ - ; > , ' ) ! ~ ; { @ @ @ @ @ ",
"@ @ @ @ - ] ^ / ( _ : < [ ^ ] } @ @ @ @ ",
"@ @ @ | 1 2 3 4 5 6 7 8 9 0 2 1 = @ @ @ ",
"@ @ @ a b c d e f g h 4 e d c b a @ @ @ ",
"@ @ @ i j k l m n o o n m p k j i @ @ @ ",
"@ @ q r s t u v w x x y z A B C D @ @ @ ",
"@ @ q E F G H I J K K L M N O P Q @ @ @ ",
"@ @ q R S T U V W X Y Z `  ...+.@.@ @ @ ",
"@ @ q #.$.%.&.Z *.=.-.;.Z >.,.'.#.@ @ @ ",
"@ @ @ ).!.~.{.].^./.(._.:.<.[.}.).@ @ @ ",
"@ @ @ |.1.2.3.4.5.6.7.8.9.0.a.b.c.@ @ @ ",
"@ @ @ @ ).d.e.f.g.h.i.j.k.l.d.m.q @ @ @ ",
"@ @ @ @ @ ).n.o.p.q.r.s.t.n.m.u.q @ @ @ ",
"@ @ @ @ @ @ |.v.w.x.y.w.z.@ u.u.@ @ @ @ ",
"@ @ @ @ @ @ @ @ q q q q q q q @ @ @ @ @ ",
"@ @ @ @ @ @ @ @ @ @ @ @ @ @ @ @ @ @ @ @ ",
"@ @ @ @ @ @ @ @ @ @ @ @ @ @ @ @ @ @ @ @ ",
"@ @ @ @ @ @ @ @ @ @ @ @ @ @ @ @ @ @ @ @ "};
