/* XPM */
static char * close_active_xpm[] = {
"20 24 154 2",
"  	c None",
". 	c #939393",
"+ 	c #FFFFFF",
"@ 	c #BDBDBD",
"# 	c #BAB9B9",
"$ 	c #968385",
"% 	c #6D4243",
"& 	c #561A1C",
"* 	c #591F21",
"= 	c #A79E9F",
"- 	c #541618",
"; 	c #5D181A",
"> 	c #722E2F",
", 	c #86494A",
"' 	c #854849",
") 	c #722D2E",
"! 	c #5C1719",
"~ 	c #530C0F",
"{ 	c #701719",
"] 	c #9E3638",
"^ 	c #CD8082",
"/ 	c #F3DBDC",
"( 	c #F2D9D9",
"_ 	c #CC7C7E",
": 	c #9E3436",
"< 	c #A79F9F",
"[ 	c #5B1B1D",
"} 	c #791618",
"| 	c #AF2225",
"1 	c #CC3336",
"2 	c #DF6668",
"3 	c #F1B5B6",
"4 	c #F0B3B3",
"5 	c #DE6364",
"6 	c #CB3234",
"7 	c #AF2124",
"8 	c #998687",
"9 	c #6A1417",
"0 	c #B52123",
"a 	c #D12224",
"b 	c #DF2628",
"c 	c #E83A3C",
"d 	c #EF6666",
"e 	c #EF6465",
"f 	c #E8393A",
"g 	c #DF2627",
"h 	c #8A4D4F",
"i 	c #991E21",
"j 	c #D22325",
"k 	c #E52426",
"l 	c #EF2627",
"m 	c #F4292A",
"n 	c #F63132",
"o 	c #E52526",
"p 	c #8B2A2D",
"q 	c #B12325",
"r 	c #E32B2C",
"s 	c #F22E2F",
"t 	c #F83233",
"u 	c #FB3737",
"v 	c #FB3A3B",
"w 	c #FB3B3B",
"x 	c #FB3838",
"y 	c #F83434",
"z 	c #F23030",
"A 	c #E32C2D",
"B 	c #B12426",
"C 	c #8C2A2D",
"D 	c #8E2F31",
"E 	c #B82B2C",
"F 	c #EF3839",
"G 	c #F93F40",
"H 	c #FC4848",
"I 	c #FD5353",
"J 	c #FD5C5C",
"K 	c #FD5D5D",
"L 	c #FD5555",
"M 	c #FC4B4B",
"N 	c #F94242",
"O 	c #EF3A3B",
"P 	c #B92D2E",
"Q 	c #8F3032",
"R 	c #9D5C5E",
"S 	c #AD3031",
"T 	c #F44849",
"U 	c #FB5354",
"V 	c #FD6262",
"W 	c #FD7272",
"X 	c #FD7F7F",
"Y 	c #FE8080",
"Z 	c #FD7575",
"` 	c #FD6565",
" .	c #FB5757",
"..	c #F44B4B",
"+.	c #AE3334",
"@.	c #9E5E5F",
"#.	c #B59C9D",
"$.	c #913132",
"%.	c #EF5858",
"&.	c #FC6868",
"*.	c #FD7979",
"=.	c #FD8B8B",
"-.	c #FE9999",
";.	c #FD8D8E",
">.	c #FD7C7C",
",.	c #FC6B6B",
"'.	c #EF5B5C",
").	c #933334",
"!.	c #C6C5C5",
"~.	c #93494A",
"{.	c #B95656",
"].	c #FA7979",
"^.	c #FD9C9C",
"/.	c #FEA7A7",
"(.	c #FEA8A8",
"_.	c #FD9E9E",
":.	c #FD8E8E",
"<.	c #FA7C7C",
"[.	c #BA595A",
"}.	c #954B4D",
"|.	c #BFBFBF",
"1.	c #C3B9B9",
"2.	c #9A5656",
"3.	c #C77778",
"4.	c #F79595",
"5.	c #FDA4A4",
"6.	c #FDADAD",
"7.	c #FDAEAE",
"8.	c #FDA6A6",
"9.	c #F89798",
"0.	c #C87B7B",
"a.	c #9C595A",
"b.	c #C4B9B9",
"c.	c #C5C5C5",
"d.	c #C6BBBB",
"e.	c #A2696A",
"f.	c #BB8686",
"g.	c #D69999",
"h.	c #E4A4A4",
"i.	c #E4A5A5",
"j.	c #D69B9B",
"k.	c #BC8888",
"l.	c #A46C6D",
"m.	c #D0CFD0",
"n.	c #BCA8A8",
"o.	c #AF8687",
"p.	c #B18081",
"q.	c #B38384",
"r.	c #AF8788",
"s.	c #BDA8A8",
"t.	c #C8C8C8",
"u.	c #CFCFCF",
"v.	c #D3D3D3",
"w.	c #D2D2D2",
". . . . . . . . . . . . . . . . . . . . ",
"+ + + + + + + + + + + + + + + + + + + + ",
"@ @ @ @ @ @ @ @ @ @ @ @ @ @ @ @ @ @ @ @ ",
"@ @ @ @ @ @ @ @ @ @ @ @ @ @ @ @ @ @ @ @ ",
"@ @ @ @ @ @ @ @ @ @ @ @ @ @ @ @ @ @ @ @ ",
"@ @ @ @ @ @ # $ % & * % $ # @ @ @ @ @ @ ",
"@ @ @ @ @ = - ; > , ' ) ! - = @ @ @ @ @ ",
"@ @ @ @ = ~ { ] ^ / ( _ : { ~ < @ @ @ @ ",
"@ @ @ # [ } | 1 2 3 4 5 6 7 } [ # @ @ @ ",
"@ @ @ 8 9 0 a b c d e f g a 0 9 8 @ @ @ ",
"@ @ @ h i j k l m n n m l o j i h @ @ @ ",
"@ @ @ p q r s t u v w x y z A B C @ @ @ ",
"@ @ @ D E F G H I J K L M N O P Q @ @ @ ",
"@ @ @ R S T U V W X Y Z `  ...+.@.@ @ @ ",
"@ @ @ #.$.%.&.*.=.-.-.;.>.,.'.).#.@ @ @ ",
"@ @ @ !.~.{.].=.^./.(._.:.<.[.}.!.@ @ @ ",
"@ @ @ |.1.2.3.4.5.6.7.8.9.0.a.b.|.@ @ @ ",
"@ @ @ @ c.d.e.f.g.h.i.j.k.l.d.c.@ @ @ @ ",
"@ @ @ @ @ c.m.n.o.p.q.r.s.m.c.@ @ @ @ @ ",
"@ @ @ @ @ @ |.t.u.v.w.u.t.|.@ @ @ @ @ @ ",
"@ @ @ @ @ @ @ @ @ @ @ @ @ @ @ @ @ @ @ @ ",
"@ @ @ @ @ @ @ @ @ @ @ @ @ @ @ @ @ @ @ @ ",
"@ @ @ @ @ @ @ @ @ @ @ @ @ @ @ @ @ @ @ @ ",
"@ @ @ @ @ @ @ @ @ @ @ @ @ @ @ @ @ @ @ @ "};
