/* XPM */
static char * hide_active_xpm[] = {
"20 24 145 2",
"  	c None",
". 	c #939393",
"+ 	c #FFFFFF",
"@ 	c #BDBDBD",
"# 	c #BAB9B9",
"$ 	c #978482",
"% 	c #6F423F",
"& 	c #571915",
"* 	c #5A1E1A",
"= 	c #A89F9E",
"- 	c #601E16",
"; 	c #6A2217",
"> 	c #7F3D2E",
", 	c #90594D",
"' 	c #905A4E",
") 	c #803E30",
"! 	c #6A2318",
"~ 	c #601D15",
"{ 	c #A99F9E",
"] 	c #64170A",
"^ 	c #893015",
"/ 	c #BB5F36",
"( 	c #DC9F7C",
"_ 	c #F4E4D3",
": 	c #F4E6D6",
"< 	c #DDA280",
"[ 	c #BB6038",
"} 	c #893115",
"| 	c #6E2618",
"1 	c #983915",
"2 	c #CF652A",
"3 	c #DD7D3F",
"4 	c #E6A26F",
"5 	c #F3D6BB",
"6 	c #F3D8BD",
"7 	c #E7A472",
"8 	c #DE7E40",
"9 	c #CF652B",
"0 	c #9F8A85",
"a 	c #842F12",
"b 	c #D8712F",
"c 	c #E08037",
"d 	c #E58D41",
"e 	c #EA9F57",
"f 	c #EFB97F",
"g 	c #EFBA81",
"h 	c #EAA058",
"i 	c #E58D42",
"j 	c #E08038",
"k 	c #9C5E46",
"l 	c #B75A23",
"m 	c #E2873C",
"n 	c #E99745",
"o 	c #EEA44C",
"p 	c #F2AD54",
"q 	c #F4B45D",
"r 	c #F4B45E",
"s 	c #EEA44D",
"t 	c #9D5E46",
"u 	c #A95123",
"v 	c #CD7633",
"w 	c #EA9C49",
"x 	c #F1AD53",
"y 	c #F6B85A",
"z 	c #F8C05E",
"A 	c #FAC361",
"B 	c #F9C360",
"C 	c #F9BF5E",
"D 	c #A65727",
"E 	c #CF833B",
"F 	c #F1AE55",
"G 	c #F7BE5E",
"H 	c #FAC864",
"I 	c #FCCF68",
"J 	c #FCD46A",
"K 	c #FCD068",
"L 	c #FAC964",
"M 	c #D0833B",
"N 	c #A87350",
"O 	c #C3813A",
"P 	c #F5BC5E",
"Q 	c #FACA67",
"R 	c #FCD36C",
"S 	c #FDDB6F",
"T 	c #FDE071",
"U 	c #FDD46C",
"V 	c #FACB67",
"W 	c #C3813B",
"X 	c #A97350",
"Y 	c #B7A294",
"Z 	c #A56C2E",
"` 	c #F5C363",
" .	c #FCD36D",
"..	c #FDDB71",
"+.	c #FDE173",
"@.	c #FEE675",
"#.	c #FEE774",
"$.	c #FDE273",
"%.	c #FDDC71",
"&.	c #FCD46D",
"*.	c #F4C464",
"=.	c #A56C2F",
"-.	c #B7A394",
";.	c #C6C5C5",
">.	c #9B6834",
",.	c #C59B4B",
"'.	c #FCD871",
").	c #FDE074",
"!.	c #FFE676",
"~.	c #FEE775",
"{.	c #FFE875",
"].	c #FDE174",
"^.	c #FCD971",
"/.	c #C69C4C",
"(.	c #9C6934",
"_.	c #BFBFBF",
":.	c #C2BBB5",
"<.	c #9A7132",
"[.	c #CDAD56",
"}.	c #FBE074",
"|.	c #FEE676",
"1.	c #FEE776",
"2.	c #CEAF57",
"3.	c #9C7333",
"4.	c #C5C5C5",
"5.	c #C3BCB6",
"6.	c #9E7C42",
"7.	c #BC9F4D",
"8.	c #DEC463",
"9.	c #EED56C",
"0.	c #EED66D",
"a.	c #DFC563",
"b.	c #BFA24E",
"c.	c #A07F43",
"d.	c #D0CFCF",
"e.	c #B6AA9C",
"f.	c #AA8F64",
"g.	c #B08E49",
"h.	c #B1914D",
"i.	c #AA9065",
"j.	c #B7AA9C",
"k.	c #C8C8C8",
"l.	c #CFCFCF",
"m.	c #D3D3D3",
"n.	c #D2D2D2",
". . . . . . . . . . . . . . . . . . . . ",
"+ + + + + + + + + + + + + + + + + + + + ",
"@ @ @ @ @ @ @ @ @ @ @ @ @ @ @ @ @ @ @ @ ",
"@ @ @ @ @ @ @ @ @ @ @ @ @ @ @ @ @ @ @ @ ",
"@ @ @ @ @ @ @ @ @ @ @ @ @ @ @ @ @ @ @ @ ",
"@ @ @ @ @ @ # $ % & * % $ # @ @ @ @ @ @ ",
"@ @ @ @ @ = - ; > , ' ) ! ~ = @ @ @ @ @ ",
"@ @ @ @ { ] ^ / ( _ : < [ } ] { @ @ @ @ ",
"@ @ @ # | 1 2 3 4 5 6 7 8 9 1 | # @ @ @ ",
"@ @ @ 0 a b c d e f g h i j b a 0 @ @ @ ",
"@ @ @ k l m n o p q r p s n m l t @ @ @ ",
"@ @ @ u v w x y z A B C y x w v u @ @ @ ",
"@ @ @ D E F G H I J J K L G F M D @ @ @ ",
"@ @ @ N O P Q R S T T S U V P W X @ @ @ ",
"@ @ @ Y Z `  ...+.@.#.$.%.&.*.=.-.@ @ @ ",
"@ @ @ ;.>.,.'.).!.~.{.!.].^./.(.;.@ @ @ ",
"@ @ @ _.:.<.[.}.|.~.1.|.}.2.3.:._.@ @ @ ",
"@ @ @ @ 4.5.6.7.8.9.0.a.b.c.5.4.@ @ @ @ ",
"@ @ @ @ @ 4.d.e.f.g.h.i.j.d.4.@ @ @ @ @ ",
"@ @ @ @ @ @ _.k.l.m.n.l.k._.@ @ @ @ @ @ ",
"@ @ @ @ @ @ @ @ @ @ @ @ @ @ @ @ @ @ @ @ ",
"@ @ @ @ @ @ @ @ @ @ @ @ @ @ @ @ @ @ @ @ ",
"@ @ @ @ @ @ @ @ @ @ @ @ @ @ @ @ @ @ @ @ ",
"@ @ @ @ @ @ @ @ @ @ @ @ @ @ @ @ @ @ @ @ "};
