/* XPM */
static char * hide_prelight_xpm[] = {
"20 24 146 2",
"  	c None",
". 	c #939393",
"+ 	c #FFFFFF",
"@ 	c #BFBFBF",
"# 	c #BCBBBB",
"$ 	c #988583",
"% 	c #70433F",
"& 	c #571915",
"* 	c #5A1E1A",
"= 	c #A9A09F",
"- 	c #611E16",
"; 	c #6A2217",
"> 	c #7F3D2E",
", 	c #90594D",
"' 	c #905A4E",
") 	c #803E30",
"! 	c #6A2318",
"~ 	c #601D15",
"{ 	c #AAA19F",
"] 	c #64170A",
"^ 	c #893015",
"/ 	c #BB5F36",
"( 	c #DC9F7C",
"_ 	c #F4E4D3",
": 	c #F4E6D6",
"< 	c #DDA280",
"[ 	c #BB6038",
"} 	c #893115",
"| 	c #6E2618",
"1 	c #983915",
"2 	c #CF652A",
"3 	c #DD7D3F",
"4 	c #E6A26F",
"5 	c #F3D6BB",
"6 	c #F3D8BD",
"7 	c #E7A472",
"8 	c #DE7E40",
"9 	c #CF662A",
"0 	c #A08A86",
"a 	c #842F12",
"b 	c #D8712F",
"c 	c #E08037",
"d 	c #E58D41",
"e 	c #EA9F57",
"f 	c #EFB97F",
"g 	c #EFBA81",
"h 	c #EAA058",
"i 	c #E58D42",
"j 	c #E08038",
"k 	c #9C5E46",
"l 	c #B75A23",
"m 	c #E2873C",
"n 	c #E49344",
"o 	c #E79D49",
"p 	c #EAA650",
"q 	c #ECAC59",
"r 	c #ECAD5A",
"s 	c #EAA651",
"t 	c #E79D4A",
"u 	c #9D5E46",
"v 	c #BEBEBE",
"w 	c #A95123",
"x 	c #CD7633",
"y 	c #EA9C49",
"z 	c #98552B",
"A 	c #803F21",
"B 	c #814022",
"C 	c #814122",
"D 	c #A65727",
"E 	c #CF833B",
"F 	c #F1AE55",
"G 	c #995B2F",
"H 	c #814223",
"I 	c #814324",
"J 	c #814424",
"K 	c #9A5B2F",
"L 	c #D0833B",
"M 	c #A87350",
"N 	c #C3813A",
"O 	c #F5BC5E",
"P 	c #D8A453",
"Q 	c #D0A052",
"R 	c #D1A554",
"S 	c #D1A956",
"T 	c #D0A956",
"U 	c #D1A555",
"V 	c #D0A053",
"W 	c #D8A454",
"X 	c #C3813B",
"Y 	c #A97350",
"Z 	c #B7A294",
"` 	c #A56C2E",
" .	c #F5C363",
"..	c #FCD36D",
"+.	c #FDDB71",
"@.	c #FDE173",
"#.	c #FEE675",
"$.	c #FEE774",
"%.	c #FDE273",
"&.	c #FDDC71",
"*.	c #FCD46D",
"=.	c #F4C464",
"-.	c #A56C2F",
";.	c #B7A394",
">.	c #C7C6C6",
",.	c #9B6834",
"'.	c #C59B4B",
").	c #FCD871",
"!.	c #FDE074",
"~.	c #FFE676",
"{.	c #FEE775",
"].	c #FFE875",
"^.	c #FDE174",
"/.	c #FCD971",
"(.	c #C69C4C",
"_.	c #9C6934",
":.	c #C1C1C1",
"<.	c #C2BBB5",
"[.	c #9A7132",
"}.	c #CDAD56",
"|.	c #FBE074",
"1.	c #FEE676",
"2.	c #FEE776",
"3.	c #CEAF57",
"4.	c #9C7333",
"5.	c #C6C6C6",
"6.	c #C3BCB6",
"7.	c #9E7C42",
"8.	c #BC9F4D",
"9.	c #DEC463",
"0.	c #EED56C",
"a.	c #EED66D",
"b.	c #DFC563",
"c.	c #BFA24E",
"d.	c #A07F43",
"e.	c #D0CFCF",
"f.	c #B6AA9C",
"g.	c #AA8F64",
"h.	c #B08E49",
"i.	c #B1914D",
"j.	c #AA9065",
"k.	c #B7AA9C",
"l.	c #C9C9C9",
"m.	c #CFCFCF",
"n.	c #D3D3D3",
"o.	c #D2D2D2",
". . . . . . . . . . . . . . . . . . . . ",
"+ + + + + + + + + + + + + + + + + + + + ",
"@ @ @ @ @ @ @ @ @ @ @ @ @ @ @ @ @ @ @ @ ",
"@ @ @ @ @ @ @ @ @ @ @ @ @ @ @ @ @ @ @ @ ",
"@ @ @ @ @ @ @ @ @ @ @ @ @ @ @ @ @ @ @ @ ",
"@ @ @ @ @ @ # $ % & * % $ # @ @ @ @ @ @ ",
"@ @ @ @ @ = - ; > , ' ) ! ~ = @ @ @ @ @ ",
"@ @ @ @ { ] ^ / ( _ : < [ } ] { @ @ @ @ ",
"@ @ @ # | 1 2 3 4 5 6 7 8 9 1 | # @ @ @ ",
"@ @ @ 0 a b c d e f g h i j b a 0 @ @ @ ",
"@ @ @ k l m n o p q r s t n m l u @ @ @ ",
"@ @ v w x y z A B C C B A z y x w @ @ @ ",
"@ @ v D E F G H I J J J H K F L D @ @ @ ",
"@ @ @ M N O P Q R S T U V W O X Y @ @ @ ",
"@ @ @ Z `  ...+.@.#.$.%.&.*.=.-.;.@ @ @ ",
"@ @ @ >.,.'.).!.~.{.].~.^./.(._.>.@ @ @ ",
"@ @ @ :.<.[.}.|.1.{.2.1.|.3.4.<.:.@ @ @ ",
"@ @ @ @ 5.6.7.8.9.0.a.b.c.d.6.5.@ @ @ @ ",
"@ @ @ @ @ 5.e.f.g.h.i.j.k.e.5.@ @ @ @ @ ",
"@ @ @ @ @ @ :.l.m.n.o.m.l.:.@ @ @ @ @ @ ",
"@ @ @ @ @ @ @ @ @ @ @ @ @ @ @ @ @ @ @ @ ",
"@ @ @ @ @ @ @ @ @ @ @ @ @ @ @ @ @ @ @ @ ",
"@ @ @ @ @ @ @ @ @ @ @ @ @ @ @ @ @ @ @ @ ",
"@ @ @ @ @ @ @ @ @ @ @ @ @ @ @ @ @ @ @ @ "};
