/* XPM */
static char * hide_pressed_xpm[] = {
"20 24 144 2",
"  	c None",
". 	c #939393",
"+ 	c #FFFFFF",
"@ 	c #BFBFBF",
"# 	c #BCBBBB",
"$ 	c #988583",
"% 	c #70433F",
"& 	c #571915",
"* 	c #5A1E1A",
"= 	c #A9A09F",
"- 	c #611E16",
"; 	c #6A2217",
"> 	c #7F3D2E",
", 	c #90594D",
"' 	c #905A4E",
") 	c #803E30",
"! 	c #6A2318",
"~ 	c #601D15",
"{ 	c #AAA19F",
"] 	c #64170A",
"^ 	c #893015",
"/ 	c #BB5F36",
"( 	c #DC9F7C",
"_ 	c #F4E4D3",
": 	c #F4E6D6",
"< 	c #DDA280",
"[ 	c #BB6038",
"} 	c #893115",
"| 	c #6E2618",
"1 	c #983915",
"2 	c #CF652A",
"3 	c #DD7D3F",
"4 	c #E6A26F",
"5 	c #F3D6BB",
"6 	c #F3D8BD",
"7 	c #E7A472",
"8 	c #DE7E40",
"9 	c #CF662A",
"0 	c #A08A86",
"a 	c #842F12",
"b 	c #D8712F",
"c 	c #E08037",
"d 	c #E58D41",
"e 	c #EA9F57",
"f 	c #EFB97F",
"g 	c #EFBA81",
"h 	c #EAA058",
"i 	c #E58D42",
"j 	c #E08038",
"k 	c #9D5E46",
"l 	c #B75A23",
"m 	c #E2873C",
"n 	c #E49344",
"o 	c #E79D49",
"p 	c #EAA650",
"q 	c #ECAC59",
"r 	c #ECAD5A",
"s 	c #EAA651",
"t 	c #E79D4A",
"u 	c #A95123",
"v 	c #CD7633",
"w 	c #EA9C49",
"x 	c #98552B",
"y 	c #803F21",
"z 	c #814022",
"A 	c #814122",
"B 	c #A65727",
"C 	c #CF833B",
"D 	c #F1AE55",
"E 	c #995B2F",
"F 	c #814223",
"G 	c #814324",
"H 	c #814424",
"I 	c #9A5B2F",
"J 	c #D0833B",
"K 	c #A87350",
"L 	c #C3813A",
"M 	c #F5BC5E",
"N 	c #D8A453",
"O 	c #D0A052",
"P 	c #D1A554",
"Q 	c #D1A956",
"R 	c #D0A956",
"S 	c #D1A555",
"T 	c #D0A053",
"U 	c #D8A454",
"V 	c #C3813B",
"W 	c #A97350",
"X 	c #B7A294",
"Y 	c #A56C2E",
"Z 	c #F5C363",
"` 	c #FCD36D",
" .	c #FDDB71",
"..	c #FDE173",
"+.	c #FEE675",
"@.	c #FEE774",
"#.	c #FDE273",
"$.	c #FDDC71",
"%.	c #FCD46D",
"&.	c #F4C464",
"*.	c #A56C2F",
"=.	c #B7A394",
"-.	c #C7C6C6",
";.	c #9B6834",
">.	c #C59B4B",
",.	c #FCD871",
"'.	c #FDE074",
").	c #FFE676",
"!.	c #FEE775",
"~.	c #FFE875",
"{.	c #FDE174",
"].	c #FCD971",
"^.	c #C69C4C",
"/.	c #9C6934",
"(.	c #C1C1C1",
"_.	c #C2BBB5",
":.	c #9A7132",
"<.	c #CDAD56",
"[.	c #FBE074",
"}.	c #FEE676",
"|.	c #FEE776",
"1.	c #CEAF57",
"2.	c #9C7333",
"3.	c #C6C6C6",
"4.	c #C3BCB6",
"5.	c #9E7C42",
"6.	c #BC9F4D",
"7.	c #DEC463",
"8.	c #EED56C",
"9.	c #EED66D",
"0.	c #DFC563",
"a.	c #BFA24E",
"b.	c #A07F43",
"c.	c #D0CFCF",
"d.	c #B6AA9C",
"e.	c #AA8F64",
"f.	c #B08E49",
"g.	c #B1914D",
"h.	c #AA9065",
"i.	c #B7AA9C",
"j.	c #C9C9C9",
"k.	c #CFCFCF",
"l.	c #D3D3D3",
"m.	c #D2D2D2",
". . . . . . . . . . . . . . . . . . . . ",
"+ + + + + + + + + + + + + + + + + + + + ",
"@ @ @ @ @ @ @ @ @ @ @ @ @ @ @ @ @ @ @ @ ",
"@ @ @ @ @ @ @ @ @ @ @ @ @ @ @ @ @ @ @ @ ",
"@ @ @ @ @ @ @ @ @ @ @ @ @ @ @ @ @ @ @ @ ",
"@ @ @ @ @ @ # $ % & * % $ # @ @ @ @ @ @ ",
"@ @ @ @ @ = - ; > , ' ) ! ~ = @ @ @ @ @ ",
"@ @ @ @ { ] ^ / ( _ : < [ } ] { @ @ @ @ ",
"@ @ @ # | 1 2 3 4 5 6 7 8 9 1 | # @ @ @ ",
"@ @ @ 0 a b c d e f g h i j b a 0 @ @ @ ",
"@ @ @ k l m n o p q r s t n m l k @ @ @ ",
"@ @ @ u v w x y z A A z y x w v u @ @ @ ",
"@ @ @ B C D E F G H H H F I D J B @ @ @ ",
"@ @ @ K L M N O P Q R S T U M V W @ @ @ ",
"@ @ @ X Y Z `  ...+.@.#.$.%.&.*.=.@ @ @ ",
"@ @ @ -.;.>.,.'.).!.~.).{.].^./.-.@ @ @ ",
"@ @ @ (._.:.<.[.}.!.|.}.[.1.2._.(.@ @ @ ",
"@ @ @ @ 3.4.5.6.7.8.9.0.a.b.4.3.@ @ @ @ ",
"@ @ @ @ @ 3.c.d.e.f.g.h.i.c.3.@ @ @ @ @ ",
"@ @ @ @ @ @ (.j.k.l.m.k.j.(.@ @ @ @ @ @ ",
"@ @ @ @ @ @ @ @ @ @ @ @ @ @ @ @ @ @ @ @ ",
"@ @ @ @ @ @ @ @ @ @ @ @ @ @ @ @ @ @ @ @ ",
"@ @ @ @ @ @ @ @ @ @ @ @ @ @ @ @ @ @ @ @ ",
"@ @ @ @ @ @ @ @ @ @ @ @ @ @ @ @ @ @ @ @ "};
