/* XPM */
static char * maximize_inactive_xpm[] = {
"20 24 163 2",
"  	c None",
". 	c #939393",
"+ 	c #FFFFFF",
"@ 	c #BFBFBF",
"# 	c #BBBBBB",
"$ 	c #878E84",
"% 	c #485942",
"& 	c #213919",
"* 	c #243C1D",
"= 	c #465840",
"- 	c #A0A49F",
"; 	c #1D3615",
"> 	c #203E15",
", 	c #345929",
"' 	c #4A6E40",
") 	c #476B3D",
"! 	c #305524",
"~ 	c #1D3B12",
"{ 	c #1D3514",
"] 	c #A1A4A0",
"^ 	c #142E09",
"/ 	c #254C14",
"( 	c #528337",
"_ 	c #97B982",
": 	c #DFEBD5",
"< 	c #D4E4C8",
"[ 	c #87AE6E",
"} 	c #4B7E2E",
"| 	c #234B12",
"1 	c #132E09",
"2 	c #213717",
"3 	c #285014",
"4 	c #54912D",
"5 	c #6AA642",
"6 	c #92C073",
"7 	c #C9E1B7",
"8 	c #BFDBAB",
"9 	c #85B863",
"0 	c #65A23B",
"a 	c #52902C",
"b 	c #899086",
"c 	c #1F3A10",
"d 	c #5C9C33",
"e 	c #69AD3B",
"f 	c #6FB441",
"g 	c #7EBE54",
"h 	c #99CC77",
"i 	c #94CA70",
"j 	c #79BB4E",
"k 	c #6EB340",
"l 	c #546948",
"m 	c #416F25",
"n 	c #73B844",
"o 	c #77BE47",
"p 	c #7BC149",
"q 	c #7FC44C",
"r 	c #84C852",
"s 	c #83C651",
"t 	c #7DC44B",
"u 	c #7AC149",
"v 	c #72B743",
"w 	c #406E25",
"x 	c #345724",
"y 	c #5B9137",
"z 	c #7FC44E",
"A 	c #84C850",
"B 	c #88CB52",
"C 	c #8CCD54",
"D 	c #90CF56",
"E 	c #90CF55",
"F 	c #8BCD54",
"G 	c #87CB52",
"H 	c #83C850",
"I 	c #599037",
"J 	c #345723",
"K 	c #395B28",
"L 	c #63993E",
"M 	c #8BCC56",
"N 	c #90CF58",
"O 	c #96D25B",
"P 	c #9FD660",
"Q 	c #A7D964",
"R 	c #A6D963",
"S 	c #9ED65F",
"T 	c #95D15B",
"U 	c #8ECE58",
"V 	c #8ACB56",
"W 	c #62973D",
"X 	c #385A28",
"Y 	c #BEBEBE",
"Z 	c #647C56",
"` 	c #5A8938",
" .	c #93D05C",
"..	c #9BD460",
"+.	c #A5D964",
"@.	c #B1DE6C",
"#.	c #BAE274",
"$.	c #BAE273",
"%.	c #AFDE6B",
"&.	c #A2D864",
"*.	c #99D45F",
"=.	c #92D05B",
"-.	c #598838",
";.	c #637B56",
">.	c #9FA99A",
",.	c #436829",
"'.	c #96CD5F",
").	c #A5D866",
"!.	c #B0DE6E",
"~.	c #BDE476",
"{.	c #C6E77E",
"].	c #C5E77E",
"^.	c #BBE375",
"/.	c #AEDD6C",
"(.	c #A2D865",
"_.	c #95CC5E",
":.	c #416628",
"<.	c #A0A99A",
"[.	c #C6C7C6",
"}.	c #506F37",
"|.	c #709946",
"1.	c #A9D96B",
"2.	c #B6E073",
"3.	c #C2E67C",
"4.	c #C9E982",
"5.	c #C8E982",
"6.	c #C0E47A",
"7.	c #B4DF72",
"8.	c #A7D86A",
"9.	c #6E9644",
"0.	c #4E6D35",
"a.	c #C6C6C6",
"b.	c #C1C1C1",
"c.	c #BBBFB8",
"d.	c #577835",
"e.	c #85A953",
"f.	c #B1D971",
"g.	c #BEE27A",
"h.	c #C5E580",
"i.	c #C4E57F",
"j.	c #BDE279",
"k.	c #B0D870",
"l.	c #82A751",
"m.	c #547533",
"n.	c #BDC1BA",
"o.	c #678546",
"p.	c #7D9B4E",
"q.	c #98B861",
"r.	c #A7C76C",
"s.	c #A7C76B",
"t.	c #96B760",
"u.	c #7B994C",
"v.	c #658344",
"w.	c #D0D0CF",
"x.	c #AAB4A3",
"y.	c #849A6B",
"z.	c #75934D",
"A.	c #779450",
"B.	c #83996B",
"C.	c #C9C9C9",
"D.	c #CFCFCF",
"E.	c #D3D3D3",
"F.	c #D2D2D2",
". . . . . . . . . . . . . . . . . . . . ",
"+ + + + + + + + + + + + + + + + + + + + ",
"@ @ @ @ @ @ @ @ @ @ @ @ @ @ @ @ @ @ @ @ ",
"@ @ @ @ @ @ @ @ @ @ @ @ @ @ @ @ @ @ @ @ ",
"@ @ @ @ @ @ @ @ @ @ @ @ @ @ @ @ @ @ @ @ ",
"@ @ @ @ @ @ # $ % & * = $ # @ @ @ @ @ @ ",
"@ @ @ @ @ - ; > , ' ) ! ~ { - @ @ @ @ @ ",
"@ @ @ @ ] ^ / ( _ : < [ } | 1 ] @ @ @ @ ",
"@ @ @ # 2 3 4 5 6 7 8 9 0 a 3 2 # @ @ @ ",
"@ @ @ b c d e f g h i j k e d c b @ @ @ ",
"@ @ @ l m n o p q r s t u o v w l @ @ @ ",
"@ @ @ x y z A B C D E F G H z I J @ @ @ ",
"@ @ @ K L M N O P Q R S T U V W X Y @ @ ",
"@ @ @ Z `  ...+.@.#.$.%.&.*.=.-.;.Y @ @ ",
"@ @ @ >.,.'.).!.~.{.].^./.(._.:.<.Y @ @ ",
"@ @ @ [.}.|.1.2.3.4.5.6.7.8.9.0.a.@ @ @ ",
"@ @ @ b.c.d.e.f.g.h.i.j.k.l.m.c.b.@ @ @ ",
"@ @ @ @ a.n.o.p.q.r.s.t.u.v.n.a.@ @ @ @ ",
"@ @ @ @ @ a.w.x.y.z.A.B.x.w.a.@ @ @ @ @ ",
"@ @ @ @ @ @ b.C.D.E.F.D.C.b.@ @ @ @ @ @ ",
"@ @ @ @ @ @ @ @ @ @ @ @ @ @ @ @ @ @ @ @ ",
"@ @ @ @ @ @ @ @ @ @ @ @ @ @ @ @ @ @ @ @ ",
"@ @ @ @ @ @ @ @ @ @ @ @ @ @ @ @ @ @ @ @ ",
"@ @ @ @ @ @ @ @ @ @ @ @ @ @ @ @ @ @ @ @ "};
