/* XPM */
static char * maximize_prelight_xpm[] = {
"20 24 150 2",
"  	c None",
". 	c #939393",
"+ 	c #FFFFFF",
"@ 	c #BFBFBF",
"# 	c #BBBBBB",
"$ 	c #878E84",
"% 	c #485942",
"& 	c #213919",
"* 	c #243C1D",
"= 	c #465840",
"- 	c #A0A49F",
"; 	c #1D3615",
"> 	c #203E15",
", 	c #345929",
"' 	c #4A6E40",
") 	c #476B3D",
"! 	c #305524",
"~ 	c #1D3B12",
"{ 	c #1D3514",
"] 	c #A1A4A0",
"^ 	c #142E09",
"/ 	c #254C14",
"( 	c #528337",
"_ 	c #97B982",
": 	c #DFEBD5",
"< 	c #D4E4C8",
"[ 	c #87AE6E",
"} 	c #4B7E2E",
"| 	c #234B12",
"1 	c #132E09",
"2 	c #213717",
"3 	c #285014",
"4 	c #54912D",
"5 	c #6AA642",
"6 	c #89B56B",
"7 	c #3F5030",
"8 	c #3D502E",
"9 	c #82B35F",
"0 	c #65A23B",
"a 	c #52902C",
"b 	c #899086",
"c 	c #1F3A10",
"d 	c #5C9C33",
"e 	c #69AD3B",
"f 	c #6FB441",
"g 	c #74AE4D",
"h 	c #283A19",
"i 	c #273A19",
"j 	c #74B44B",
"k 	c #6EB340",
"l 	c #898F86",
"m 	c #546948",
"n 	c #416F25",
"o 	c #73B844",
"p 	c #76BB45",
"q 	c #78BB47",
"r 	c #70AE44",
"s 	c #273A17",
"t 	c #75B646",
"u 	c #77BB46",
"v 	c #75BB45",
"w 	c #72B743",
"x 	c #406E25",
"y 	c #BEBEBE",
"z 	c #345724",
"A 	c #5B9137",
"B 	c #7FC44E",
"C 	c #2E451B",
"D 	c #273A18",
"E 	c #30491D",
"F 	c #599037",
"G 	c #345723",
"H 	c #395B28",
"I 	c #63993E",
"J 	c #8BCC56",
"K 	c #2F451C",
"L 	c #283A18",
"M 	c #324A1E",
"N 	c #8ACB56",
"O 	c #62973D",
"P 	c #385A28",
"Q 	c #647C56",
"R 	c #5A8938",
"S 	c #93D05C",
"T 	c #8EC258",
"U 	c #93C25A",
"V 	c #8FB557",
"W 	c #293B19",
"X 	c #94BE5B",
"Y 	c #90C259",
"Z 	c #8CC357",
"` 	c #92D05B",
" .	c #598838",
"..	c #637B56",
"+.	c #9FA99A",
"@.	c #436829",
"#.	c #96CD5F",
"$.	c #A5D866",
"%.	c #B0DE6E",
"&.	c #ABCF6C",
"*.	c #B2D970",
"=.	c #AEDD6C",
"-.	c #A2D865",
";.	c #95CC5E",
">.	c #416628",
",.	c #A0A99A",
"'.	c #C6C6C6",
").	c #506F37",
"!.	c #709946",
"~.	c #A9D96B",
"{.	c #B6E073",
"].	c #B2D471",
"^.	c #32441E",
"/.	c #B8DC76",
"(.	c #B4DF72",
"_.	c #A7D86A",
":.	c #6E9644",
"<.	c #4E6D35",
"[.	c #C6C7C6",
"}.	c #C1C1C1",
"|.	c #BBBFB8",
"1.	c #577835",
"2.	c #85A953",
"3.	c #B1D971",
"4.	c #BEE27A",
"5.	c #C5E580",
"6.	c #C4E57F",
"7.	c #BDE279",
"8.	c #B0D870",
"9.	c #82A751",
"0.	c #547533",
"a.	c #BDC1BA",
"b.	c #678546",
"c.	c #7D9B4E",
"d.	c #98B861",
"e.	c #A7C76C",
"f.	c #A7C76B",
"g.	c #96B760",
"h.	c #7B994C",
"i.	c #658344",
"j.	c #D0D0CF",
"k.	c #AAB4A3",
"l.	c #849A6B",
"m.	c #75934D",
"n.	c #779450",
"o.	c #83996B",
"p.	c #C9C9C9",
"q.	c #CFCFCF",
"r.	c #D3D3D3",
"s.	c #D2D2D2",
". . . . . . . . . . . . . . . . . . . . ",
"+ + + + + + + + + + + + + + + + + + + + ",
"@ @ @ @ @ @ @ @ @ @ @ @ @ @ @ @ @ @ @ @ ",
"@ @ @ @ @ @ @ @ @ @ @ @ @ @ @ @ @ @ @ @ ",
"@ @ @ @ @ @ @ @ @ @ @ @ @ @ @ @ @ @ @ @ ",
"@ @ @ @ @ @ # $ % & * = $ # @ @ @ @ @ @ ",
"@ @ @ @ @ - ; > , ' ) ! ~ { - @ @ @ @ @ ",
"@ @ @ @ ] ^ / ( _ : < [ } | 1 ] @ @ @ @ ",
"@ @ @ # 2 3 4 5 6 7 8 9 0 a 3 2 # @ @ @ ",
"@ @ @ b c d e f g h i j k e d c l @ @ @ ",
"@ @ @ m n o p q r s s t u v w x m y @ @ ",
"@ @ @ z A B C s s D D s s E B F G y @ @ ",
"@ @ @ H I J K L L L L L D M N O P @ @ @ ",
"@ @ @ Q R S T U V W W X Y Z `  ...@ @ @ ",
"@ @ @ +.@.#.$.%.&.W W *.=.-.;.>.,.@ @ @ ",
"@ @ @ '.).!.~.{.].^.^./.(._.:.<.[.@ @ @ ",
"@ @ @ }.|.1.2.3.4.5.6.7.8.9.0.|.}.@ @ @ ",
"@ @ @ @ '.a.b.c.d.e.f.g.h.i.a.'.@ @ @ @ ",
"@ @ @ @ @ '.j.k.l.m.n.o.k.j.'.@ @ @ @ @ ",
"@ @ @ @ @ @ }.p.q.r.s.q.p.}.@ @ @ @ @ @ ",
"@ @ @ @ @ @ @ @ @ @ @ @ @ @ @ @ @ @ @ @ ",
"@ @ @ @ @ @ @ @ @ @ @ @ @ @ @ @ @ @ @ @ ",
"@ @ @ @ @ @ @ @ @ @ @ @ @ @ @ @ @ @ @ @ ",
"@ @ @ @ @ @ @ @ @ @ @ @ @ @ @ @ @ @ @ @ "};
