/* XPM */
static char * maximize_pressed_xpm[] = {
"20 24 149 2",
"  	c None",
". 	c #939393",
"+ 	c #FFFFFF",
"@ 	c #BFBFBF",
"# 	c #BBBBBB",
"$ 	c #878E84",
"% 	c #485942",
"& 	c #213919",
"* 	c #243C1D",
"= 	c #465840",
"- 	c #A0A49F",
"; 	c #1D3615",
"> 	c #203E15",
", 	c #345929",
"' 	c #4A6E40",
") 	c #476B3D",
"! 	c #305524",
"~ 	c #1D3B12",
"{ 	c #1D3514",
"] 	c #A1A4A0",
"^ 	c #142E09",
"/ 	c #254C14",
"( 	c #528337",
"_ 	c #97B982",
": 	c #DFEBD5",
"< 	c #D4E4C8",
"[ 	c #87AE6E",
"} 	c #4B7E2E",
"| 	c #234B12",
"1 	c #132E09",
"2 	c #213717",
"3 	c #285014",
"4 	c #54912D",
"5 	c #6AA642",
"6 	c #89B56B",
"7 	c #3F5030",
"8 	c #3D502E",
"9 	c #82B35F",
"0 	c #65A23B",
"a 	c #52902C",
"b 	c #899086",
"c 	c #1F3A10",
"d 	c #5C9C33",
"e 	c #69AD3B",
"f 	c #6FB441",
"g 	c #74AE4D",
"h 	c #283A19",
"i 	c #273A19",
"j 	c #74B44B",
"k 	c #6EB340",
"l 	c #546948",
"m 	c #416F25",
"n 	c #73B844",
"o 	c #76BB45",
"p 	c #78BB47",
"q 	c #70AE44",
"r 	c #273A17",
"s 	c #75B646",
"t 	c #77BB46",
"u 	c #75BB45",
"v 	c #72B743",
"w 	c #406E25",
"x 	c #345724",
"y 	c #5B9137",
"z 	c #7FC44E",
"A 	c #2E451B",
"B 	c #273A18",
"C 	c #30491D",
"D 	c #599037",
"E 	c #345723",
"F 	c #BEBEBE",
"G 	c #395B28",
"H 	c #63993E",
"I 	c #8BCC56",
"J 	c #2F451C",
"K 	c #283A18",
"L 	c #324A1E",
"M 	c #8ACB56",
"N 	c #62973D",
"O 	c #385A28",
"P 	c #647C56",
"Q 	c #5A8938",
"R 	c #93D05C",
"S 	c #8EC258",
"T 	c #93C25A",
"U 	c #8FB557",
"V 	c #293B19",
"W 	c #94BE5B",
"X 	c #90C259",
"Y 	c #8CC357",
"Z 	c #92D05B",
"` 	c #598838",
" .	c #637B56",
"..	c #9FA99A",
"+.	c #436829",
"@.	c #96CD5F",
"#.	c #A5D866",
"$.	c #B0DE6E",
"%.	c #ABCF6C",
"&.	c #B2D970",
"*.	c #AEDD6C",
"=.	c #A2D865",
"-.	c #95CC5E",
";.	c #416628",
">.	c #A0A99A",
",.	c #C6C7C6",
"'.	c #506F37",
").	c #709946",
"!.	c #A9D96B",
"~.	c #B6E073",
"{.	c #B2D471",
"].	c #32441E",
"^.	c #B8DC76",
"/.	c #B4DF72",
"(.	c #A7D86A",
"_.	c #6E9644",
":.	c #4E6D35",
"<.	c #C1C1C1",
"[.	c #BBBFB8",
"}.	c #577835",
"|.	c #85A953",
"1.	c #B1D971",
"2.	c #BEE27A",
"3.	c #C5E580",
"4.	c #C4E57F",
"5.	c #BDE279",
"6.	c #B0D870",
"7.	c #82A751",
"8.	c #547533",
"9.	c #C6C6C6",
"0.	c #BDC1BA",
"a.	c #678546",
"b.	c #7D9B4E",
"c.	c #98B861",
"d.	c #A7C76C",
"e.	c #A7C76B",
"f.	c #96B760",
"g.	c #7B994C",
"h.	c #658344",
"i.	c #D0D0CF",
"j.	c #AAB4A3",
"k.	c #849A6B",
"l.	c #75934D",
"m.	c #779450",
"n.	c #83996B",
"o.	c #C9C9C9",
"p.	c #CFCFCF",
"q.	c #D3D3D3",
"r.	c #D2D2D2",
". . . . . . . . . . . . . . . . . . . . ",
"+ + + + + + + + + + + + + + + + + + + + ",
"@ @ @ @ @ @ @ @ @ @ @ @ @ @ @ @ @ @ @ @ ",
"@ @ @ @ @ @ @ @ @ @ @ @ @ @ @ @ @ @ @ @ ",
"@ @ @ @ @ @ @ @ @ @ @ @ @ @ @ @ @ @ @ @ ",
"@ @ @ @ @ @ # $ % & * = $ # @ @ @ @ @ @ ",
"@ @ @ @ @ - ; > , ' ) ! ~ { - @ @ @ @ @ ",
"@ @ @ @ ] ^ / ( _ : < [ } | 1 ] @ @ @ @ ",
"@ @ @ # 2 3 4 5 6 7 8 9 0 a 3 2 # @ @ @ ",
"@ @ @ b c d e f g h i j k e d c b @ @ @ ",
"@ @ @ l m n o p q r r s t u v w l @ @ @ ",
"@ @ @ x y z A r r B B r r C z D E F @ @ ",
"@ @ @ G H I J K K K K K B L M N O F @ @ ",
"@ @ @ P Q R S T U V V W X Y Z `  .@ @ @ ",
"@ @ @ ..+.@.#.$.%.V V &.*.=.-.;.>.@ @ @ ",
"@ @ @ ,.'.).!.~.{.].].^./.(._.:.,.@ @ @ ",
"@ @ @ <.[.}.|.1.2.3.4.5.6.7.8.[.<.@ @ @ ",
"@ @ @ @ 9.0.a.b.c.d.e.f.g.h.0.9.@ @ @ @ ",
"@ @ @ @ @ 9.i.j.k.l.m.n.j.i.9.@ @ @ @ @ ",
"@ @ @ @ @ @ <.o.p.q.r.p.o.<.@ @ @ @ @ @ ",
"@ @ @ @ @ @ @ @ @ F F @ @ @ @ @ @ @ @ @ ",
"@ @ @ @ @ @ @ @ @ @ @ @ @ @ @ @ @ @ @ @ ",
"@ @ @ @ @ @ @ @ @ @ @ @ @ @ @ @ @ @ @ @ ",
"@ @ @ @ @ @ @ @ @ @ @ @ @ @ @ @ @ @ @ @ "};
