/* XPM */
static char * menu_pressed_xpm[] = {
"20 24 105 2",
"  	c None",
". 	c #939393",
"+ 	c #FFFFFF",
"@ 	c #BFBFBF",
"# 	c #BEBEBE",
"$ 	c #858598",
"% 	c #44446C",
"& 	c #1B1B51",
"* 	c #222255",
"= 	c #1A1B51",
"- 	c #646785",
"; 	c #1E2058",
"> 	c #585882",
", 	c #9A99B1",
"' 	c #A0A0B5",
") 	c #A5A5BB",
"! 	c #A2A1B7",
"~ 	c #9495AB",
"{ 	c #5B5C84",
"] 	c #1E235B",
"^ 	c #646887",
"/ 	c #858A9E",
"( 	c #182264",
"_ 	c #626EA8",
": 	c #91A5CB",
"< 	c #8CA7D3",
"[ 	c #8FABD8",
"} 	c #91ACD9",
"| 	c #8FA4CB",
"1 	c #707CAC",
"2 	c #1A2968",
"3 	c #858BA0",
"4 	c #445685",
"5 	c #154D9E",
"6 	c #4D8ACB",
"7 	c #609ED9",
"8 	c #5E9DDB",
"9 	c #5E9FDC",
"0 	c #5F9FDD",
"a 	c #609DD9",
"b 	c #568FCC",
"c 	c #18529F",
"d 	c #435888",
"e 	c #214281",
"f 	c #1769B5",
"g 	c #4D93D9",
"h 	c #5A9FE2",
"i 	c #599FE3",
"j 	c #589FE3",
"k 	c #5DA0E2",
"l 	c #4B91D8",
"m 	c #1A69B5",
"n 	c #224485",
"o 	c #214D8F",
"p 	c #478ACD",
"q 	c #6DACEC",
"r 	c #70AFEF",
"s 	c #6FAFEF",
"t 	c #6DAEEE",
"u 	c #67A8EA",
"v 	c #4D8ECE",
"w 	c #214F93",
"x 	c #4A73AA",
"y 	c #69A5E2",
"z 	c #81BEF8",
"A 	c #8AC6FC",
"B 	c #89C6FC",
"C 	c #88C6FC",
"D 	c #81BEF7",
"E 	c #4975AC",
"F 	c #91A7C2",
"G 	c #2465AC",
"H 	c #7DC1E6",
"I 	c #9FE1FD",
"J 	c #A1E6FC",
"K 	c #9FE0FD",
"L 	c #7DBFE6",
"M 	c #2568B0",
"N 	c #90A8C3",
"O 	c #C3C3C3",
"P 	c #739DC8",
"Q 	c #2772BA",
"R 	c #7BBFDD",
"S 	c #B3F4F9",
"T 	c #BCFBFB",
"U 	c #BDFEFE",
"V 	c #BDFDFD",
"W 	c #B2F2F7",
"X 	c #7ABFDE",
"Y 	c #2773BC",
"Z 	c #739ECA",
"` 	c #C8C8C8",
" .	c #9AB9D5",
"..	c #4A8CCA",
"+.	c #1970C3",
"@.	c #2175C5",
"#.	c #1971C4",
"$.	c #1972C5",
"%.	c #1971C5",
"&.	c #2177C6",
"*.	c #4A8ECB",
"=.	c #9AB9D6",
"-.	c #D1D1D1",
";.	c #DDDDDD",
">.	c #E0E0E0",
". . . . . . . . . . . . . . . . . . . . ",
"+ + + + + + + + + + + + + + + + + + + + ",
"@ @ @ @ @ @ @ @ @ @ @ @ @ @ @ @ @ @ @ @ ",
"@ @ @ @ @ @ @ @ @ @ @ @ @ @ @ @ @ @ @ @ ",
"@ @ @ @ @ @ @ @ @ @ @ @ @ @ @ @ @ @ @ @ ",
"@ @ @ @ @ @ @ @ @ @ @ @ @ @ @ @ @ @ @ @ ",
"@ @ @ @ @ @ @ @ @ @ @ # # @ @ @ @ @ @ @ ",
"@ @ $ % & * & & & & = & & & & * % $ @ @ ",
"@ - ; > , ' ) ) ) ) ) ) ) ) ! ~ { ] ^ @ ",
"/ ( _ : < [ } } } } } } } } [ < | 1 2 3 ",
"4 5 6 7 8 9 0 0 0 0 0 0 0 0 9 8 a b c d ",
"e f g h i j j j j j j j j j j j k l m n ",
"o p q r s s s s s s s s s s s s t u v w ",
"x y z A B B B B B B B B B B B B C D y E ",
"F G H I J J J J J J J J J J J J K L M N ",
"O P Q R S T U U U U U U U U V W X Y Z O ",
"@ `  ...+.@.#.#.$.#.%.$.$.$.$.&.*.=.` @ ",
"@ @ O -.;.>.>.>.>.>.>.>.>.>.>.;.-.O @ @ ",
"@ @ @ @ @ @ @ @ # # @ @ @ @ @ @ @ @ @ @ ",
"@ @ @ @ @ @ @ @ @ @ @ @ @ @ @ @ @ @ @ @ ",
"@ @ @ @ @ @ @ @ @ @ @ @ @ @ @ @ @ @ @ @ ",
"@ @ @ @ @ @ @ @ @ @ @ @ @ @ @ @ @ @ @ @ ",
"@ @ @ @ @ @ @ @ @ @ @ @ @ @ @ @ @ @ @ @ ",
"@ @ @ @ @ @ @ @ @ @ @ @ @ @ @ @ @ @ @ @ "};
