/* XPM */
static char * menu_inactive_xpm[] = {
"20 24 59 1",
" 	c None",
".	c #939393",
"+	c #FFFFFF",
"@	c #BFBFBF",
"#	c #ACACAC",
"$	c #979797",
"%	c #8A8A8A",
"&	c #8C8C8C",
"*	c #A2A2A2",
"=	c #BDBCBD",
"-	c #D0D0D0",
";	c #BCBCBC",
">	c #ADADAD",
",	c #CACACA",
"'	c #D1D1D1",
")	c #CDCDCD",
"!	c #C9C9C9",
"~	c #989798",
"{	c #9B9B9B",
"]	c #B5B5B5",
"^	c #C8C8C8",
"/	c #C6C7C6",
"(	c #C7C7C7",
"_	c #B4B4B4",
":	c #BEBDBE",
"<	c #C1C1C1",
"[	c #BEBEBE",
"}	c #C0C0C0",
"|	c #C1C0C0",
"1	c #BDBDBD",
"2	c #939292",
"3	c #949494",
"4	c #C4C4C4",
"5	c #C3C3C3",
"6	c #C3C4C4",
"7	c #B9B9B9",
"8	c #CBCBCA",
"9	c #CCCCCC",
"0	c #CBCBCB",
"a	c #CACACB",
"b	c #B8B8B8",
"c	c #A0A0A1",
"d	c #D8D8D8",
"e	c #D7D7D7",
"f	c #A1A0A0",
"g	c #B0B0B1",
"h	c #A4A4A4",
"i	c #D4D4D4",
"j	c #A3A4A3",
"k	c #A7A7A7",
"l	c #9A9A9A",
"m	c #9C9C9C",
"n	c #99999A",
"o	c #9A9A99",
"p	c #9A9999",
"q	c #9B9B9A",
"r	c #9A999A",
"s	c #CECECE",
"t	c #CFCFCF",
"....................",
"++++++++++++++++++++",
"@@@@@@@@@@@@@@@@@@@@",
"@@@@@@@@@@@@@@@@@@@@",
"@@@@@@@@@@@@@@@@@@@@",
"@@@@@@@@@@@@@@@@@@@@",
"@@@@@@@@@@@@@@@@@@@@",
"@@#$%&%%%%%%%%%&$#@@",
"@*$=------------;$*@",
">$,''''---------)!~>",
"{]^!!!^^^^^^^^^^/(_{",
".:<@@@[[[[[[[[[[}|12",
"3<4445555555555564<3",
"*789000000000009a07*",
"bc)dddeeeeeeeddd')fb",
"4gh4''----'''''i4jg4",
"@^;klmnopqrllllmk;^@",
"@@40stttttttttts04@@",
"@@@@@@@@@@@@@@@@@@@@",
"@@@@@@@@@@@@@@@@@@@@",
"@@@@@@@@@@@@@@@@@@@@",
"@@@@@@@@@@@@@@@@@@@@",
"@@@@@@@@@@@@@@@@@@@@",
"@@@@@@@@@@@@@@@@@@@@"};
