/* XPM */
static char * menu_active_xpm[] = {
"20 24 54 1",
" 	c None",
".	c #939393",
"+	c #FFFFFF",
"@	c #BFBFBF",
"#	c #ACACAC",
"$	c #979797",
"%	c #8A8A8A",
"&	c #8C8C8C",
"*	c #A2A2A2",
"=	c #BDBCBD",
"-	c #D0D0D0",
";	c #BDBDBD",
">	c #ADADAD",
",	c #CACACA",
"'	c #D1D1D1",
")	c #CECECE",
"!	c #989798",
"~	c #9B9B9B",
"{	c #B5B5B5",
"]	c #C8C8C8",
"^	c #C9C9C9",
"/	c #C7C8C7",
"(	c #BEBDBE",
"_	c #C1C1C1",
":	c #BEBEBE",
"<	c #C1C0C1",
"[	c #939292",
"}	c #949494",
"|	c #C4C4C4",
"1	c #C3C3C3",
"2	c #B9B9B9",
"3	c #CBCBCA",
"4	c #CBCBCB",
"5	c #CCCCCC",
"6	c #CACACB",
"7	c #B8B8B8",
"8	c #A0A0A1",
"9	c #CDCDCD",
"0	c #D8D8D8",
"a	c #D7D7D7",
"b	c #A1A0A0",
"c	c #B0B0B1",
"d	c #A4A4A4",
"e	c #D4D4D4",
"f	c #A3A4A3",
"g	c #BCBCBC",
"h	c #A7A7A7",
"i	c #9A9A9A",
"j	c #9C9C9C",
"k	c #9A9A99",
"l	c #9A9999",
"m	c #9B9B9A",
"n	c #9B9A9B",
"o	c #CFCFCF",
"....................",
"++++++++++++++++++++",
"@@@@@@@@@@@@@@@@@@@@",
"@@@@@@@@@@@@@@@@@@@@",
"@@@@@@@@@@@@@@@@@@@@",
"@@@@@@@@@@@@@@@@@@@@",
"@@@@@@@@@@@@@@@@@@@@",
"@@#$%&%%%%%%%%%&$#@@",
"@*$=------------;$*@",
">$,'''---------'),!>",
"~{]^^]]]]]]]]]]]/]{~",
".(_@@::::::::::@<_;[",
"}_|1111111111111||_}",
"*234444444444445642*",
"78900aaaaaaa0000'9b7",
"|cd|''----'''''e|fc|",
"@]ghijiklmniiiijhg]@",
"@@|4)oooooooooo)4|@@",
"@@@@@@@@@@@@@@@@@@@@",
"@@@@@@@@@@@@@@@@@@@@",
"@@@@@@@@@@@@@@@@@@@@",
"@@@@@@@@@@@@@@@@@@@@",
"@@@@@@@@@@@@@@@@@@@@",
"@@@@@@@@@@@@@@@@@@@@"};
