/* XPM */
static char * close_pressed_xpm[] = {
"16 16 12 1",
" 	c None",
".	c #2D2D2D",
"+	c #53BA49",
"@	c #439C3B",
"#	c #2D6928",
"$	c #45A03D",
"%	c #4EB544",
"&	c #31722B",
"*	c #4EB645",
"=	c #33762D",
"-	c #30712A",
";	c #2D6827",
"................",
"................",
"................",
"................",
"....+@#..#@+....",
"....$+%&&%+@....",
"....#*+%%+%#....",
".....=*++%&.....",
".....=*++%&.....",
"....#*+**+%#....",
"....$+*--*+@....",
"....+@;..;@+....",
"................",
"................",
"................",
"................"};
