/* XPM */
static char * close_prelight_xpm[] = {
"16 16 13 1",
" 	c None",
".	c #2D2D2D",
"+	c #69C360",
"@	c #4CB043",
"#	c #2E6C29",
"$	c #4BAF42",
"%	c #62C059",
"&	c #33782D",
"*	c #63C05B",
"=	c #357C2F",
"-	c #33762D",
";	c #4AAC41",
">	c #2D6928",
"................",
"................",
"................",
"................",
"....+@#..#@+....",
"....$+%&&%+@....",
"....#*+%%+%#....",
".....=*++%&.....",
".....=*++%&.....",
"....#*+%%+%#....",
"....$+%--%+@....",
"....+;>..>;+....",
"................",
"................",
"................",
"................"};
