/* XPM */
static char * close_pressed_xpm[] = {
"22 28 96 2",
"  	c None",
". 	c #111418",
"+ 	c #3F5061",
"@ 	c #3E5061",
"# 	c #34404B",
"$ 	c #343F4A",
"% 	c #303A44",
"& 	c #1D232A",
"* 	c #0F1317",
"= 	c #090C0F",
"- 	c #2F3A44",
"; 	c #232B33",
"> 	c #070B0D",
", 	c #0D1013",
"' 	c #12171A",
") 	c #13191D",
"! 	c #0C1013",
"~ 	c #080B0E",
"{ 	c #242C33",
"] 	c #242D34",
"^ 	c #070A0C",
"/ 	c #14191D",
"( 	c #13181C",
"_ 	c #252D35",
": 	c #090C0E",
"< 	c #12161B",
"[ 	c #12181B",
"} 	c #111619",
"| 	c #303B45",
"1 	c #1C2229",
"2 	c #0C1014",
"3 	c #642C2E",
"4 	c #251A1D",
"5 	c #101417",
"6 	c #261B1E",
"7 	c #0C1113",
"8 	c #0E1215",
"9 	c #D24A4B",
"0 	c #D74B4C",
"a 	c #24181B",
"b 	c #25181B",
"c 	c #D84B4C",
"d 	c #D1494A",
"e 	c #11161A",
"f 	c #0E1116",
"g 	c #080A0D",
"h 	c #271A1D",
"i 	c #D94C4C",
"j 	c #D84B4B",
"k 	c #261A1D",
"l 	c #080A0C",
"m 	c #35414B",
"n 	c #3C2022",
"o 	c #FE5656",
"p 	c #3B1F21",
"q 	c #303942",
"r 	c #333E47",
"s 	c #0E1214",
"t 	c #271B1E",
"u 	c #0F1215",
"v 	c #343E48",
"w 	c #1E242A",
"x 	c #D94B4C",
"y 	c #1E252C",
"z 	c #323A44",
"A 	c #35414C",
"B 	c #652E30",
"C 	c #261C1F",
"D 	c #271D20",
"E 	c #090D0F",
"F 	c #36424D",
"G 	c #313B44",
"H 	c #37424D",
"I 	c #2B343C",
"J 	c #2C363E",
"K 	c #38434D",
"L 	c #2F3942",
"M 	c #3D4954",
"N 	c #2D363F",
"O 	c #080C0E",
"P 	c #2F3842",
"Q 	c #3C4854",
"R 	c #414D58",
"S 	c #272E35",
"T 	c #14171B",
"U 	c #080B0D",
"V 	c #272E36",
"W 	c #414D59",
"X 	c #3D4853",
"Y 	c #3F4A56",
"Z 	c #46525F",
"` 	c #4A5763",
" .	c #46525E",
"..	c #3F4A55",
"+.	c #343E47",
"@.	c #151618",
". . . . . . . . . . . . . . . . . . . . . . ",
"+ @ @ @ @ @ @ @ @ @ @ @ @ @ @ @ @ @ @ @ @ @ ",
"# $ $ $ $ $ $ $ $ $ $ $ $ $ $ $ $ $ $ $ $ $ ",
"$ $ $ $ $ $ $ $ $ $ $ $ $ $ $ $ $ $ $ $ $ $ ",
"$ $ $ $ $ $ $ $ $ $ $ $ $ $ $ $ $ $ $ $ $ $ ",
"$ $ $ $ $ $ $ $ $ $ $ $ $ $ $ $ $ $ $ $ $ $ ",
"$ $ $ $ $ $ % & * = = * & - $ $ $ $ $ $ $ $ ",
"$ $ $ $ $ ; > , ' ) ) ' ! ~ { $ $ $ $ $ $ $ ",
"$ $ $ $ ] ^ ' / ( ( ( ( / ' ^ _ $ $ $ $ $ $ ",
"$ $ $ - : < ) [ ' } } ' [ ) ' : | $ $ $ $ $ ",
"$ $ $ 1 2 / [ 3 4 5 5 6 3 [ / 7 & $ $ $ $ $ ",
"$ $ $ 8 ' ( ' 9 0 a b c d ' ( e f $ $ $ $ $ ",
"$ $ $ g ) ( } h i j j i k } ( ) l $ $ $ $ $ ",
"$ $ m g ) ( } 5 n o o p 5 } ( ) l m $ $ $ $ ",
"q q r s ' ( ' t i j j i 6 ' ( } u r q q q q ",
"q q v w ! / [ 9 c k k x d [ / , y v q q q q ",
"q q z A = < ) B C } } D B ) ' E F G q q q q ",
"q q q H I ^ ' / ( ( ( ( / ' ^ J K q q q q q ",
"q q q L M N O , ' ) ) ' ! : N M P q q q q q ",
"q q q q q Q R S T U U T V W X q q q q q q q ",
"q q q q q q v Y Z ` `  ...+.q q q q q q q q ",
"q q q q q q q q q q q q q q q q q q q q q q ",
"q q q q q q q q q q q q q q q q q q q q q q ",
"q q q q q q q q q q q q q q q q q q q q q q ",
"q q q q q q q q q q q q q q q q q q q q q q ",
"q q q q q q q q q q q q q q q q q q q q q q ",
"q q q q q q q q q q q q q q q q q q q q q q ",
"@.@.@.@.@.@.@.@.@.@.@.@.@.@.@.@.@.@.@.@.@.@."};
