/* XPM */
static char * close_inactive_xpm[] = {
"22 28 91 1",
" 	c None",
".	c #111418",
"+	c #3F5061",
"@	c #3E5061",
"#	c #34404B",
"$	c #343F4A",
"%	c #303A44",
"&	c #1D232A",
"*	c #0F1317",
"=	c #090C0F",
"-	c #2F3A44",
";	c #232B33",
">	c #080B0D",
",	c #101417",
"'	c #191F24",
")	c #1C242A",
"!	c #090B0E",
"~	c #242C33",
"{	c #242D34",
"]	c #192025",
"^	c #20272D",
"/	c #21292F",
"(	c #212930",
"_	c #252D35",
":	c #090C0E",
"<	c #1A1F25",
"[	c #20282E",
"}	c #222A31",
"|	c #303B45",
"1	c #1C2229",
"2	c #101419",
"3	c #4D575E",
"4	c #3D474E",
"5	c #273138",
"6	c #3D464D",
"7	c #101518",
"8	c #0E1215",
"9	c #3B444B",
"0	c #59646B",
"a	c #404B53",
"b	c #3A444B",
"c	c #0E1116",
"d	c #080A0D",
"e	c #1D242A",
"f	c #3F4850",
"g	c #5B676F",
"h	c #3E4850",
"i	c #1C242B",
"j	c #080A0C",
"k	c #35414B",
"l	c #3E484F",
"m	c #3E4950",
"n	c #303942",
"o	c #333E47",
"p	c #0E1214",
"q	c #3A444A",
"r	c #181F24",
"s	c #0F1215",
"t	c #343E48",
"u	c #1E242A",
"v	c #0F1418",
"w	c #1E252C",
"x	c #323A44",
"y	c #35414C",
"z	c #0A0D0F",
"A	c #36424D",
"B	c #313B44",
"C	c #37424D",
"D	c #2B343C",
"E	c #2C363E",
"F	c #38434D",
"G	c #2F3942",
"H	c #3D4954",
"I	c #2D363F",
"J	c #1D252B",
"K	c #0A0C0E",
"L	c #2F3842",
"M	c #3C4854",
"N	c #414D58",
"O	c #272E35",
"P	c #14171B",
"Q	c #272E36",
"R	c #414D59",
"S	c #3D4853",
"T	c #3F4A56",
"U	c #46525F",
"V	c #4A5763",
"W	c #46525E",
"X	c #3F4A55",
"Y	c #343E47",
"Z	c #151618",
"......................",
"+@@@@@@@@@@@@@@@@@@@@@",
"#$$$$$$$$$$$$$$$$$$$$$",
"$$$$$$$$$$$$$$$$$$$$$$",
"$$$$$$$$$$$$$$$$$$$$$$",
"$$$$$$$$$$$$$$$$$$$$$$",
"$$$$$$%&*==*&-$$$$$$$$",
"$$$$$;>,'))',!~$$$$$$$",
"$$$${>]^/((/^]>_$$$$$$",
"$$$-:<[}~{{~}[]:|$$$$$",
"$$$12^}345563}^7&$$$$$",
"$$$8'/~90aa0b~/'c$$$$$",
"$$$de({5fggh5{(ij$$$$$",
"$$kde({5lggm5{(ijk$$$$",
"nnop'/~q0aa0q~/rsonnnn",
"nntuv^}345563}^,wtnnnn",
"nnxy=<[}~{{~}[]zABnnnn",
"nnnCD>]^/((/^]>EFnnnnn",
"nnnGHI:,'JJ',KIHLnnnnn",
"nnnnnMNOP>>PQRSnnnnnnn",
"nnnnnntTUVVWXYnnnnnnnn",
"nnnnnnnnnnnnnnnnnnnnnn",
"nnnnnnnnnnnnnnnnnnnnnn",
"nnnnnnnnnnnnnnnnnnnnnn",
"nnnnnnnnnnnnnnnnnnnnnn",
"nnnnnnnnnnnnnnnnnnnnnn",
"nnnnnnnnnnnnnnnnnnnnnn",
"ZZZZZZZZZZZZZZZZZZZZZZ"};
