/* XPM */
static char * close_active_xpm[] = {
"22 28 93 2",
"  	c None",
". 	c #111418",
"+ 	c #3F5061",
"@ 	c #3E5061",
"# 	c #34404B",
"$ 	c #343F4A",
"% 	c #303A44",
"& 	c #1D232A",
"* 	c #0F1317",
"= 	c #090C0F",
"- 	c #2F3A44",
"; 	c #232B33",
"> 	c #080B0D",
", 	c #101417",
"' 	c #191F24",
") 	c #1C242A",
"! 	c #090B0E",
"~ 	c #242C33",
"{ 	c #242D34",
"] 	c #192025",
"^ 	c #20272D",
"/ 	c #21292F",
"( 	c #212930",
"_ 	c #252D35",
": 	c #090C0E",
"< 	c #1A1F25",
"[ 	c #20282E",
"} 	c #222A31",
"| 	c #303B45",
"1 	c #1C2229",
"2 	c #101419",
"3 	c #ABB8BF",
"4 	c #717C83",
"5 	c #273138",
"6 	c #717C84",
"7 	c #ABB7BF",
"8 	c #101518",
"9 	c #0E1215",
"0 	c #6B767D",
"a 	c #C8D6DD",
"b 	c #747F87",
"c 	c #748088",
"d 	c #6A757C",
"e 	c #0E1116",
"f 	c #080A0D",
"g 	c #1D242A",
"h 	c #6D7981",
"i 	c #6C7880",
"j 	c #1C242B",
"k 	c #080A0C",
"l 	c #35414B",
"m 	c #6C787E",
"n 	c #6B777F",
"o 	c #303942",
"p 	c #333E47",
"q 	c #0E1214",
"r 	c #69757B",
"s 	c #68747B",
"t 	c #181F24",
"u 	c #0F1215",
"v 	c #343E48",
"w 	c #1E242A",
"x 	c #0F1418",
"y 	c #1E252C",
"z 	c #323A44",
"A 	c #35414C",
"B 	c #0A0D0F",
"C 	c #36424D",
"D 	c #313B44",
"E 	c #37424D",
"F 	c #2B343C",
"G 	c #2C363E",
"H 	c #38434D",
"I 	c #2F3942",
"J 	c #3D4954",
"K 	c #2D363F",
"L 	c #1D252B",
"M 	c #0A0C0E",
"N 	c #2F3842",
"O 	c #3C4854",
"P 	c #414D58",
"Q 	c #272E35",
"R 	c #14171B",
"S 	c #272E36",
"T 	c #414D59",
"U 	c #3D4853",
"V 	c #3F4A56",
"W 	c #46525F",
"X 	c #4A5763",
"Y 	c #46525E",
"Z 	c #3F4A55",
"` 	c #343E47",
" .	c #151618",
". . . . . . . . . . . . . . . . . . . . . . ",
"+ @ @ @ @ @ @ @ @ @ @ @ @ @ @ @ @ @ @ @ @ @ ",
"# $ $ $ $ $ $ $ $ $ $ $ $ $ $ $ $ $ $ $ $ $ ",
"$ $ $ $ $ $ $ $ $ $ $ $ $ $ $ $ $ $ $ $ $ $ ",
"$ $ $ $ $ $ $ $ $ $ $ $ $ $ $ $ $ $ $ $ $ $ ",
"$ $ $ $ $ $ $ $ $ $ $ $ $ $ $ $ $ $ $ $ $ $ ",
"$ $ $ $ $ $ % & * = = * & - $ $ $ $ $ $ $ $ ",
"$ $ $ $ $ ; > , ' ) ) ' , ! ~ $ $ $ $ $ $ $ ",
"$ $ $ $ { > ] ^ / ( ( / ^ ] > _ $ $ $ $ $ $ ",
"$ $ $ - : < [ } ~ { { ~ } [ ] : | $ $ $ $ $ ",
"$ $ $ 1 2 ^ } 3 4 5 5 6 7 } ^ 8 & $ $ $ $ $ ",
"$ $ $ 9 ' / ~ 0 a b c a d ~ / ' e $ $ $ $ $ ",
"$ $ $ f g ( { 5 h a a i 5 { ( j k $ $ $ $ $ ",
"$ $ l f g ( { 5 m a a n 5 { ( j k l $ $ $ $ ",
"o o p q ' / ~ r a b c a s ~ / t u p o o o o ",
"o o v w x ^ } 3 4 5 5 6 7 } ^ , y v o o o o ",
"o o z A = < [ } ~ { { ~ } [ ] B C D o o o o ",
"o o o E F > ] ^ / ( ( / ^ ] > G H o o o o o ",
"o o o I J K : , ' L L ' , M K J N o o o o o ",
"o o o o o O P Q R > > R S T U o o o o o o o ",
"o o o o o o v V W X X Y Z ` o o o o o o o o ",
"o o o o o o o o o o o o o o o o o o o o o o ",
"o o o o o o o o o o o o o o o o o o o o o o ",
"o o o o o o o o o o o o o o o o o o o o o o ",
"o o o o o o o o o o o o o o o o o o o o o o ",
"o o o o o o o o o o o o o o o o o o o o o o ",
"o o o o o o o o o o o o o o o o o o o o o o ",
" . . . . . . . . . . . . . . . . . . . . . ."};
