/* XPM */
static char * close_prelight_xpm[] = {
"22 28 96 2",
"  	c None",
". 	c #111418",
"+ 	c #3F5061",
"@ 	c #3E5061",
"# 	c #34404B",
"$ 	c #343F4A",
"% 	c #303A44",
"& 	c #1D232A",
"* 	c #0F1317",
"= 	c #090C0F",
"- 	c #2F3A44",
"; 	c #232B33",
"> 	c #0A0B0D",
", 	c #2D1517",
"' 	c #4A1D21",
") 	c #522024",
"! 	c #0B0B0E",
"~ 	c #242C33",
"{ 	c #242D34",
"] 	c #100C0E",
"^ 	c #4B1E21",
"/ 	c #512226",
"( 	c #492328",
"_ 	c #452429",
": 	c #252D35",
"< 	c #0C0C0E",
"[ 	c #4D1D21",
"} 	c #4D2227",
"| 	c #432429",
"1 	c #3C262B",
"2 	c #39272D",
"3 	c #303B45",
"4 	c #1C2229",
"5 	c #30151A",
"6 	c #DB4D4E",
"7 	c #903E41",
"8 	c #302C32",
"9 	c #913F42",
"0 	c #301619",
"a 	c #0E1215",
"b 	c #893C40",
"c 	c #FE5656",
"d 	c #8E4246",
"e 	c #8E4245",
"f 	c #883C40",
"g 	c #491D21",
"h 	c #0E1116",
"i 	c #080A0D",
"j 	c #541F24",
"k 	c #854044",
"l 	c #532025",
"m 	c #080A0C",
"n 	c #35414B",
"o 	c #833F43",
"p 	c #823F44",
"q 	c #303942",
"r 	c #333E47",
"s 	c #0E1214",
"t 	c #863C3F",
"u 	c #0F1215",
"v 	c #343E48",
"w 	c #1E242A",
"x 	c #2D1418",
"y 	c #2E1417",
"z 	c #1E252C",
"A 	c #323A44",
"B 	c #35414C",
"C 	c #0B0C0F",
"D 	c #0C0D0F",
"E 	c #36424D",
"F 	c #313B44",
"G 	c #37424D",
"H 	c #2B343C",
"I 	c #2C363E",
"J 	c #38434D",
"K 	c #2F3942",
"L 	c #3D4954",
"M 	c #2D363F",
"N 	c #0B0C0E",
"O 	c #542024",
"P 	c #2F3842",
"Q 	c #3C4854",
"R 	c #414D58",
"S 	c #272E35",
"T 	c #14171B",
"U 	c #080B0D",
"V 	c #272E36",
"W 	c #414D59",
"X 	c #3D4853",
"Y 	c #3F4A56",
"Z 	c #46525F",
"` 	c #4A5763",
" .	c #46525E",
"..	c #3F4A55",
"+.	c #343E47",
"@.	c #151618",
". . . . . . . . . . . . . . . . . . . . . . ",
"+ @ @ @ @ @ @ @ @ @ @ @ @ @ @ @ @ @ @ @ @ @ ",
"# $ $ $ $ $ $ $ $ $ $ $ $ $ $ $ $ $ $ $ $ $ ",
"$ $ $ $ $ $ $ $ $ $ $ $ $ $ $ $ $ $ $ $ $ $ ",
"$ $ $ $ $ $ $ $ $ $ $ $ $ $ $ $ $ $ $ $ $ $ ",
"$ $ $ $ $ $ $ $ $ $ $ $ $ $ $ $ $ $ $ $ $ $ ",
"$ $ $ $ $ $ % & * = = * & - $ $ $ $ $ $ $ $ ",
"$ $ $ $ $ ; > , ' ) ) ' , ! ~ $ $ $ $ $ $ $ ",
"$ $ $ $ { ] ^ / ( _ _ ( / ^ ] : $ $ $ $ $ $ ",
"$ $ $ - < [ } | 1 2 2 1 | } ^ < 3 $ $ $ $ $ ",
"$ $ $ 4 5 / | 6 7 8 8 9 6 | / 0 & $ $ $ $ $ ",
"$ $ $ a ' ( 1 b c d e c f 1 ( g h $ $ $ $ $ ",
"$ $ $ i j _ 2 8 k c c k 8 2 _ l m $ $ $ $ $ ",
"$ $ n i j _ 2 8 o c c p 8 2 _ l m n $ $ $ $ ",
"q q r s ' ( 1 t c d e c t 1 ( g u r q q q q ",
"q q v w x / | 6 7 8 8 9 6 | / y z v q q q q ",
"q q A B C [ } | 1 2 2 1 | } ^ D E F q q q q ",
"q q q G H ] ^ / ( _ _ ( / ^ ] I J q q q q q ",
"q q q K L M N , ' O O ' , < M L P q q q q q ",
"q q q q q Q R S T U U T V W X q q q q q q q ",
"q q q q q q v Y Z ` `  ...+.q q q q q q q q ",
"q q q q q q q q q q q q q q q q q q q q q q ",
"q q q q q q q q q q q q q q q q q q q q q q ",
"q q q q q q q q q q q q q q q q q q q q q q ",
"q q q q q q q q q q q q q q q q q q q q q q ",
"q q q q q q q q q q q q q q q q q q q q q q ",
"q q q q q q q q q q q q q q q q q q q q q q ",
"@.@.@.@.@.@.@.@.@.@.@.@.@.@.@.@.@.@.@.@.@.@."};
