/* XPM */
static char * hide_active_xpm[] = {
"22 28 91 1",
" 	c None",
".	c #111418",
"+	c #3F5061",
"@	c #3E5061",
"#	c #34404B",
"$	c #343F4A",
"%	c #303A44",
"&	c #1D232A",
"*	c #0F1317",
"=	c #090C0F",
"-	c #2F3A44",
";	c #232B33",
">	c #070B0D",
",	c #0B0E11",
"'	c #0F1417",
")	c #121619",
"!	c #080A0E",
"~	c #242C33",
"{	c #242D34",
"]	c #07090C",
"^	c #101517",
"/	c #13171A",
"(	c #14181A",
"_	c #252D35",
":	c #090C0E",
"<	c #101417",
"[	c #13181A",
"}	c #15181A",
"|	c #080C0E",
"1	c #303B45",
"2	c #1C2229",
"3	c #0B0E12",
"4	c #16191A",
"5	c #17191A",
"6	c #0B0F11",
"7	c #0E1215",
"8	c #244055",
"9	c #1A2127",
"0	c #18191A",
"a	c #0F1416",
"b	c #0E1116",
"c	c #080A0D",
"d	c #3D8AC8",
"e	c #3B84BE",
"f	c #1C2327",
"g	c #3B84BF",
"h	c #3D89C7",
"i	c #12161A",
"j	c #080A0C",
"k	c #35414B",
"l	c #1D2B35",
"m	c #3F8FCF",
"n	c #1D2A34",
"o	c #303942",
"p	c #333E47",
"q	c #0E1214",
"r	c #3E8ECE",
"s	c #0F1215",
"t	c #343E48",
"u	c #1E242A",
"v	c #1E252C",
"w	c #323A44",
"x	c #35414C",
"y	c #080C0F",
"z	c #090D0F",
"A	c #36424D",
"B	c #313B44",
"C	c #37424D",
"D	c #2B343C",
"E	c #2C363E",
"F	c #38434D",
"G	c #2F3942",
"H	c #3D4954",
"I	c #2D363F",
"J	c #090B0E",
"K	c #2F3842",
"L	c #3C4854",
"M	c #414D58",
"N	c #272E35",
"O	c #14171B",
"P	c #080B0D",
"Q	c #272E36",
"R	c #414D59",
"S	c #3D4853",
"T	c #3F4A56",
"U	c #46525F",
"V	c #4A5763",
"W	c #46525E",
"X	c #3F4A55",
"Y	c #343E47",
"Z	c #151618",
"......................",
"+@@@@@@@@@@@@@@@@@@@@@",
"#$$$$$$$$$$$$$$$$$$$$$",
"$$$$$$$$$$$$$$$$$$$$$$",
"$$$$$$$$$$$$$$$$$$$$$$",
"$$$$$$$$$$$$$$$$$$$$$$",
"$$$$$$%&*==*&-$$$$$$$$",
"$$$$$;>,'))',!~$$$$$$$",
"$$$${]^/((((/']_$$$$$$",
"$$$-:<[(}}}}([^|1$$$$$",
"$$$23/(}4554}(/6&$$$$$",
"$$$7'(}890098}(ab$$$$$",
"$$$c)(}deffgh}(ij$$$$$",
"$$kc)(}lmggmn}(ijk$$$$",
"oopq'(}4lmrn4}(aspoooo",
"ootu6/(}4nn4}(/,vtoooo",
"oowxy<[(}}}}([^zABoooo",
"oooCD]^/((((/']EFooooo",
"oooGHI|,'))',JIHKooooo",
"oooooLMNOPPOQRSooooooo",
"ooooootTUVVWXYoooooooo",
"oooooooooooooooooooooo",
"oooooooooooooooooooooo",
"oooooooooooooooooooooo",
"oooooooooooooooooooooo",
"oooooooooooooooooooooo",
"oooooooooooooooooooooo",
"ZZZZZZZZZZZZZZZZZZZZZZ"};
