/* XPM */
static char * hide_prelight_xpm[] = {
"22 28 92 2",
"  	c None",
". 	c #111418",
"+ 	c #3F5061",
"@ 	c #3E5061",
"# 	c #34404B",
"$ 	c #343F4A",
"% 	c #303A44",
"& 	c #1D232A",
"* 	c #0F1419",
"= 	c #0A0E13",
"- 	c #2F3A44",
"; 	c #232B33",
"> 	c #090F12",
", 	c #10181F",
"' 	c #19252E",
") 	c #1C2A35",
"! 	c #0A0F12",
"~ 	c #242C33",
"{ 	c #242D34",
"] 	c #090F13",
"^ 	c #19262F",
"/ 	c #1F2F3B",
"( 	c #20323F",
"_ 	c #203343",
": 	c #252D35",
"< 	c #1A252F",
"[ 	c #1F303D",
"} 	c #213545",
"| 	c #22394A",
"1 	c #223A4D",
"2 	c #0B0E12",
"3 	c #303B45",
"4 	c #1C2229",
"5 	c #101821",
"6 	c #233F53",
"7 	c #254257",
"8 	c #101920",
"9 	c #0E1416",
"0 	c #3D8BC9",
"a 	c #316794",
"b 	c #254861",
"c 	c #316894",
"d 	c #0E1317",
"e 	c #090E11",
"f 	c #1D2A35",
"g 	c #336E9C",
"h 	c #449EE7",
"i 	c #326E9D",
"j 	c #336D9A",
"k 	c #1C2A36",
"l 	c #35414B",
"m 	c #3474A5",
"n 	c #3471A0",
"o 	c #303942",
"p 	c #333E47",
"q 	c #25435C",
"r 	c #3676A8",
"s 	c #3474A4",
"t 	c #18252E",
"u 	c #343E48",
"v 	c #1E242A",
"w 	c #0F1820",
"x 	c #1E252C",
"y 	c #323A44",
"z 	c #35414C",
"A 	c #0A0F13",
"B 	c #36424D",
"C 	c #313B44",
"D 	c #37424D",
"E 	c #2B343C",
"F 	c #2C363E",
"G 	c #38434D",
"H 	c #2F3942",
"I 	c #3D4954",
"J 	c #2D363F",
"K 	c #1D2B36",
"L 	c #0B0F13",
"M 	c #2F3842",
"N 	c #3C4854",
"O 	c #414D58",
"P 	c #272E35",
"Q 	c #14191D",
"R 	c #272E36",
"S 	c #414D59",
"T 	c #3D4853",
"U 	c #3F4A56",
"V 	c #46525F",
"W 	c #4A5763",
"X 	c #46525E",
"Y 	c #3F4A55",
"Z 	c #343E47",
"` 	c #151618",
". . . . . . . . . . . . . . . . . . . . . . ",
"+ @ @ @ @ @ @ @ @ @ @ @ @ @ @ @ @ @ @ @ @ @ ",
"# $ $ $ $ $ $ $ $ $ $ $ $ $ $ $ $ $ $ $ $ $ ",
"$ $ $ $ $ $ $ $ $ $ $ $ $ $ $ $ $ $ $ $ $ $ ",
"$ $ $ $ $ $ $ $ $ $ $ $ $ $ $ $ $ $ $ $ $ $ ",
"$ $ $ $ $ $ $ $ $ $ $ $ $ $ $ $ $ $ $ $ $ $ ",
"$ $ $ $ $ $ % & * = = * & - $ $ $ $ $ $ $ $ ",
"$ $ $ $ $ ; > , ' ) ) ' , ! ~ $ $ $ $ $ $ $ ",
"$ $ $ $ { ] ^ / ( _ _ ( / ^ ] : $ $ $ $ $ $ ",
"$ $ $ - ! < [ } | 1 1 | } [ ^ 2 3 $ $ $ $ $ ",
"$ $ $ 4 5 / } 1 6 7 7 6 1 } / 8 & $ $ $ $ $ ",
"$ $ $ 9 ' ( | 0 a b b c 0 | ( ' d $ $ $ $ $ ",
"$ $ $ e f _ 1 g h i i h j 1 _ k e $ $ $ $ $ ",
"$ $ l e f _ 1 7 m h h n 7 1 _ k e l $ $ $ $ ",
"o o p 9 ' ( | 6 q r s q 6 | ( t d p o o o o ",
"o o u v w / } 1 6 7 7 6 1 } / , x u o o o o ",
"o o y z A < [ } | 1 1 | } [ ^ A B C o o o o ",
"o o o D E ] ^ / ( _ _ ( / ^ ] F G o o o o o ",
"o o o H I J A , ' K K ' , L J I M o o o o o ",
"o o o o o N O P Q e e Q R S T o o o o o o o ",
"o o o o o o u U V W W X Y Z o o o o o o o o ",
"o o o o o o o o o o o o o o o o o o o o o o ",
"o o o o o o o o o o o o o o o o o o o o o o ",
"o o o o o o o o o o o o o o o o o o o o o o ",
"o o o o o o o o o o o o o o o o o o o o o o ",
"o o o o o o o o o o o o o o o o o o o o o o ",
"o o o o o o o o o o o o o o o o o o o o o o ",
"` ` ` ` ` ` ` ` ` ` ` ` ` ` ` ` ` ` ` ` ` ` "};
