/* XPM */
static char * hide_inactive_xpm[] = {
"22 28 92 2",
"  	c None",
". 	c #111418",
"+ 	c #3F5061",
"@ 	c #3E5061",
"# 	c #34404B",
"$ 	c #343F4A",
"% 	c #303A44",
"& 	c #1D232A",
"* 	c #0F1317",
"= 	c #090C0F",
"- 	c #2F3A44",
"; 	c #232B33",
"> 	c #080B0D",
", 	c #101417",
"' 	c #191F24",
") 	c #1C242A",
"! 	c #090B0E",
"~ 	c #242C33",
"{ 	c #242D34",
"] 	c #192025",
"^ 	c #20272D",
"/ 	c #21292F",
"( 	c #212930",
"_ 	c #252D35",
": 	c #090C0E",
"< 	c #1A1F25",
"[ 	c #20282E",
"} 	c #222A31",
"| 	c #303B45",
"1 	c #1C2229",
"2 	c #101419",
"3 	c #262F36",
"4 	c #273138",
"5 	c #101518",
"6 	c #0E1215",
"7 	c #4D575E",
"8 	c #3C464E",
"9 	c #2A343C",
"0 	c #0E1116",
"a 	c #080A0D",
"b 	c #1D242A",
"c 	c #3E4950",
"d 	c #59656D",
"e 	c #404A52",
"f 	c #3D484F",
"g 	c #1C242B",
"h 	c #080A0C",
"i 	c #35414B",
"j 	c #434D55",
"k 	c #5B676F",
"l 	c #414B53",
"m 	c #303942",
"n 	c #333E47",
"o 	c #0E1214",
"p 	c #29323A",
"q 	c #434E56",
"r 	c #424D55",
"s 	c #181F24",
"t 	c #0F1215",
"u 	c #343E48",
"v 	c #1E242A",
"w 	c #0F1418",
"x 	c #1E252C",
"y 	c #323A44",
"z 	c #35414C",
"A 	c #0A0D0F",
"B 	c #36424D",
"C 	c #313B44",
"D 	c #37424D",
"E 	c #2B343C",
"F 	c #2C363E",
"G 	c #38434D",
"H 	c #2F3942",
"I 	c #3D4954",
"J 	c #2D363F",
"K 	c #1D252B",
"L 	c #0A0C0E",
"M 	c #2F3842",
"N 	c #3C4854",
"O 	c #414D58",
"P 	c #272E35",
"Q 	c #14171B",
"R 	c #272E36",
"S 	c #414D59",
"T 	c #3D4853",
"U 	c #3F4A56",
"V 	c #46525F",
"W 	c #4A5763",
"X 	c #46525E",
"Y 	c #3F4A55",
"Z 	c #343E47",
"` 	c #151618",
". . . . . . . . . . . . . . . . . . . . . . ",
"+ @ @ @ @ @ @ @ @ @ @ @ @ @ @ @ @ @ @ @ @ @ ",
"# $ $ $ $ $ $ $ $ $ $ $ $ $ $ $ $ $ $ $ $ $ ",
"$ $ $ $ $ $ $ $ $ $ $ $ $ $ $ $ $ $ $ $ $ $ ",
"$ $ $ $ $ $ $ $ $ $ $ $ $ $ $ $ $ $ $ $ $ $ ",
"$ $ $ $ $ $ $ $ $ $ $ $ $ $ $ $ $ $ $ $ $ $ ",
"$ $ $ $ $ $ % & * = = * & - $ $ $ $ $ $ $ $ ",
"$ $ $ $ $ ; > , ' ) ) ' , ! ~ $ $ $ $ $ $ $ ",
"$ $ $ $ { > ] ^ / ( ( / ^ ] > _ $ $ $ $ $ $ ",
"$ $ $ - : < [ } ~ { { ~ } [ ] : | $ $ $ $ $ ",
"$ $ $ 1 2 ^ } { 3 4 4 3 { } ^ 5 & $ $ $ $ $ ",
"$ $ $ 6 ' / ~ 7 8 9 9 8 7 ~ / ' 0 $ $ $ $ $ ",
"$ $ $ a b ( { c d e e d f { ( g h $ $ $ $ $ ",
"$ $ i a b ( { 4 j k k l 4 { ( g h i $ $ $ $ ",
"m m n o ' / ~ 3 p q r p 3 ~ / s t n m m m m ",
"m m u v w ^ } { 3 4 4 3 { } ^ , x u m m m m ",
"m m y z = < [ } ~ { { ~ } [ ] A B C m m m m ",
"m m m D E > ] ^ / ( ( / ^ ] > F G m m m m m ",
"m m m H I J : , ' K K ' , L J I M m m m m m ",
"m m m m m N O P Q > > Q R S T m m m m m m m ",
"m m m m m m u U V W W X Y Z m m m m m m m m ",
"m m m m m m m m m m m m m m m m m m m m m m ",
"m m m m m m m m m m m m m m m m m m m m m m ",
"m m m m m m m m m m m m m m m m m m m m m m ",
"m m m m m m m m m m m m m m m m m m m m m m ",
"m m m m m m m m m m m m m m m m m m m m m m ",
"m m m m m m m m m m m m m m m m m m m m m m ",
"` ` ` ` ` ` ` ` ` ` ` ` ` ` ` ` ` ` ` ` ` ` "};
