/* XPM */
static char * maximize_pressed_xpm[] = {
"22 28 95 2",
"  	c None",
". 	c #111418",
"+ 	c #3F5061",
"@ 	c #3E5061",
"# 	c #34404B",
"$ 	c #343F4A",
"% 	c #303A44",
"& 	c #1D232A",
"* 	c #0F1317",
"= 	c #090C0F",
"- 	c #2F3A44",
"; 	c #232B33",
"> 	c #080B0D",
", 	c #101417",
"' 	c #191F24",
") 	c #1C242A",
"! 	c #090B0E",
"~ 	c #242C33",
"{ 	c #242D34",
"] 	c #192025",
"^ 	c #20272D",
"/ 	c #21292F",
"( 	c #212930",
"_ 	c #252D35",
": 	c #090C0E",
"< 	c #1A1F25",
"[ 	c #20282E",
"} 	c #222A31",
"| 	c #303B45",
"1 	c #1C2229",
"2 	c #101419",
"3 	c #262F36",
"4 	c #273138",
"5 	c #101518",
"6 	c #0E1215",
"7 	c #29323A",
"8 	c #707B84",
"9 	c #727E86",
"0 	c #0E1116",
"a 	c #080A0D",
"b 	c #1D242A",
"c 	c #6C787E",
"d 	c #C8D6DD",
"e 	c #C9D7DE",
"f 	c #6F7B83",
"g 	c #1C242B",
"h 	c #080A0C",
"i 	c #35414B",
"j 	c #6A767C",
"k 	c #758189",
"l 	c #76818A",
"m 	c #6B767D",
"n 	c #303942",
"o 	c #333E47",
"p 	c #0E1214",
"q 	c #ACB8C0",
"r 	c #727E85",
"s 	c #2A343C",
"t 	c #737E86",
"u 	c #ABB8BF",
"v 	c #181F24",
"w 	c #0F1215",
"x 	c #343E48",
"y 	c #1E242A",
"z 	c #0F1418",
"A 	c #1E252C",
"B 	c #323A44",
"C 	c #35414C",
"D 	c #0A0D0F",
"E 	c #36424D",
"F 	c #313B44",
"G 	c #37424D",
"H 	c #2B343C",
"I 	c #2C363E",
"J 	c #38434D",
"K 	c #2F3942",
"L 	c #3D4954",
"M 	c #2D363F",
"N 	c #1D252B",
"O 	c #0A0C0E",
"P 	c #2F3842",
"Q 	c #3C4854",
"R 	c #414D58",
"S 	c #272E35",
"T 	c #14171B",
"U 	c #272E36",
"V 	c #414D59",
"W 	c #3D4853",
"X 	c #3F4A56",
"Y 	c #46525F",
"Z 	c #4A5763",
"` 	c #46525E",
" .	c #3F4A55",
"..	c #343E47",
"+.	c #151618",
". . . . . . . . . . . . . . . . . . . . . . ",
"+ @ @ @ @ @ @ @ @ @ @ @ @ @ @ @ @ @ @ @ @ @ ",
"# $ $ $ $ $ $ $ $ $ $ $ $ $ $ $ $ $ $ $ $ $ ",
"$ $ $ $ $ $ $ $ $ $ $ $ $ $ $ $ $ $ $ $ $ $ ",
"$ $ $ $ $ $ $ $ $ $ $ $ $ $ $ $ $ $ $ $ $ $ ",
"$ $ $ $ $ $ $ $ $ $ $ $ $ $ $ $ $ $ $ $ $ $ ",
"$ $ $ $ $ $ % & * = = * & - $ $ $ $ $ $ $ $ ",
"$ $ $ $ $ ; > , ' ) ) ' , ! ~ $ $ $ $ $ $ $ ",
"$ $ $ $ { > ] ^ / ( ( / ^ ] > _ $ $ $ $ $ $ ",
"$ $ $ - : < [ } ~ { { ~ } [ ] : | $ $ $ $ $ ",
"$ $ $ 1 2 ^ } { 3 4 4 3 { } ^ 5 & $ $ $ $ $ ",
"$ $ $ 6 ' / ~ 3 7 8 9 7 3 ~ / ' 0 $ $ $ $ $ ",
"$ $ $ a b ( { 4 c d e f 4 { ( g h $ $ $ $ $ ",
"$ $ i a b ( { j d k l d m { ( g h i $ $ $ $ ",
"n n o p ' / ~ q r s s t u ~ / v w o n n n n ",
"n n x y z ^ } { 3 4 4 3 { } ^ , A x n n n n ",
"n n B C = < [ } ~ { { ~ } [ ] D E F n n n n ",
"n n n G H > ] ^ / ( ( / ^ ] > I J n n n n n ",
"n n n K L M : , ' N N ' , O M L P n n n n n ",
"n n n n n Q R S T > > T U V W n n n n n n n ",
"n n n n n n x X Y Z Z `  ...n n n n n n n n ",
"n n n n n n n n n n n n n n n n n n n n n n ",
"n n n n n n n n n n n n n n n n n n n n n n ",
"n n n n n n n n n n n n n n n n n n n n n n ",
"n n n n n n n n n n n n n n n n n n n n n n ",
"n n n n n n n n n n n n n n n n n n n n n n ",
"n n n n n n n n n n n n n n n n n n n n n n ",
"+.+.+.+.+.+.+.+.+.+.+.+.+.+.+.+.+.+.+.+.+.+."};
