/* XPM */
static char * maximize_active_xpm[] = {
"22 28 92 2",
"  	c None",
". 	c #111418",
"+ 	c #3F5061",
"@ 	c #3E5061",
"# 	c #34404B",
"$ 	c #343F4A",
"% 	c #303A44",
"& 	c #1D232A",
"* 	c #0F1317",
"= 	c #090C0F",
"- 	c #2F3A44",
"; 	c #232B33",
"> 	c #070B0D",
", 	c #0B0E11",
"' 	c #0F1417",
") 	c #121619",
"! 	c #080A0E",
"~ 	c #242C33",
"{ 	c #242D34",
"] 	c #07090C",
"^ 	c #101517",
"/ 	c #13171A",
"( 	c #14181A",
"_ 	c #252D35",
": 	c #090C0E",
"< 	c #101417",
"[ 	c #13181A",
"} 	c #15181A",
"| 	c #080C0E",
"1 	c #303B45",
"2 	c #1C2229",
"3 	c #0B0E12",
"4 	c #16191A",
"5 	c #17191A",
"6 	c #0B0F11",
"7 	c #0E1215",
"8 	c #1C262E",
"9 	c #0F1416",
"0 	c #0E1116",
"a 	c #080A0D",
"b 	c #1D272E",
"c 	c #3D8AC8",
"d 	c #3D89C7",
"e 	c #12161A",
"f 	c #080A0C",
"g 	c #35414B",
"h 	c #1C272E",
"i 	c #1B262E",
"j 	c #303942",
"k 	c #333E47",
"l 	c #0E1214",
"m 	c #3B86C1",
"n 	c #3D89C6",
"o 	c #1C252D",
"p 	c #3B85C0",
"q 	c #0F1215",
"r 	c #343E48",
"s 	c #1E242A",
"t 	c #264762",
"u 	c #1A252C",
"v 	c #1A252D",
"w 	c #1E252C",
"x 	c #323A44",
"y 	c #35414C",
"z 	c #080C0F",
"A 	c #090D0F",
"B 	c #36424D",
"C 	c #313B44",
"D 	c #37424D",
"E 	c #2B343C",
"F 	c #2C363E",
"G 	c #38434D",
"H 	c #2F3942",
"I 	c #3D4954",
"J 	c #2D363F",
"K 	c #090B0E",
"L 	c #2F3842",
"M 	c #3C4854",
"N 	c #414D58",
"O 	c #272E35",
"P 	c #14171B",
"Q 	c #080B0D",
"R 	c #272E36",
"S 	c #414D59",
"T 	c #3D4853",
"U 	c #3F4A56",
"V 	c #46525F",
"W 	c #4A5763",
"X 	c #46525E",
"Y 	c #3F4A55",
"Z 	c #343E47",
"` 	c #151618",
". . . . . . . . . . . . . . . . . . . . . . ",
"+ @ @ @ @ @ @ @ @ @ @ @ @ @ @ @ @ @ @ @ @ @ ",
"# $ $ $ $ $ $ $ $ $ $ $ $ $ $ $ $ $ $ $ $ $ ",
"$ $ $ $ $ $ $ $ $ $ $ $ $ $ $ $ $ $ $ $ $ $ ",
"$ $ $ $ $ $ $ $ $ $ $ $ $ $ $ $ $ $ $ $ $ $ ",
"$ $ $ $ $ $ $ $ $ $ $ $ $ $ $ $ $ $ $ $ $ $ ",
"$ $ $ $ $ $ % & * = = * & - $ $ $ $ $ $ $ $ ",
"$ $ $ $ $ ; > , ' ) ) ' , ! ~ $ $ $ $ $ $ $ ",
"$ $ $ $ { ] ^ / ( ( ( ( / ' ] _ $ $ $ $ $ $ ",
"$ $ $ - : < [ ( } } } } ( [ ^ | 1 $ $ $ $ $ ",
"$ $ $ 2 3 / ( } 4 5 5 4 } ( / 6 & $ $ $ $ $ ",
"$ $ $ 7 ' ( } 4 5 8 8 5 4 } ( 9 0 $ $ $ $ $ ",
"$ $ $ a ) ( } 5 b c d 8 5 } ( e f $ $ $ $ $ ",
"$ $ g a ) ( } h c d d c i } ( e f g $ $ $ $ ",
"j j k l ' ( } m n o 8 d p } ( 9 q k j j j j ",
"j j r s 6 / ( t u 5 5 v t ( / , w r j j j j ",
"j j x y z < [ ( } } } } ( [ ^ A B C j j j j ",
"j j j D E ] ^ / ( ( ( ( / ' ] F G j j j j j ",
"j j j H I J | , ' ) ) ' , K J I L j j j j j ",
"j j j j j M N O P Q Q P R S T j j j j j j j ",
"j j j j j j r U V W W X Y Z j j j j j j j j ",
"j j j j j j j j j j j j j j j j j j j j j j ",
"j j j j j j j j j j j j j j j j j j j j j j ",
"j j j j j j j j j j j j j j j j j j j j j j ",
"j j j j j j j j j j j j j j j j j j j j j j ",
"j j j j j j j j j j j j j j j j j j j j j j ",
"j j j j j j j j j j j j j j j j j j j j j j ",
"` ` ` ` ` ` ` ` ` ` ` ` ` ` ` ` ` ` ` ` ` ` "};
