/* XPM */
static char * maximize_prelight_xpm[] = {
"22 28 93 2",
"  	c None",
". 	c #111418",
"+ 	c #3F5061",
"@ 	c #3E5061",
"# 	c #34404B",
"$ 	c #343F4A",
"% 	c #303A44",
"& 	c #1D232A",
"* 	c #0F1419",
"= 	c #0A0E13",
"- 	c #2F3A44",
"; 	c #232B33",
"> 	c #090F12",
", 	c #10181F",
"' 	c #19252E",
") 	c #1C2A35",
"! 	c #0A0F12",
"~ 	c #242C33",
"{ 	c #242D34",
"] 	c #090F13",
"^ 	c #19262F",
"/ 	c #1F2F3B",
"( 	c #20323F",
"_ 	c #203343",
": 	c #252D35",
"< 	c #1A252F",
"[ 	c #1F303D",
"} 	c #213545",
"| 	c #22394A",
"1 	c #223A4D",
"2 	c #0B0E12",
"3 	c #303B45",
"4 	c #1C2229",
"5 	c #101821",
"6 	c #233F53",
"7 	c #254257",
"8 	c #101920",
"9 	c #0E1416",
"0 	c #25435C",
"a 	c #336E9C",
"b 	c #336F9F",
"c 	c #0E1317",
"d 	c #090E11",
"e 	c #1D2A35",
"f 	c #326B99",
"g 	c #449EE7",
"h 	c #449FE8",
"i 	c #1C2A36",
"j 	c #35414B",
"k 	c #326893",
"l 	c #3473A4",
"m 	c #3573A5",
"n 	c #326993",
"o 	c #303942",
"p 	c #333E47",
"q 	c #3E8DCD",
"r 	c #336D9C",
"s 	c #254861",
"t 	c #3D8ECC",
"u 	c #18252E",
"v 	c #343E48",
"w 	c #1E242A",
"x 	c #0F1820",
"y 	c #1E252C",
"z 	c #323A44",
"A 	c #35414C",
"B 	c #0A0F13",
"C 	c #36424D",
"D 	c #313B44",
"E 	c #37424D",
"F 	c #2B343C",
"G 	c #2C363E",
"H 	c #38434D",
"I 	c #2F3942",
"J 	c #3D4954",
"K 	c #2D363F",
"L 	c #1D2B36",
"M 	c #0B0F13",
"N 	c #2F3842",
"O 	c #3C4854",
"P 	c #414D58",
"Q 	c #272E35",
"R 	c #14191D",
"S 	c #272E36",
"T 	c #414D59",
"U 	c #3D4853",
"V 	c #3F4A56",
"W 	c #46525F",
"X 	c #4A5763",
"Y 	c #46525E",
"Z 	c #3F4A55",
"` 	c #343E47",
" .	c #151618",
". . . . . . . . . . . . . . . . . . . . . . ",
"+ @ @ @ @ @ @ @ @ @ @ @ @ @ @ @ @ @ @ @ @ @ ",
"# $ $ $ $ $ $ $ $ $ $ $ $ $ $ $ $ $ $ $ $ $ ",
"$ $ $ $ $ $ $ $ $ $ $ $ $ $ $ $ $ $ $ $ $ $ ",
"$ $ $ $ $ $ $ $ $ $ $ $ $ $ $ $ $ $ $ $ $ $ ",
"$ $ $ $ $ $ $ $ $ $ $ $ $ $ $ $ $ $ $ $ $ $ ",
"$ $ $ $ $ $ % & * = = * & - $ $ $ $ $ $ $ $ ",
"$ $ $ $ $ ; > , ' ) ) ' , ! ~ $ $ $ $ $ $ $ ",
"$ $ $ $ { ] ^ / ( _ _ ( / ^ ] : $ $ $ $ $ $ ",
"$ $ $ - ! < [ } | 1 1 | } [ ^ 2 3 $ $ $ $ $ ",
"$ $ $ 4 5 / } 1 6 7 7 6 1 } / 8 & $ $ $ $ $ ",
"$ $ $ 9 ' ( | 6 0 a b 0 6 | ( ' c $ $ $ $ $ ",
"$ $ $ d e _ 1 7 f g h a 7 1 _ i d $ $ $ $ $ ",
"$ $ j d e _ 1 k g l m g n 1 _ i d j $ $ $ $ ",
"o o p 9 ' ( | q r s s a t | ( u c p o o o o ",
"o o v w x / } 1 6 7 7 6 1 } / , y v o o o o ",
"o o z A B < [ } | 1 1 | } [ ^ B C D o o o o ",
"o o o E F ] ^ / ( _ _ ( / ^ ] G H o o o o o ",
"o o o I J K B , ' L L ' , M K J N o o o o o ",
"o o o o o O P Q R d d R S T U o o o o o o o ",
"o o o o o o v V W X X Y Z ` o o o o o o o o ",
"o o o o o o o o o o o o o o o o o o o o o o ",
"o o o o o o o o o o o o o o o o o o o o o o ",
"o o o o o o o o o o o o o o o o o o o o o o ",
"o o o o o o o o o o o o o o o o o o o o o o ",
"o o o o o o o o o o o o o o o o o o o o o o ",
"o o o o o o o o o o o o o o o o o o o o o o ",
" . . . . . . . . . . . . . . . . . . . . . ."};
