/* XPM */
static char * maximize_inactive_xpm[] = {
"22 28 93 2",
"  	c None",
". 	c #111418",
"+ 	c #3F5061",
"@ 	c #3E5061",
"# 	c #34404B",
"$ 	c #343F4A",
"% 	c #303A44",
"& 	c #1D232A",
"* 	c #0F1317",
"= 	c #090C0F",
"- 	c #2F3A44",
"; 	c #232B33",
"> 	c #080B0D",
", 	c #101417",
"' 	c #191F24",
") 	c #1C242A",
"! 	c #090B0E",
"~ 	c #242C33",
"{ 	c #242D34",
"] 	c #192025",
"^ 	c #20272D",
"/ 	c #21292F",
"( 	c #212930",
"_ 	c #252D35",
": 	c #090C0E",
"< 	c #1A1F25",
"[ 	c #20282E",
"} 	c #222A31",
"| 	c #303B45",
"1 	c #1C2229",
"2 	c #101419",
"3 	c #262F36",
"4 	c #273138",
"5 	c #101518",
"6 	c #0E1215",
"7 	c #29323A",
"8 	c #3F4952",
"9 	c #3F4B52",
"0 	c #0E1116",
"a 	c #080A0D",
"b 	c #1D242A",
"c 	c #3E484F",
"d 	c #5B676F",
"e 	c #5C676F",
"f 	c #3E4951",
"g 	c #1C242B",
"h 	c #080A0C",
"i 	c #35414B",
"j 	c #3B464C",
"k 	c #59656D",
"l 	c #434D55",
"m 	c #3B464D",
"n 	c #303942",
"o 	c #333E47",
"p 	c #0E1214",
"q 	c #4F5860",
"r 	c #3F4951",
"s 	c #2A343C",
"t 	c #181F24",
"u 	c #0F1215",
"v 	c #343E48",
"w 	c #1E242A",
"x 	c #0F1418",
"y 	c #1E252C",
"z 	c #323A44",
"A 	c #35414C",
"B 	c #0A0D0F",
"C 	c #36424D",
"D 	c #313B44",
"E 	c #37424D",
"F 	c #2B343C",
"G 	c #2C363E",
"H 	c #38434D",
"I 	c #2F3942",
"J 	c #3D4954",
"K 	c #2D363F",
"L 	c #1D252B",
"M 	c #0A0C0E",
"N 	c #2F3842",
"O 	c #3C4854",
"P 	c #414D58",
"Q 	c #272E35",
"R 	c #14171B",
"S 	c #272E36",
"T 	c #414D59",
"U 	c #3D4853",
"V 	c #3F4A56",
"W 	c #46525F",
"X 	c #4A5763",
"Y 	c #46525E",
"Z 	c #3F4A55",
"` 	c #343E47",
" .	c #151618",
". . . . . . . . . . . . . . . . . . . . . . ",
"+ @ @ @ @ @ @ @ @ @ @ @ @ @ @ @ @ @ @ @ @ @ ",
"# $ $ $ $ $ $ $ $ $ $ $ $ $ $ $ $ $ $ $ $ $ ",
"$ $ $ $ $ $ $ $ $ $ $ $ $ $ $ $ $ $ $ $ $ $ ",
"$ $ $ $ $ $ $ $ $ $ $ $ $ $ $ $ $ $ $ $ $ $ ",
"$ $ $ $ $ $ $ $ $ $ $ $ $ $ $ $ $ $ $ $ $ $ ",
"$ $ $ $ $ $ % & * = = * & - $ $ $ $ $ $ $ $ ",
"$ $ $ $ $ ; > , ' ) ) ' , ! ~ $ $ $ $ $ $ $ ",
"$ $ $ $ { > ] ^ / ( ( / ^ ] > _ $ $ $ $ $ $ ",
"$ $ $ - : < [ } ~ { { ~ } [ ] : | $ $ $ $ $ ",
"$ $ $ 1 2 ^ } { 3 4 4 3 { } ^ 5 & $ $ $ $ $ ",
"$ $ $ 6 ' / ~ 3 7 8 9 7 3 ~ / ' 0 $ $ $ $ $ ",
"$ $ $ a b ( { 4 c d e f 4 { ( g h $ $ $ $ $ ",
"$ $ i a b ( { j k l l k m { ( g h i $ $ $ $ ",
"n n o p ' / ~ q r s s r q ~ / t u o n n n n ",
"n n v w x ^ } { 3 4 4 3 { } ^ , y v n n n n ",
"n n z A = < [ } ~ { { ~ } [ ] B C D n n n n ",
"n n n E F > ] ^ / ( ( / ^ ] > G H n n n n n ",
"n n n I J K : , ' L L ' , M K J N n n n n n ",
"n n n n n O P Q R > > R S T U n n n n n n n ",
"n n n n n n v V W X X Y Z ` n n n n n n n n ",
"n n n n n n n n n n n n n n n n n n n n n n ",
"n n n n n n n n n n n n n n n n n n n n n n ",
"n n n n n n n n n n n n n n n n n n n n n n ",
"n n n n n n n n n n n n n n n n n n n n n n ",
"n n n n n n n n n n n n n n n n n n n n n n ",
"n n n n n n n n n n n n n n n n n n n n n n ",
" . . . . . . . . . . . . . . . . . . . . . ."};
