/* XPM */
static char * menu_active_xpm[] = {
"22 28 8 1",
" 	c None",
".	c #111418",
"+	c #3E5061",
"@	c #3F5061",
"#	c #343F4A",
"$	c #34404B",
"%	c #303942",
"&	c #151618",
"......................",
"+++++++++++++++++++++@",
"#####################$",
"######################",
"######################",
"######################",
"######################",
"######################",
"######################",
"######################",
"######################",
"######################",
"######################",
"######################",
"%%%%%%%%%%%%%%%%%%%%%%",
"%%%%%%%%%%%%%%%%%%%%%%",
"%%%%%%%%%%%%%%%%%%%%%%",
"%%%%%%%%%%%%%%%%%%%%%%",
"%%%%%%%%%%%%%%%%%%%%%%",
"%%%%%%%%%%%%%%%%%%%%%%",
"%%%%%%%%%%%%%%%%%%%%%%",
"%%%%%%%%%%%%%%%%%%%%%%",
"%%%%%%%%%%%%%%%%%%%%%%",
"%%%%%%%%%%%%%%%%%%%%%%",
"%%%%%%%%%%%%%%%%%%%%%%",
"%%%%%%%%%%%%%%%%%%%%%%",
"%%%%%%%%%%%%%%%%%%%%%%",
"&&&&&&&&&&&&&&&&&&&&&&"};
