/* XPM */
static char * title_5_active_xpm[] = {
"10 28 8 1",
" 	c None",
".	c #111418",
"+	c #3F5061",
"@	c #3E5061",
"#	c #34404B",
"$	c #343F4A",
"%	c #303942",
"&	c #151618",
"..........",
"+@@@@@@@@@",
"#$$$$$$$$$",
"$$$$$$$$$$",
"$$$$$$$$$$",
"$$$$$$$$$$",
"$$$$$$$$$$",
"$$$$$$$$$$",
"$$$$$$$$$$",
"$$$$$$$$$$",
"$$$$$$$$$$",
"$$$$$$$$$$",
"$$$$$$$$$$",
"$$$$$$$$$$",
"%%%%%%%%%%",
"%%%%%%%%%%",
"%%%%%%%%%%",
"%%%%%%%%%%",
"%%%%%%%%%%",
"%%%%%%%%%%",
"%%%%%%%%%%",
"%%%%%%%%%%",
"%%%%%%%%%%",
"%%%%%%%%%%",
"%%%%%%%%%%",
"%%%%%%%%%%",
"%%%%%%%%%%",
"&&&&&&&&&&"};
