/* XPM */
static char * top_left_active_xpm[] = {
"19 28 20 1",
" 	c None",
".	c #15181A",
"+	c #111418",
"@	c #232B24",
"#	c #151A1E",
"$	c #2B3540",
"%	c #3B4C5C",
"&	c #3F5061",
"*	c #3E5061",
"=	c #161B1F",
"-	c #3A4B59",
";	c #3B4A59",
">	c #36424E",
",	c #34404B",
"'	c #343F4A",
")	c #283039",
"!	c #394855",
"~	c #323C46",
"{	c #303942",
"]	c #151618",
"   .+++++++++++++++",
" @#$%&*************",
" =-;>,'''''''''''''",
" )!''''''''''''''''",
"+~'''''''''''''''''",
"+''''''''''''''''''",
"+''''''''''''''''''",
"+''''''''''''''''''",
"+''''''''''''''''''",
"+''''''''''''''''''",
"+''''''''''''''''''",
"+''''''''''''''''''",
"+''''''''''''''''''",
"+''''''''''''''''''",
"+{{{{{{{{{{{{{{{{{{",
"+{{{{{{{{{{{{{{{{{{",
"+{{{{{{{{{{{{{{{{{{",
"+{{{{{{{{{{{{{{{{{{",
"+{{{{{{{{{{{{{{{{{{",
"+{{{{{{{{{{{{{{{{{{",
"+{{{{{{{{{{{{{{{{{{",
"+{{{{{{{{{{{{{{{{{{",
"+{{{{{{{{{{{{{{{{{{",
"+{{{{{{{{{{{{{{{{{{",
"+{{{{{{{{{{{{{{{{{{",
"+{{{{{{{{{{{{{{{{{{",
"+{{{{{{{{{{{{{{{{{{",
"+]]]]]]]]]]]]]]]]]]"};
