/* XPM */
static char * top_right_active_shaded_xpm[] = {
"19 28 20 1",
" 	c None",
".	c #111418",
"+	c #15181A",
"@	c #3E5061",
"#	c #3F5061",
"$	c #3B4C5C",
"%	c #2B3540",
"&	c #151A1E",
"*	c #232B24",
"=	c #343F4A",
"-	c #34404B",
";	c #36424E",
">	c #3B4A59",
",	c #3A4B59",
"'	c #161B1F",
")	c #394855",
"!	c #283039",
"~	c #323C46",
"{	c #303942",
"]	c #151618",
"...............+   ",
"@@@@@@@@@@@@@#$%&* ",
"=============-;>,' ",
"================)! ",
"=================~.",
"==================.",
"==================.",
"==================.",
"==================.",
"==================.",
"==================.",
"==================.",
"==================.",
"==================.",
"{{{{{{{{{{{{{{{{{{.",
"{{{{{{{{{{{{{{{{{{.",
"{{{{{{{{{{{{{{{{{{.",
"{{{{{{{{{{{{{{{{{{.",
"{{{{{{{{{{{{{{{{{{.",
"{{{{{{{{{{{{{{{{{{.",
"{{{{{{{{{{{{{{{{{{.",
"{{{{{{{{{{{{{{{{{{.",
"{{{{{{{{{{{{{{{{{{.",
"{{{{{{{{{{{{{{{{{{.",
"{{{{{{{{{{{{{{{{{{.",
"{{{{{{{{{{{{{{{{{{.",
"{{{{{{{{{{{{{{{{{{.",
"]]]]]]]]]]]]]]]]]]."};
