/* XPM */
static char * close_prelight_xpm[] = {
"16 16 14 1",
" 	c None",
".	c #2D2D2D",
"+	c #BC3131",
"@	c #962727",
"#	c #4A1313",
"$	c #942727",
"%	c #B53030",
"&	c #561717",
"*	c #B73030",
"=	c #B42F2F",
"-	c #5D1818",
";	c #551616",
">	c #912626",
",	c #471212",
"................",
"................",
"................",
"................",
"....+@#..#@+....",
"....$+%&&%+@....",
"....#*+==+%#....",
".....-*++=&.....",
".....-*++=&.....",
"....#*+==+%#....",
"....$+=;;=+@....",
"....+>,..,>+....",
"................",
"................",
"................",
"................"};
