/* XPM */
static char * close_pressed_xpm[] = {
"16 16 11 1",
" 	c None",
".	c #2D2D2D",
"+	c #A22B2B",
"@	c #802121",
"#	c #471212",
"$	c #842323",
"%	c #9A2929",
"&	c #521515",
"*	c #9C2929",
"=	c #551616",
"-	c #501515",
"................",
"................",
"................",
"................",
"....+@#..#@+....",
"....$+%&&%+@....",
"....#*+**+%#....",
".....=*++*&.....",
".....=*++*&.....",
"....#*+**+%#....",
"....$+*--*+@....",
"....+@#..#@+....",
"................",
"................",
"................",
"................"};
