/* XPM */
static char * bottom_left_inactive_xpm[] = {
"20 20 2 1",
" 	c None",
".	c #999999",
".                   ",
".                   ",
".                   ",
".                   ",
".                   ",
".                   ",
".                   ",
".                   ",
".                   ",
".                   ",
".                   ",
".                   ",
".                   ",
".                   ",
".                   ",
".                   ",
".                   ",
".                   ",
".                   ",
"...................."};
