/* XPM */
static char * bottom_right_active_xpm[] = {
"20 20 2 1",
" 	c None",
".	c #868687",
"                   .",
"                   .",
"                   .",
"                   .",
"                   .",
"                   .",
"                   .",
"                   .",
"                   .",
"                   .",
"                   .",
"                   .",
"                   .",
"                   .",
"                   .",
"                   .",
"                   .",
"                   .",
"                   .",
"...................."};
