/* XPM */
static char * close_prelight_xpm[] = {
"22 22 106 2",
"  	c None",
". 	c #868786",
"+ 	c #868787",
"@ 	c #868686",
"# 	c #868687",
"$ 	c #878787",
"% 	c #878686",
"& 	c #878687",
"* 	c #E6E6E6",
"= 	c #E6E7E6",
"- 	c #E6E6E7",
"; 	c #E0DFDF",
"> 	c #DFDFDF",
", 	c #E0DFE0",
"' 	c #E0E0E0",
") 	c #DFE0DF",
"! 	c #E0E0DF",
"~ 	c #DFE0E0",
"{ 	c #DEDFDE",
"] 	c #DFDFDE",
"^ 	c #DEDFDF",
"/ 	c #DFDEDE",
"( 	c #DEDEDE",
"_ 	c #DEDEDF",
": 	c #DEDEDD",
"< 	c #DDDDDE",
"[ 	c #DDDEDD",
"} 	c #DDDDDD",
"| 	c #DEDDDE",
"1 	c #DEDDDD",
"2 	c #DDDCDD",
"3 	c #DAC4C4",
"4 	c #D14545",
"5 	c #DACACA",
"6 	c #DBCACA",
"7 	c #DCDDDD",
"8 	c #DCDCDC",
"9 	c #CC0000",
"0 	c #CF2627",
"a 	c #DAC9CA",
"b 	c #DCDCDD",
"c 	c #DDDDDC",
"d 	c #DBCAC9",
"e 	c #CE2726",
"f 	c #DDDCDC",
"g 	c #DBDCDC",
"h 	c #DCDBDC",
"i 	c #DAC8C9",
"j 	c #CE2626",
"k 	c #DAC9C9",
"l 	c #DAC9C8",
"m 	c #DBDBDB",
"n 	c #D9C8C8",
"o 	c #DBDCDB",
"p 	c #DADADA",
"q 	c #DADADB",
"r 	c #DADBDA",
"s 	c #DADBDB",
"t 	c #D8C8C8",
"u 	c #D9DADA",
"v 	c #DAD9D9",
"w 	c #D9D9DA",
"x 	c #D9D9D9",
"y 	c #D9C7C7",
"z 	c #D8C7C7",
"A 	c #D9DAD9",
"B 	c #D8D9D8",
"C 	c #D8D9D9",
"D 	c #D9D8D8",
"E 	c #D8C6C6",
"F 	c #D7C7C7",
"G 	c #D8C7C6",
"H 	c #D9D9D8",
"I 	c #D8D8D9",
"J 	c #D8D8D8",
"K 	c #CF4343",
"L 	c #D7C6C6",
"M 	c #D8D8D7",
"N 	c #D7D7D7",
"O 	c #D7D7D8",
"P 	c #D5BFC0",
"Q 	c #D6C5C5",
"R 	c #D8D7D7",
"S 	c #D6BFBF",
"T 	c #D7D7D6",
"U 	c #D6D6D6",
"V 	c #D7D6D6",
"W 	c #D6D6D7",
"X 	c #D5D5D6",
"Y 	c #D6D5D5",
"Z 	c #D6D5D6",
"` 	c #D5D5D5",
" .	c #D5D6D5",
"..	c #D4D5D5",
"+.	c #D4D4D5",
"@.	c #D5D5D4",
"#.	c #D5D4D5",
"$.	c #D5D4D4",
"%.	c #D4D4D4",
"&.	c #D3D3D4",
"*.	c #D3D4D3",
"=.	c #D3D4D4",
"-.	c #D3D3D3",
";.	c #D4D4D3",
">.	c #D4D3D4",
",.	c #D4D3D3",
". . + + @ @ @ # # # # + + + + $ $ $ % % & & ",
"* * * * * * * * * = = * * * * * * * - - * * ",
"; ; > > ; ; ; , , ' ' ) ) ! ! ~ ~ ~ ; ; ; ; ",
"{ { > > ] ] ] > > > > > > > > ^ ^ ^ > > > > ",
"{ { / / ( ( ( ( ( _ _ ( ( { { ( ( ( ( ( _ _ ",
": : ( ( < < < [ [ : : } } | | : : : 1 1 : : ",
"} } 2 2 } } 3 4 5 } } } } 6 4 3 } } } } 7 7 ",
"8 8 8 8 8 8 4 9 0 a b c d e 9 4 f f f f f f ",
"g g 8 8 h h i j 9 j k l j 9 j k 8 8 8 8 8 8 ",
"m m m m m m m n j 9 j j 9 j n o o o m m m m ",
"p p q q m m m r n j 9 9 j n s q q q m m s s ",
"p p p p p p p p n j 9 9 j t u p p p p p v v ",
"w w x x x x x y j 9 j j 9 j z A A A x x x x ",
"B B C C D D E j 9 j F F j 9 j G H H I I C C ",
"J J J J J J K 9 j L J J L j 9 K J J J J J J ",
"M M N N O O P K Q O O R R Q K S R R N N N N ",
"N N T T U U U N N V V T T V V N N N T T U U ",
"U U U U U U U U U U U U U U U U U U U U W W ",
"X X Y Y Z Z Z ` ` U U  . . . .Z Z Z U U X X ",
"` ` ` ` ..........` ` +.+.@.@.` ` ` #.#.....",
"$.$.%.%.%.%.%.$.$.%.%.%.%.%.%.%.%.%.%.%.%.%.",
"&.&.*.*.=.=.=.-.-.&.&.-.-.;.;.>.>.>.%.%.,.,."};
