/* XPM */
static char * close_inactive_xpm[] = {
"22 22 8 1",
" 	c None",
".	c #999999",
"+	c #D3D3D3",
"@	c #CCCCCC",
"#	c #A7A7A7",
"$	c #CECECE",
"%	c #939393",
"&	c #9E9E9E",
"......................",
"++++++++++++++++++++++",
"++++++++++++++++++++++",
"++++++++++++++++++++++",
"++++++++++++++++++++++",
"++++++++++++++++++++++",
"++++++@#$++++$#@++++++",
"++++++#%&$++$&%#++++++",
"++++++$&%&$$&%&$++++++",
"+++++++$&%&&%&$+++++++",
"++++++++$&%%&$++++++++",
"++++++++$&%%&$++++++++",
"+++++++$&%&&%&$+++++++",
"++++++$&%&$$&%&$++++++",
"++++++#%&$++$&%#++++++",
"++++++@#$++++$#@++++++",
"++++++++++++++++++++++",
"++++++++++++++++++++++",
"++++++++++++++++++++++",
"++++++++++++++++++++++",
"++++++++++++++++++++++",
"++++++++++++++++++++++"};
