/* XPM */
static char * close_active_xpm[] = {
"22 22 121 2",
"  	c None",
". 	c #868786",
"+ 	c #868787",
"@ 	c #868686",
"# 	c #868687",
"$ 	c #878787",
"% 	c #878686",
"& 	c #878687",
"* 	c #E6E6E6",
"= 	c #E6E7E6",
"- 	c #E6E6E7",
"; 	c #E0DFDF",
"> 	c #DFDFDF",
", 	c #E0DFE0",
"' 	c #E0E0E0",
") 	c #DFE0DF",
"! 	c #E0E0DF",
"~ 	c #DFE0E0",
"{ 	c #DEDFDE",
"] 	c #DFDFDE",
"^ 	c #DEDFDF",
"/ 	c #DFDEDE",
"( 	c #DEDEDE",
"_ 	c #DEDEDF",
": 	c #DEDEDD",
"< 	c #DDDDDE",
"[ 	c #DDDEDD",
"} 	c #DDDDDD",
"| 	c #DEDDDE",
"1 	c #DEDDDD",
"2 	c #DDDCDD",
"3 	c #CECECE",
"4 	c #818282",
"5 	c #D0D1D1",
"6 	c #D1D1D1",
"7 	c #828282",
"8 	c #DCDDDD",
"9 	c #DCDCDC",
"0 	c #818181",
"a 	c #585858",
"b 	c #6F6F6F",
"c 	c #D0D0D1",
"d 	c #DCDCDD",
"e 	c #DDDDDC",
"f 	c #D1D1D0",
"g 	c #828181",
"h 	c #DDDCDC",
"i 	c #DBDCDC",
"j 	c #DCDBDC",
"k 	c #D0CFD0",
"l 	c #6E6F6F",
"m 	c #575858",
"n 	c #D0D0D0",
"o 	c #D0D0CF",
"p 	c #6F6F6E",
"q 	c #DBDBDB",
"r 	c #CFCFCF",
"s 	c #6E6E6E",
"t 	c #575757",
"u 	c #DBDCDB",
"v 	c #DADADA",
"w 	c #DADADB",
"x 	c #DADBDA",
"y 	c #CECFCE",
"z 	c #CECFCF",
"A 	c #DADBDB",
"B 	c #565757",
"C 	c #6D6E6E",
"D 	c #CDCECE",
"E 	c #D9DADA",
"F 	c #DAD9D9",
"G 	c #D9D9DA",
"H 	c #D9D9D9",
"I 	c #CECDCD",
"J 	c #6E6D6D",
"K 	c #565657",
"L 	c #6D6D6E",
"M 	c #6D6D6D",
"N 	c #565656",
"O 	c #CDCDCD",
"P 	c #D9DAD9",
"Q 	c #D8D9D8",
"R 	c #D8D9D9",
"S 	c #D9D8D8",
"T 	c #CDCCCC",
"U 	c #CCCDCD",
"V 	c #CDCDCC",
"W 	c #D9D9D8",
"X 	c #D8D8D9",
"Y 	c #D8D8D8",
"Z 	c #7F7F7F",
"` 	c #CCCCCC",
" .	c #D8D8D7",
"..	c #D7D7D7",
"+.	c #D7D7D8",
"@.	c #C8C8C9",
"#.	c #7E7E7E",
"$.	c #D8D7D7",
"%.	c #C9C8C8",
"&.	c #D7D7D6",
"*.	c #D6D6D6",
"=.	c #D7D6D6",
"-.	c #D6D6D7",
";.	c #D5D5D6",
">.	c #D6D5D5",
",.	c #D6D5D6",
"'.	c #D5D5D5",
").	c #D5D6D5",
"!.	c #D4D5D5",
"~.	c #D4D4D5",
"{.	c #D5D5D4",
"].	c #D5D4D5",
"^.	c #D5D4D4",
"/.	c #D4D4D4",
"(.	c #D3D3D4",
"_.	c #D3D4D3",
":.	c #D3D4D4",
"<.	c #D3D3D3",
"[.	c #D4D4D3",
"}.	c #D4D3D4",
"|.	c #D4D3D3",
". . + + @ @ @ # # # # + + + + $ $ $ % % & & ",
"* * * * * * * * * = = * * * * * * * - - * * ",
"; ; > > ; ; ; , , ' ' ) ) ! ! ~ ~ ~ ; ; ; ; ",
"{ { > > ] ] ] > > > > > > > > ^ ^ ^ > > > > ",
"{ { / / ( ( ( ( ( _ _ ( ( { { ( ( ( ( ( _ _ ",
": : ( ( < < < [ [ : : } } | | : : : 1 1 : : ",
"} } 2 2 } } 3 4 5 } } } } 6 7 3 } } } } 8 8 ",
"9 9 9 9 9 9 0 a b c d e f b a g h h h h h h ",
"i i 9 9 j j k l m b n o p a b n 9 9 9 9 9 9 ",
"q q q q q q q r s t s s t s r u u u q q q q ",
"v v w w q q q x y s t t s z A w w w q q A A ",
"v v v v v v v v 3 s t B C D E v v v v v F F ",
"G G H H H H H I J K L M N M O P P P H H H H ",
"Q Q R R S S T M N M U U M N M V W W X X R R ",
"Y Y Y Y Y Y Z N M ` Y Y ` M N Z Y Y Y Y Y Y ",
" . .....+.+.@.#.` +.+.$.$.` #.%.$.$.........",
"....&.&.*.*.*.....=.=.&.&.=.=.......&.&.*.*.",
"*.*.*.*.*.*.*.*.*.*.*.*.*.*.*.*.*.*.*.*.-.-.",
";.;.>.>.,.,.,.'.'.*.*.).).).).,.,.,.*.*.;.;.",
"'.'.'.'.!.!.!.!.!.'.'.~.~.{.{.'.'.'.].].!.!.",
"^.^./././././.^.^./././././././././././././.",
"(.(._._.:.:.:.<.<.(.(.<.<.[.[.}.}.}././.|.|."};
