/* XPM */
static char * close_pressed_xpm[] = {
"22 22 107 2",
"  	c None",
". 	c #868786",
"+ 	c #868787",
"@ 	c #868686",
"# 	c #868687",
"$ 	c #878787",
"% 	c #878686",
"& 	c #878687",
"* 	c #E6E6E6",
"= 	c #E6E7E6",
"- 	c #E6E6E7",
"; 	c #E0DFDF",
"> 	c #DFDFDF",
", 	c #E0DFE0",
"' 	c #E0E0E0",
") 	c #DFE0DF",
"! 	c #E0E0DF",
"~ 	c #DFE0E0",
"{ 	c #DEDFDE",
"] 	c #DFDFDE",
"^ 	c #DEDFDF",
"/ 	c #DFDEDE",
"( 	c #DEDEDE",
"_ 	c #DEDEDF",
": 	c #DEDEDD",
"< 	c #DDDDDE",
"[ 	c #DDDEDD",
"} 	c #DDDDDD",
"| 	c #DEDDDE",
"1 	c #DEDDDD",
"2 	c #DDDCDD",
"3 	c #DCDDDD",
"4 	c #DCDCDC",
"5 	c #D9C3C3",
"6 	c #D14545",
"7 	c #DBC9CA",
"8 	c #DCDCDD",
"9 	c #DDDDDC",
"0 	c #DACAC9",
"a 	c #DAC3C3",
"b 	c #DDDCDC",
"c 	c #DBDCDC",
"d 	c #DCDBDC",
"e 	c #D14445",
"f 	c #CC0000",
"g 	c #CE2626",
"h 	c #DAC9C9",
"i 	c #DCDCDB",
"j 	c #DAC9C8",
"k 	c #DBDBDB",
"l 	c #D9C8C8",
"m 	c #D9C9C8",
"n 	c #DBDCDB",
"o 	c #DADADA",
"p 	c #DADADB",
"q 	c #DADBDB",
"r 	c #D8C8C8",
"s 	c #D9DADA",
"t 	c #DAD9D9",
"u 	c #D9D9DA",
"v 	c #D9D9D9",
"w 	c #D9C7C7",
"x 	c #D8C7C7",
"y 	c #D9DAD9",
"z 	c #D8D9D8",
"A 	c #D8D9D9",
"B 	c #D9D8D8",
"C 	c #D7C7C6",
"D 	c #D7C7C7",
"E 	c #D9D9D8",
"F 	c #D8D8D9",
"G 	c #D8D8D8",
"H 	c #D7C6C6",
"I 	c #D8D8D7",
"J 	c #D7D7D7",
"K 	c #D7D7D8",
"L 	c #CF4343",
"M 	c #CD2525",
"N 	c #D6C5C6",
"O 	c #D8D7D7",
"P 	c #D7C5C5",
"Q 	c #D7D7D6",
"R 	c #D6D6D6",
"S 	c #D4BEBE",
"T 	c #D6C5C5",
"U 	c #D7D6D6",
"V 	c #D6C4C4",
"W 	c #D5BFBF",
"X 	c #D6D6D7",
"Y 	c #D5D5D6",
"Z 	c #D6D5D5",
"` 	c #D6D5D6",
" .	c #D5D5D5",
"..	c #D5D6D5",
"+.	c #D4D5D5",
"@.	c #D4D4D5",
"#.	c #D5D5D4",
"$.	c #D5D4D5",
"%.	c #D5D4D4",
"&.	c #D4D4D4",
"*.	c #D3D3D4",
"=.	c #D3D4D3",
"-.	c #D3D4D4",
";.	c #D3D3D3",
">.	c #D4D4D3",
",.	c #D4D3D4",
"'.	c #D4D3D3",
". . + + @ @ @ # # # # + + + + $ $ $ % % & & ",
"* * * * * * * * * = = * * * * * * * - - * * ",
"; ; > > ; ; ; , , ' ' ) ) ! ! ~ ~ ~ ; ; ; ; ",
"{ { > > ] ] ] > > > > > > > > ^ ^ ^ > > > > ",
"{ { / / ( ( ( ( ( _ _ ( ( { { ( ( ( ( ( _ _ ",
": : ( ( < < < [ [ : : } } | | : : : 1 1 : : ",
"} } 2 2 } } } 3 3 } } } } } } } } } } } 3 3 ",
"4 4 4 4 4 4 5 6 7 8 8 9 9 0 6 a b b b b b b ",
"c c 4 4 d d e f g h 4 i j g f 6 4 4 4 4 4 4 ",
"k k k k k k l g f g l l g f g m n n k k k k ",
"o o p p k k k l g f g g f g l p p p k k q q ",
"o o o o o o o o l g f f g r s o o o o o t t ",
"u u v v v v v t w g f f g x v y y y v v v v ",
"z z A A B B B C g f g g f g D E E E F F A A ",
"G G G G G G H g f g H H g f g H G G G G G G ",
"I I J J K K L f M N K O P M f L O O J J J J ",
"J J Q Q R R S L T U U Q Q V L W J J Q Q R R ",
"R R R R R R R R R R R R R R R R R R R R X X ",
"Y Y Z Z ` ` `  . .R R ........` ` ` R R Y Y ",
" . . . .+.+.+.+.+. . .@.@.#.#. . . .$.$.+.+.",
"%.%.&.&.&.&.&.%.%.&.&.&.&.&.&.&.&.&.&.&.&.&.",
"*.*.=.=.-.-.-.;.;.*.*.;.;.>.>.,.,.,.&.&.'.'."};
