/* XPM */
static char * hide_pressed_xpm[] = {
"22 22 85 1",
" 	c None",
".	c #868786",
"+	c #868787",
"@	c #868686",
"#	c #868687",
"$	c #878787",
"%	c #878686",
"&	c #878687",
"*	c #E6E6E6",
"=	c #E6E7E6",
"-	c #E6E6E7",
";	c #E0DFDF",
">	c #DFDFDF",
",	c #E0DFE0",
"'	c #E0E0E0",
")	c #DFE0DF",
"!	c #E0E0DF",
"~	c #DFE0E0",
"{	c #DEDFDE",
"]	c #DFDFDE",
"^	c #DEDFDF",
"/	c #DFDEDE",
"(	c #DEDEDE",
"_	c #DEDEDF",
":	c #DEDEDD",
"<	c #DDDDDE",
"[	c #DDDEDD",
"}	c #DDDDDD",
"|	c #DEDDDE",
"1	c #DEDDDD",
"2	c #DDDCDD",
"3	c #DCDDDD",
"4	c #DCDCDC",
"5	c #DCDCDD",
"6	c #DDDDDC",
"7	c #DCDDDC",
"8	c #DDDCDC",
"9	c #DBDCDC",
"0	c #DCDBDC",
"a	c #DCDCDB",
"b	c #DBDBDB",
"c	c #DBDCDB",
"d	c #DADADA",
"e	c #DADADB",
"f	c #DADBDA",
"g	c #DBDBDA",
"h	c #DADBDB",
"i	c #D9DADA",
"j	c #DAD9D9",
"k	c #D9D9DA",
"l	c #D9D9D9",
"m	c #D9DAD9",
"n	c #D8D9D8",
"o	c #D8D9D9",
"p	c #D9D8D8",
"q	c #D9D9D8",
"r	c #D8D8D9",
"s	c #D8D8D8",
"t	c #000000",
"u	c #D8D8D7",
"v	c #D7D7D7",
"w	c #D7D7D8",
"x	c #D8D7D7",
"y	c #D7D7D6",
"z	c #D6D6D6",
"A	c #D7D6D6",
"B	c #D6D6D7",
"C	c #D5D5D6",
"D	c #D6D5D5",
"E	c #D6D5D6",
"F	c #D5D5D5",
"G	c #D5D6D5",
"H	c #D4D5D5",
"I	c #D4D4D5",
"J	c #D5D5D4",
"K	c #D5D4D5",
"L	c #D5D4D4",
"M	c #D4D4D4",
"N	c #D3D3D4",
"O	c #D3D4D3",
"P	c #D3D4D4",
"Q	c #D3D3D3",
"R	c #D4D4D3",
"S	c #D4D3D4",
"T	c #D4D3D3",
"..++@@@####++++$$$%%&&",
"*********==*******--**",
";;>>;;;,,''))!!~~~;;;;",
"{{>>]]]>>>>>>>>^^^>>>>",
"{{//(((((__(({{(((((__",
"::((<<<[[::}}||:::11::",
"}}22}}}33}}}}}}}}}}}33",
"4444444225566778888888",
"99440009944aa444444444",
"bbbbbbbbbbbbbbbcccbbbb",
"ddeebbbffgggghheeebbhh",
"dddddddddddiiiidddddjj",
"kkllllljjkkllllmmmllll",
"nnoopppnnooooooqqqrroo",
"ssssssttttttttttssssss",
"uuvvwwttttttttttxxvvvv",
"vvyyzzzvvAAyyAAvvvyyzz",
"zzzzzzzzzzzzzzzzzzzzBB",
"CCDDEEEFFzzGGGGEEEzzCC",
"FFFFHHHHHFFIIJJFFFKKHH",
"LLMMMMMLLMMMMMMMMMMMMM",
"NNOOPPPQQNNQQRRSSSMMTT"};
