/* XPM */
static char * maximize_active_xpm[] = {
"22 22 97 2",
"  	c None",
". 	c #868786",
"+ 	c #868787",
"@ 	c #868686",
"# 	c #868687",
"$ 	c #878787",
"% 	c #878686",
"& 	c #878687",
"* 	c #E6E6E6",
"= 	c #E6E7E6",
"- 	c #E6E6E7",
"; 	c #E0DFDF",
"> 	c #DFDFDF",
", 	c #E0DFE0",
"' 	c #E0E0E0",
") 	c #DFE0DF",
"! 	c #E0E0DF",
"~ 	c #DFE0E0",
"{ 	c #DEDFDE",
"] 	c #DFDFDE",
"^ 	c #DEDFDF",
"/ 	c #DFDEDE",
"( 	c #DEDEDE",
"_ 	c #DEDEDF",
": 	c #DEDEDD",
"< 	c #DDDDDE",
"[ 	c #DDDEDD",
"} 	c #DDDDDD",
"| 	c #DEDDDE",
"1 	c #DEDDDD",
"2 	c #DDDCDD",
"3 	c #DCDDDD",
"4 	c #585858",
"5 	c #DCDCDC",
"6 	c #DCDCDD",
"7 	c #DDDCDC",
"8 	c #DBDCDC",
"9 	c #DCDBDC",
"0 	c #D2D2D1",
"a 	c #717170",
"b 	c #DBDBDB",
"c 	c #CFCFCF",
"d 	c #6E6E6E",
"e 	c #575757",
"f 	c #707070",
"g 	c #575857",
"h 	c #DBDCDB",
"i 	c #DADADA",
"j 	c #DADADB",
"k 	c #DADBDA",
"l 	c #DBDBDA",
"m 	c #797978",
"n 	c #6F6F6F",
"o 	c #D0D1D1",
"p 	c #DADBDB",
"q 	c #C4C4C4",
"r 	c #787979",
"s 	c #CECFCF",
"t 	c #D9DADA",
"u 	c #565757",
"v 	c #DAD9D9",
"w 	c #D9D9DA",
"x 	c #D9D9D9",
"y 	c #D9DAD9",
"z 	c #D8D9D8",
"A 	c #D8D9D9",
"B 	c #D9D8D8",
"C 	c #565656",
"D 	c #D9D9D8",
"E 	c #D8D8D9",
"F 	c #D8D8D8",
"G 	c #D8D8D7",
"H 	c #D7D7D7",
"I 	c #D7D7D8",
"J 	c #D8D7D7",
"K 	c #D7D7D6",
"L 	c #D6D6D6",
"M 	c #D7D6D6",
"N 	c #D6D6D7",
"O 	c #D5D5D6",
"P 	c #D6D5D5",
"Q 	c #D6D5D6",
"R 	c #D5D5D5",
"S 	c #D5D6D5",
"T 	c #D4D5D5",
"U 	c #D4D4D5",
"V 	c #D5D5D4",
"W 	c #D5D4D5",
"X 	c #D5D4D4",
"Y 	c #D4D4D4",
"Z 	c #D3D3D4",
"` 	c #D3D4D3",
" .	c #D3D4D4",
"..	c #D3D3D3",
"+.	c #D4D4D3",
"@.	c #D4D3D4",
"#.	c #D4D3D3",
". . + + @ @ @ # # # # + + + + $ $ $ % % & & ",
"* * * * * * * * * = = * * * * * * * - - * * ",
"; ; > > ; ; ; , , ' ' ) ) ! ! ~ ~ ~ ; ; ; ; ",
"{ { > > ] ] ] > > > > > > > > ^ ^ ^ > > > > ",
"{ { / / ( ( ( ( ( _ _ ( ( { { ( ( ( ( ( _ _ ",
": : ( ( < < < [ [ : : } } | | : : : 1 1 : : ",
"} } 2 2 } } } 3 3 } 4 4 4 4 4 4 } } } } 3 3 ",
"5 5 5 5 5 5 5 2 2 6 4 4 4 4 4 4 7 7 7 7 7 7 ",
"8 8 5 5 9 9 9 8 8 5 5 0 a 4 4 4 5 5 5 5 5 5 ",
"b b b b b b b b b b c d e f e g h h b b b b ",
"i i j j b b b k k l m e n o e e j j b b p p ",
"i i i i i i i i i i q r s t u e i i i i v v ",
"w w x x x x x v v w w x x x x y y y x x x x ",
"z z A A B B C C C A A A A A A D D D E E A A ",
"F F F F F F C C C F F F F F F F F F F F F F ",
"G G H H I I C C C I I J J H H J J J H H H H ",
"H H K K L L L H H M M K K M M H H H K K L L ",
"L L L L L L L L L L L L L L L L L L L L N N ",
"O O P P Q Q Q R R L L S S S S Q Q Q L L O O ",
"R R R R T T T T T R R U U V V R R R W W T T ",
"X X Y Y Y Y Y X X Y Y Y Y Y Y Y Y Y Y Y Y Y ",
"Z Z ` `  . . .....Z Z ....+.+.@.@.@.Y Y #.#."};
