/* XPM */
static char * maximize_inactive_xpm[] = {
"22 22 10 1",
" 	c None",
".	c #999999",
"+	c #D3D3D3",
"@	c #939393",
"#	c #CECECE",
"$	c #9E9E9E",
"%	c #CDCDCD",
"&	c #9F9F9F",
"*	c #A3A3A3",
"=	c #C8C8C8",
"......................",
"++++++++++++++++++++++",
"++++++++++++++++++++++",
"++++++++++++++++++++++",
"++++++++++++++++++++++",
"++++++++++++++++++++++",
"++++++++++@@@@@@++++++",
"++++++++++@@@@@@++++++",
"+++++++++++#$@@@++++++",
"++++++++++%$@&@@++++++",
"++++++++++*@$#@@++++++",
"++++++++++=*#+@@++++++",
"++++++++++++++++++++++",
"++++++@@@+++++++++++++",
"++++++@@@+++++++++++++",
"++++++@@@+++++++++++++",
"++++++++++++++++++++++",
"++++++++++++++++++++++",
"++++++++++++++++++++++",
"++++++++++++++++++++++",
"++++++++++++++++++++++",
"++++++++++++++++++++++"};
