/* XPM */
static char * maximize_prelight_xpm[] = {
"22 22 93 2",
"  	c None",
". 	c #868786",
"+ 	c #868787",
"@ 	c #868686",
"# 	c #868687",
"$ 	c #878787",
"% 	c #878686",
"& 	c #878687",
"* 	c #E6E6E6",
"= 	c #E6E7E6",
"- 	c #E6E6E7",
"; 	c #E0DFDF",
"> 	c #DFDFDF",
", 	c #E0DFE0",
"' 	c #E0E0E0",
") 	c #DFE0DF",
"! 	c #E0E0DF",
"~ 	c #DFE0E0",
"{ 	c #DEDFDE",
"] 	c #DFDFDE",
"^ 	c #DEDFDF",
"/ 	c #DFDEDE",
"( 	c #DEDEDE",
"_ 	c #DEDEDF",
": 	c #DEDEDD",
"< 	c #DDDDDE",
"[ 	c #DDDEDD",
"} 	c #DDDDDD",
"| 	c #DEDDDE",
"1 	c #DEDDDD",
"2 	c #DDDCDD",
"3 	c #DCDDDD",
"4 	c #000000",
"5 	c #DCDCDC",
"6 	c #DCDCDD",
"7 	c #DDDCDC",
"8 	c #DBDCDC",
"9 	c #DCDBDC",
"0 	c #CBCBCA",
"a 	c #292929",
"b 	c #DBDBDB",
"c 	c #C8C8C8",
"d 	c #262626",
"e 	c #2A2A2A",
"f 	c #DBDCDB",
"g 	c #DADADA",
"h 	c #DADADB",
"i 	c #DADBDA",
"j 	c #DBDBDA",
"k 	c #373737",
"l 	c #282828",
"m 	c #CACBCB",
"n 	c #DADBDB",
"o 	c #B6B6B6",
"p 	c #393939",
"q 	c #C7C8C8",
"r 	c #D9DADA",
"s 	c #DAD9D9",
"t 	c #D9D9DA",
"u 	c #D9D9D9",
"v 	c #D9DAD9",
"w 	c #D8D9D8",
"x 	c #D8D9D9",
"y 	c #D9D8D8",
"z 	c #D9D9D8",
"A 	c #D8D8D9",
"B 	c #D8D8D8",
"C 	c #D8D8D7",
"D 	c #D7D7D7",
"E 	c #D7D7D8",
"F 	c #D8D7D7",
"G 	c #D7D7D6",
"H 	c #D6D6D6",
"I 	c #D7D6D6",
"J 	c #D6D6D7",
"K 	c #D5D5D6",
"L 	c #D6D5D5",
"M 	c #D6D5D6",
"N 	c #D5D5D5",
"O 	c #D5D6D5",
"P 	c #D4D5D5",
"Q 	c #D4D4D5",
"R 	c #D5D5D4",
"S 	c #D5D4D5",
"T 	c #D5D4D4",
"U 	c #D4D4D4",
"V 	c #D3D3D4",
"W 	c #D3D4D3",
"X 	c #D3D4D4",
"Y 	c #D3D3D3",
"Z 	c #D4D4D3",
"` 	c #D4D3D4",
" .	c #D4D3D3",
". . + + @ @ @ # # # # + + + + $ $ $ % % & & ",
"* * * * * * * * * = = * * * * * * * - - * * ",
"; ; > > ; ; ; , , ' ' ) ) ! ! ~ ~ ~ ; ; ; ; ",
"{ { > > ] ] ] > > > > > > > > ^ ^ ^ > > > > ",
"{ { / / ( ( ( ( ( _ _ ( ( { { ( ( ( ( ( _ _ ",
": : ( ( < < < [ [ : : } } | | : : : 1 1 : : ",
"} } 2 2 } } } 3 3 } 4 4 4 4 4 4 } } } } 3 3 ",
"5 5 5 5 5 5 5 2 2 6 4 4 4 4 4 4 7 7 7 7 7 7 ",
"8 8 5 5 9 9 9 8 8 5 5 0 a 4 4 4 5 5 5 5 5 5 ",
"b b b b b b b b b b c d 4 e 4 4 f f b b b b ",
"g g h h b b b i i j k 4 l m 4 4 h h b b n n ",
"g g g g g g g g g g o p q r 4 4 g g g g s s ",
"t t u u u u u s s t t u u u u v v v u u u u ",
"w w x x y y 4 4 4 x x x x x x z z z A A x x ",
"B B B B B B 4 4 4 B B B B B B B B B B B B B ",
"C C D D E E 4 4 4 E E F F D D F F F D D D D ",
"D D G G H H H D D I I G G I I D D D G G H H ",
"H H H H H H H H H H H H H H H H H H H H J J ",
"K K L L M M M N N H H O O O O M M M H H K K ",
"N N N N P P P P P N N Q Q R R N N N S S P P ",
"T T U U U U U T T U U U U U U U U U U U U U ",
"V V W W X X X Y Y V V Y Y Z Z ` ` ` U U  . ."};
