/* XPM */
static char * maximize_pressed_xpm[] = {
"22 22 92 1",
" 	c None",
".	c #868786",
"+	c #868787",
"@	c #868686",
"#	c #868687",
"$	c #878787",
"%	c #878686",
"&	c #878687",
"*	c #E6E6E6",
"=	c #E6E7E6",
"-	c #E6E6E7",
";	c #E0DFDF",
">	c #DFDFDF",
",	c #E0DFE0",
"'	c #E0E0E0",
")	c #DFE0DF",
"!	c #E0E0DF",
"~	c #DFE0E0",
"{	c #DEDFDE",
"]	c #DFDFDE",
"^	c #DEDFDF",
"/	c #DFDEDE",
"(	c #DEDEDE",
"_	c #DEDEDF",
":	c #DEDEDD",
"<	c #DDDDDE",
"[	c #DDDEDD",
"}	c #DDDDDD",
"|	c #DEDDDE",
"1	c #DEDDDD",
"2	c #DDDCDD",
"3	c #DCDDDD",
"4	c #DCDCDC",
"5	c #DCDCDD",
"6	c #000000",
"7	c #DDDCDC",
"8	c #DBDCDC",
"9	c #DCDBDC",
"0	c #DBDBDB",
"a	c #CACACA",
"b	c #292929",
"c	c #DBDCDB",
"d	c #DADADA",
"e	c #DADADB",
"f	c #DADBDA",
"g	c #DBDBDA",
"h	c #C8C8C7",
"i	c #262626",
"j	c #292A2A",
"k	c #DADBDB",
"l	c #373737",
"m	c #272828",
"n	c #C9CACA",
"o	c #DAD9D9",
"p	c #D9D9DA",
"q	c #D9D9D9",
"r	c #B5B5B6",
"s	c #393939",
"t	c #C7C7C7",
"u	c #D9DAD9",
"v	c #D8D9D8",
"w	c #D8D9D9",
"x	c #D9D8D8",
"y	c #D9D9D8",
"z	c #D8D8D9",
"A	c #D8D8D8",
"B	c #D8D8D7",
"C	c #D7D7D7",
"D	c #D7D7D8",
"E	c #D8D7D7",
"F	c #D7D7D6",
"G	c #D6D6D6",
"H	c #D7D6D6",
"I	c #D6D6D7",
"J	c #D5D5D6",
"K	c #D6D5D5",
"L	c #D6D5D6",
"M	c #D5D5D5",
"N	c #D5D6D5",
"O	c #D4D5D5",
"P	c #D4D4D5",
"Q	c #D5D5D4",
"R	c #D5D4D5",
"S	c #D5D4D4",
"T	c #D4D4D4",
"U	c #D3D3D4",
"V	c #D3D4D3",
"W	c #D3D4D4",
"X	c #D3D3D3",
"Y	c #D4D4D3",
"Z	c #D4D3D4",
"`	c #D4D3D3",
"..++@@@####++++$$$%%&&",
"*********==*******--**",
";;>>;;;,,''))!!~~~;;;;",
"{{>>]]]>>>>>>>>^^^>>>>",
"{{//(((((__(({{(((((__",
"::((<<<[[::}}||:::11::",
"}}22}}}33}}}}}}}}}}}33",
"4444444225666666777777",
"8844999884666666444444",
"00000000000ab666cc0000",
"ddee000ffghi6j66ee00kk",
"ddddddddddl6mn66ddddoo",
"ppqqqqqooprstq66uuqqqq",
"vvwwxxxvvwwwwwwyyyzzww",
"AAAAAA666AAAAAAAAAAAAA",
"BBCCDD666DDEECCEEECCCC",
"CCFFGG666HHFFHHCCCFFGG",
"GGGGGGGGGGGGGGGGGGGGII",
"JJKKLLLMMGGNNNNLLLGGJJ",
"MMMMOOOOOMMPPQQMMMRROO",
"SSTTTTTSSTTTTTTTTTTTTT",
"UUVVWWWXXUUXXYYZZZTT``"};
