/* XPM */
static char * menu_active_xpm[] = {
"22 22 109 2",
"  	c None",
". 	c #868786",
"+ 	c #868787",
"@ 	c #868686",
"# 	c #868687",
"$ 	c #878787",
"% 	c #878686",
"& 	c #878687",
"* 	c #E6E6E6",
"= 	c #E6E7E6",
"- 	c #E6E6E7",
"; 	c #E0DFDF",
"> 	c #DFDFDF",
", 	c #E0DFE0",
"' 	c #E0E0E0",
") 	c #DFE0DF",
"! 	c #E0E0DF",
"~ 	c #DFE0E0",
"{ 	c #DEDFDE",
"] 	c #DFDFDE",
"^ 	c #DEDFDF",
"/ 	c #DFDEDE",
"( 	c #DEDEDE",
"_ 	c #DEDEDF",
": 	c #DEDEDD",
"< 	c #DDDDDE",
"[ 	c #DDDEDD",
"} 	c #DDDDDD",
"| 	c #DEDDDE",
"1 	c #DEDDDD",
"2 	c #DDDCDD",
"3 	c #DBDCDC",
"4 	c #D5D6D6",
"5 	c #585858",
"6 	c #D6D6D6",
"7 	c #DCDCDC",
"8 	c #DCDDDD",
"9 	c #DBDBDB",
"0 	c #8F8E8F",
"a 	c #6E6E6E",
"b 	c #878786",
"c 	c #8E8F8E",
"d 	c #DCDBDB",
"e 	c #DDDCDC",
"f 	c #DCDBDC",
"g 	c #D5D4D5",
"h 	c #6D6E6E",
"i 	c #575858",
"j 	c #585857",
"k 	c #D5D5D5",
"l 	c #858585",
"m 	c #575757",
"n 	c #767676",
"o 	c #BFBFBF",
"p 	c #DBDCDB",
"q 	c #DADADA",
"r 	c #DADADB",
"s 	c #BFBFBE",
"t 	c #DBDBDA",
"u 	c #DADBDB",
"v 	c #BEBEBE",
"w 	c #D9DADA",
"x 	c #BDBEBE",
"y 	c #565757",
"z 	c #DAD9D9",
"A 	c #D9D9DA",
"B 	c #D9D9D9",
"C 	c #858484",
"D 	c #575656",
"E 	c #757575",
"F 	c #BDBDBE",
"G 	c #BDBDBD",
"H 	c #565656",
"I 	c #848484",
"J 	c #D9DAD9",
"K 	c #D8D9D8",
"L 	c #D8D9D9",
"M 	c #D9D8D8",
"N 	c #D2D1D1",
"O 	c #6C6C6C",
"P 	c #D2D2D1",
"Q 	c #D9D9D8",
"R 	c #D8D8D9",
"S 	c #D8D8D8",
"T 	c #D7D7D7",
"U 	c #8B8B8B",
"V 	c #D8D8D7",
"W 	c #D7D7D8",
"X 	c #D0D0D0",
"Y 	c #D8D7D7",
"Z 	c #D7D7D6",
"` 	c #D7D6D6",
" .	c #D6D6D7",
"..	c #D5D5D6",
"+.	c #D6D5D5",
"@.	c #D6D5D6",
"#.	c #D5D6D5",
"$.	c #D4D5D5",
"%.	c #D4D4D5",
"&.	c #D5D5D4",
"*.	c #D5D4D4",
"=.	c #D4D4D4",
"-.	c #D3D3D4",
";.	c #D3D4D3",
">.	c #D3D4D4",
",.	c #D3D3D3",
"'.	c #D4D4D3",
").	c #D4D3D4",
"!.	c #D4D3D3",
". . + + @ @ @ # # # # + + + + $ $ $ % % & & ",
"* * * * * * * * * = = * * * * * * * - - * * ",
"; ; > > ; ; ; , , ' ' ) ) ! ! ~ ~ ~ ; ; ; ; ",
"{ { > > ] ] ] > > > > > > > > ^ ^ ^ > > > > ",
"{ { / / ( ( ( ( ( _ _ ( ( { { ( ( ( ( ( _ _ ",
": : ( ( < < < [ [ : : } } | | : : : 1 1 : : ",
"} } 2 2 } } } 3 4 } 5 5 } 6 7 } } } } } 8 8 ",
"7 7 7 7 7 7 9 0 a # 5 5 b a c d e e e e e e ",
"3 3 7 7 f f g h i 5 5 j j 5 a k 7 7 7 7 7 7 ",
"9 9 9 9 9 9 9 l m n o o n m l p p p 9 9 9 9 ",
"q q r r 9 9 m m m s t t s m m m r r 9 9 u u ",
"q q q q q q m m m v q w x y y m q q q q z z ",
"A A B B B B B C D E F G E H I J J J B B B B ",
"K K L L M M N O H H H H H H O P Q Q R R L L ",
"S S S S S S T U O I H H I O U T S S S S S S ",
"V V T T W W W 6 X W H H Y X 6 Y Y Y T T T T ",
"T T Z Z 6 6 6 T T ` ` Z Z ` ` T T T Z Z 6 6 ",
"6 6 6 6 6 6 6 6 6 6 6 6 6 6 6 6 6 6 6 6  . .",
"....+.+.@.@.@.k k 6 6 #.#.#.#.@.@.@.6 6 ....",
"k k k k $.$.$.$.$.k k %.%.&.&.k k k g g $.$.",
"*.*.=.=.=.=.=.*.*.=.=.=.=.=.=.=.=.=.=.=.=.=.",
"-.-.;.;.>.>.>.,.,.-.-.,.,.'.'.).).).=.=.!.!."};
