/* XPM */
static char * menu_prelight_xpm[] = {
"22 22 102 2",
"  	c None",
". 	c #868786",
"+ 	c #868787",
"@ 	c #868686",
"# 	c #868687",
"$ 	c #878787",
"% 	c #878686",
"& 	c #878687",
"* 	c #E6E6E6",
"= 	c #E6E7E6",
"- 	c #E6E6E7",
"; 	c #E0DFDF",
"> 	c #DFDFDF",
", 	c #E0DFE0",
"' 	c #E0E0E0",
") 	c #DFE0DF",
"! 	c #E0E0DF",
"~ 	c #DFE0E0",
"{ 	c #DEDFDE",
"] 	c #DFDFDE",
"^ 	c #DEDFDF",
"/ 	c #DFDEDE",
"( 	c #DEDEDE",
"_ 	c #DEDEDF",
": 	c #DEDEDD",
"< 	c #DDDDDE",
"[ 	c #DDDEDD",
"} 	c #DDDDDD",
"| 	c #DEDDDE",
"1 	c #DEDDDD",
"2 	c #DDDCDD",
"3 	c #DBDCDC",
"4 	c #CFD0D0",
"5 	c #000000",
"6 	c #D0D0D0",
"7 	c #DCDCDC",
"8 	c #DCDDDD",
"9 	c #DBDBDB",
"0 	c #5B5A5B",
"a 	c #262526",
"b 	c #4D4D4E",
"c 	c #4E4E4D",
"d 	c #252625",
"e 	c #5A5B5A",
"f 	c #DCDBDB",
"g 	c #DDDCDC",
"h 	c #DCDBDC",
"i 	c #CFCECF",
"j 	c #252525",
"k 	c #CFCFCF",
"l 	c #4D4D4D",
"m 	c #333333",
"n 	c #ACACAC",
"o 	c #DBDCDB",
"p 	c #DADADA",
"q 	c #DADADB",
"r 	c #ACACAB",
"s 	c #DBDBDA",
"t 	c #DADBDB",
"u 	c #ABABAB",
"v 	c #D9DADA",
"w 	c #DAD9D9",
"x 	c #D9D9DA",
"y 	c #D9D9D9",
"z 	c #4C4C4C",
"A 	c #D9DAD9",
"B 	c #D8D9D8",
"C 	c #D8D9D9",
"D 	c #D9D8D8",
"E 	c #CDCCCC",
"F 	c #CDCDCC",
"G 	c #D9D9D8",
"H 	c #D8D8D9",
"I 	c #D8D8D8",
"J 	c #D7D7D7",
"K 	c #585858",
"L 	c #D8D8D7",
"M 	c #D7D7D8",
"N 	c #D6D6D6",
"O 	c #CBCBCB",
"P 	c #D8D7D7",
"Q 	c #D7D7D6",
"R 	c #D7D6D6",
"S 	c #D6D6D7",
"T 	c #D5D5D6",
"U 	c #D6D5D5",
"V 	c #D6D5D6",
"W 	c #D5D5D5",
"X 	c #D5D6D5",
"Y 	c #D4D5D5",
"Z 	c #D4D4D5",
"` 	c #D5D5D4",
" .	c #D5D4D5",
"..	c #D5D4D4",
"+.	c #D4D4D4",
"@.	c #D3D3D4",
"#.	c #D3D4D3",
"$.	c #D3D4D4",
"%.	c #D3D3D3",
"&.	c #D4D4D3",
"*.	c #D4D3D4",
"=.	c #D4D3D3",
". . + + @ @ @ # # # # + + + + $ $ $ % % & & ",
"* * * * * * * * * = = * * * * * * * - - * * ",
"; ; > > ; ; ; , , ' ' ) ) ! ! ~ ~ ~ ; ; ; ; ",
"{ { > > ] ] ] > > > > > > > > ^ ^ ^ > > > > ",
"{ { / / ( ( ( ( ( _ _ ( ( { { ( ( ( ( ( _ _ ",
": : ( ( < < < [ [ : : } } | | : : : 1 1 : : ",
"} } 2 2 } } } 3 4 } 5 5 } 6 7 } } } } } 8 8 ",
"7 7 7 7 7 7 9 0 a b 5 5 c d e f g g g g g g ",
"3 3 7 7 h h i j 5 5 5 5 5 5 j k 7 7 7 7 7 7 ",
"9 9 9 9 9 9 9 l 5 m n n m 5 l o o o 9 9 9 9 ",
"p p q q 9 9 5 5 5 r s s r 5 5 5 q q 9 9 t t ",
"p p p p p p 5 5 5 u p v u 5 5 5 p p p p w w ",
"x x y y y y y z 5 m u u m 5 z A A A y y y y ",
"B B C C D D E j 5 5 5 5 5 5 j F G G H H C C ",
"I I I I I I J K j z 5 5 z j K J I I I I I I ",
"L L J J M M M N O M 5 5 P O N P P P J J J J ",
"J J Q Q N N N J J R R Q Q R R J J J Q Q N N ",
"N N N N N N N N N N N N N N N N N N N N S S ",
"T T U U V V V W W N N X X X X V V V N N T T ",
"W W W W Y Y Y Y Y W W Z Z ` ` W W W  . .Y Y ",
"....+.+.+.+.+.....+.+.+.+.+.+.+.+.+.+.+.+.+.",
"@.@.#.#.$.$.$.%.%.@.@.%.%.&.&.*.*.*.+.+.=.=."};
