/* XPM */
static char * menu_inactive_xpm[] = {
"22 22 10 1",
" 	c None",
".	c #999999",
"+	c #D3D3D3",
"@	c #CFCFCF",
"#	c #939393",
"$	c #ADADAD",
"%	c #9E9E9E",
"&	c #A9A9A9",
"*	c #A2A2A2",
"=	c #C5C5C5",
"......................",
"++++++++++++++++++++++",
"++++++++++++++++++++++",
"++++++++++++++++++++++",
"++++++++++++++++++++++",
"++++++++++++++++++++++",
"++++++++@+##+@++++++++",
"+++++++$%&##&%$+++++++",
"++++++@%######%@++++++",
"+++++++&#*==*#&+++++++",
"++++++###=++=###++++++",
"++++++###=++=###++++++",
"+++++++&#*==*#&+++++++",
"++++++@%######%@++++++",
"+++++++$%&##&%$+++++++",
"++++++++@+##+@++++++++",
"++++++++++++++++++++++",
"++++++++++++++++++++++",
"++++++++++++++++++++++",
"++++++++++++++++++++++",
"++++++++++++++++++++++",
"++++++++++++++++++++++"};
