/* XPM */
static char * menu_pressed_xpm[] = {
"22 22 103 2",
"  	c None",
". 	c #868786",
"+ 	c #868787",
"@ 	c #868686",
"# 	c #868687",
"$ 	c #878787",
"% 	c #878686",
"& 	c #878687",
"* 	c #E6E6E6",
"= 	c #E6E7E6",
"- 	c #E6E6E7",
"; 	c #E0DFDF",
"> 	c #DFDFDF",
", 	c #E0DFE0",
"' 	c #E0E0E0",
") 	c #DFE0DF",
"! 	c #E0E0DF",
"~ 	c #DFE0E0",
"{ 	c #DEDFDE",
"] 	c #DFDFDE",
"^ 	c #DEDFDF",
"/ 	c #DFDEDE",
"( 	c #DEDEDE",
"_ 	c #DEDEDF",
": 	c #DEDEDD",
"< 	c #DDDDDE",
"[ 	c #DDDEDD",
"} 	c #DDDDDD",
"| 	c #DEDDDE",
"1 	c #DEDDDD",
"2 	c #DDDCDD",
"3 	c #DCDDDD",
"4 	c #DCDCDC",
"5 	c #DCDBDC",
"6 	c #D0CFD0",
"7 	c #DCDCDD",
"8 	c #000000",
"9 	c #DDDDDC",
"0 	c #CFD0CF",
"a 	c #DBDCDB",
"b 	c #DDDCDC",
"c 	c #DBDCDC",
"d 	c #DBDADB",
"e 	c #5A5A5A",
"f 	c #252525",
"g 	c #4D4D4D",
"h 	c #DBDBDB",
"i 	c #CECECE",
"j 	c #CECFCE",
"k 	c #DADADA",
"l 	c #DADADB",
"m 	c #4C4D4C",
"n 	c #333333",
"o 	c #ACACAB",
"p 	c #4C4D4D",
"q 	c #DADBDB",
"r 	c #ABABAB",
"s 	c #D9DADA",
"t 	c #DAD9D9",
"u 	c #D9D9DA",
"v 	c #D9D9D9",
"w 	c #D9DAD9",
"x 	c #D8D9D8",
"y 	c #D8D9D9",
"z 	c #D9D8D8",
"A 	c #4C4C4C",
"B 	c #323333",
"C 	c #AAABAB",
"D 	c #D9D9D8",
"E 	c #D8D8D9",
"F 	c #D8D8D8",
"G 	c #CCCCCC",
"H 	c #D8D8D7",
"I 	c #D7D7D7",
"J 	c #D7D7D8",
"K 	c #D6D6D7",
"L 	c #585858",
"M 	c #4B4B4C",
"N 	c #4C4B4B",
"O 	c #D7D6D6",
"P 	c #D8D7D7",
"Q 	c #D7D7D6",
"R 	c #D6D6D6",
"S 	c #CBCBCB",
"T 	c #CBCACA",
"U 	c #D6D5D5",
"V 	c #D5D5D6",
"W 	c #D6D5D6",
"X 	c #D5D5D5",
"Y 	c #D5D6D5",
"Z 	c #D4D5D5",
"` 	c #D4D4D5",
" .	c #D5D5D4",
"..	c #D5D4D5",
"+.	c #D5D4D4",
"@.	c #D4D4D4",
"#.	c #D3D3D4",
"$.	c #D3D4D3",
"%.	c #D3D4D4",
"&.	c #D3D3D3",
"*.	c #D4D4D3",
"=.	c #D4D3D4",
"-.	c #D4D3D3",
". . + + @ @ @ # # # # + + + + $ $ $ % % & & ",
"* * * * * * * * * = = * * * * * * * - - * * ",
"; ; > > ; ; ; , , ' ' ) ) ! ! ~ ~ ~ ; ; ; ; ",
"{ { > > ] ] ] > > > > > > > > ^ ^ ^ > > > > ",
"{ { / / ( ( ( ( ( _ _ ( ( { { ( ( ( ( ( _ _ ",
": : ( ( < < < [ [ : : } } | | : : : 1 1 : : ",
"} } 2 2 } } } 3 3 } } } } } } } } } } } 3 3 ",
"4 4 4 4 4 4 4 5 6 7 8 8 9 0 a b b b b b b b ",
"c c 4 4 5 5 d e f g 8 8 g f e h 4 4 4 4 4 4 ",
"h h h h h h i f 8 8 8 8 8 8 f j a a h h h h ",
"k k l l h h h m 8 n o o n 8 p l l l h h q q ",
"k k k k k k 8 8 8 r k s r 8 8 8 k k k k t t ",
"u u v v v v 8 8 8 r u v r 8 8 8 w w v v v v ",
"x x y y z z z A 8 B C C B 8 A D D D E E y y ",
"F F F F F F G f 8 8 8 8 8 8 f G F F F F F F ",
"H H I I J J K L f M 8 8 N f L O P P I I I I ",
"I I Q Q R R R R S O 8 8 Q T U I I I Q Q R R ",
"R R R R R R R R R R R R R R R R R R R R K K ",
"V V U U W W W X X R R Y Y Y Y W W W R R V V ",
"X X X X Z Z Z Z Z X X ` `  . .X X X ....Z Z ",
"+.+.@.@.@.@.@.+.+.@.@.@.@.@.@.@.@.@.@.@.@.@.",
"#.#.$.$.%.%.%.&.&.#.#.&.&.*.*.=.=.=.@.@.-.-."};
