/* XPM */
static char * title_3_active_xpm[] = {
"10 22 83 1",
" 	c #868786",
".	c #868787",
"+	c #868686",
"@	c #868687",
"#	c #878787",
"$	c #878686",
"%	c #878687",
"&	c #E6E6E6",
"*	c #E6E7E6",
"=	c #E6E6E7",
"-	c #E0DFDF",
";	c #DFDFDF",
">	c #E0DFE0",
",	c #E0E0E0",
"'	c #DFE0DF",
")	c #E0E0DF",
"!	c #DFE0E0",
"~	c #DEDFDE",
"{	c #DFDFDE",
"]	c #DEDFDF",
"^	c #DFDEDE",
"/	c #DEDEDE",
"(	c #DEDEDF",
"_	c #DEDEDD",
":	c #DDDDDE",
"<	c #DDDEDD",
"[	c #DDDDDD",
"}	c #DEDDDE",
"|	c #DEDDDD",
"1	c #DDDCDD",
"2	c #DCDDDD",
"3	c #DCDCDC",
"4	c #DCDCDD",
"5	c #DDDDDC",
"6	c #DCDDDC",
"7	c #DDDCDC",
"8	c #DBDCDC",
"9	c #DCDBDC",
"0	c #DCDCDB",
"a	c #DBDBDB",
"b	c #DBDCDB",
"c	c #DADADA",
"d	c #DADADB",
"e	c #DADBDA",
"f	c #DBDBDA",
"g	c #DADBDB",
"h	c #D9DADA",
"i	c #DAD9D9",
"j	c #D9D9DA",
"k	c #D9D9D9",
"l	c #D9DAD9",
"m	c #D8D9D8",
"n	c #D8D9D9",
"o	c #D9D8D8",
"p	c #D9D9D8",
"q	c #D8D8D9",
"r	c #D8D8D8",
"s	c #D8D8D7",
"t	c #D7D7D7",
"u	c #D7D7D8",
"v	c #D8D7D7",
"w	c #D7D7D6",
"x	c #D6D6D6",
"y	c #D7D6D6",
"z	c #D6D6D7",
"A	c #D5D5D6",
"B	c #D6D5D5",
"C	c #D6D5D6",
"D	c #D5D5D5",
"E	c #D5D6D5",
"F	c #D4D5D5",
"G	c #D4D4D5",
"H	c #D5D5D4",
"I	c #D5D4D5",
"J	c #D5D4D4",
"K	c #D4D4D4",
"L	c #D3D3D4",
"M	c #D3D4D3",
"N	c #D3D4D4",
"O	c #D3D3D3",
"P	c #D4D4D3",
"Q	c #D4D3D4",
"R	c #D4D3D3",
" .+@@..#$%",
"&&&&*&&&=&",
"-;->,')!--",
"~;{;;;;];;",
"~^//(/~//(",
"_/:<_[}_|_",
"[1[2[[[[[2",
"3331456777",
"8398303333",
"aaaaaaabaa",
"cdaeffgdag",
"ccccchhcci",
"jkkijkklkk",
"mnomnnnpqn",
"rrrrrrrrrr",
"stutuvtvtt",
"twxtywytwx",
"xxxxxxxxxz",
"ABCDxEECxA",
"DDFFDGHDIF",
"JKKJKKKKKK",
"LMNOLOPQKR"};
