/* XPM */
static char * title_3_inactive_xpm[] = {
"22 22 2 1",
" 	c #999999",
".	c #D3D3D3",
"                      ",
"......................",
"......................",
"......................",
"......................",
"......................",
"......................",
"......................",
"......................",
"......................",
"......................",
"......................",
"......................",
"......................",
"......................",
"......................",
"......................",
"......................",
"......................",
"......................",
"......................",
"......................"};
