/* XPM */
static char * top_right_active_xpm[] = {
"19 22 82 1",
" 	c None",
".	c #868687",
"+	c #E6E6E6",
"@	c #E6E6E7",
"#	c #E6E7E6",
"$	c #7B7B7C",
"%	c #E0DFDF",
"&	c #DFE0E0",
"*	c #E0E0DF",
"=	c #DFE0DF",
"-	c #E0E0E0",
";	c #E0DFE0",
">	c #E7E6E6",
",	c #DFDFDF",
"'	c #DEDFDF",
")	c #DFDFDE",
"!	c #E4E4E4",
"~	c #DEDEDF",
"{	c #DEDEDE",
"]	c #DEDFDE",
"^	c #DEDEDD",
"/	c #DEDDDD",
"(	c #DEDDDE",
"_	c #DDDDDD",
":	c #DDDEDD",
"<	c #DDDDDE",
"[	c #E3E3E3",
"}	c #DCDDDD",
"|	c #DDDCDC",
"1	c #DCDDDC",
"2	c #DDDDDC",
"3	c #DCDCDD",
"4	c #DDDCDD",
"5	c #DCDCDC",
"6	c #E2E2E2",
"7	c #DCDCDB",
"8	c #DBDCDC",
"9	c #DCDBDC",
"0	c #E1E1E1",
"a	c #DBDBDB",
"b	c #DBDCDB",
"c	c #DADBDB",
"d	c #DADADB",
"e	c #DBDBDA",
"f	c #DADBDA",
"g	c #DAD9D9",
"h	c #DADADA",
"i	c #D9DADA",
"j	c #D9D9D9",
"k	c #D9DAD9",
"l	c #D9D9DA",
"m	c #D8D9D9",
"n	c #D8D8D9",
"o	c #D9D9D8",
"p	c #D8D9D8",
"q	c #D9D8D8",
"r	c #D8D8D8",
"s	c #D7D7D7",
"t	c #D8D7D7",
"u	c #D7D7D8",
"v	c #D6D6D6",
"w	c #D7D7D6",
"x	c #D7D6D6",
"y	c #D6D6D7",
"z	c #D5D5D6",
"A	c #D6D5D6",
"B	c #D5D6D5",
"C	c #D5D5D5",
"D	c #D8D7D8",
"E	c #D4D5D5",
"F	c #D5D4D5",
"G	c #D5D5D4",
"H	c #D4D4D5",
"I	c #D5D6D6",
"J	c #D4D4D4",
"K	c #D5D4D4",
"L	c #D4D3D3",
"M	c #D4D3D4",
"N	c #D4D4D3",
"O	c #D3D3D3",
"P	c #D3D3D4",
"Q	c #D3D4D4",
".................  ",
"++@@+++++++##++++$ ",
"%%%%&&&**==--;;%%>.",
",,,,''',,,,,,,,))!.",
"~~{{{{{]]{{~~{{{{!.",
"^^//^^^((__^^::<<[.",
"}}___________}}__[.",
"|||||||11223344556.",
"555555555775588990.",
"aaaabbbaaaaaaaaaa-.",
"ccaadddcceeeeffaa-.",
"gghhhhhiiiihhhhhh{.",
"jjjjkkkjjjjllggjj_.",
"mmnnooommmmmmppqq|.",
"rrrrrrrrrrrrrrrrra.",
"sssstttssttuussuud.",
"vvwwsssxxwwxxssvvj.",
"yyvvvvvvvvvvvvvvvr.",
"zzvvAAABBBBvvCCAAD.",
"EEFFCCCGGHHCCEEEEI.",
"JJJJJJJJJJJJJKKJJC.",
"LLJJMMMNNOOPPOOQQQ."};
