/* XPM */
static char * top_left_active_xpm[] = {
"19 22 82 1",
" 	c None",
".	c #868687",
"+	c #7B7B7C",
"@	c #E6E6E6",
"#	c #E6E7E6",
"$	c #E6E6E7",
"%	c #E7E6E6",
"&	c #E0DFDF",
"*	c #E0DFE0",
"=	c #E0E0E0",
"-	c #DFE0DF",
";	c #E0E0DF",
">	c #DFE0E0",
",	c #E4E4E4",
"'	c #DFDFDE",
")	c #DFDFDF",
"!	c #DEDFDF",
"~	c #DEDEDE",
"{	c #DEDEDF",
"]	c #DEDFDE",
"^	c #E3E3E3",
"/	c #DDDDDE",
"(	c #DDDEDD",
"_	c #DEDEDD",
":	c #DDDDDD",
"<	c #DEDDDE",
"[	c #DEDDDD",
"}	c #DCDDDD",
"|	c #E2E2E2",
"1	c #DCDCDC",
"2	c #DDDCDD",
"3	c #DCDCDD",
"4	c #DDDDDC",
"5	c #DCDDDC",
"6	c #DDDCDC",
"7	c #E1E1E1",
"8	c #DCDBDC",
"9	c #DBDCDC",
"0	c #DCDCDB",
"a	c #DBDBDB",
"b	c #DBDCDB",
"c	c #DADBDA",
"d	c #DBDBDA",
"e	c #DADBDB",
"f	c #DADADB",
"g	c #DADADA",
"h	c #D9DADA",
"i	c #DAD9D9",
"j	c #D9D9D9",
"k	c #D9D9DA",
"l	c #D9DAD9",
"m	c #D9D8D8",
"n	c #D8D9D8",
"o	c #D8D9D9",
"p	c #D9D9D8",
"q	c #D8D8D9",
"r	c #D8D8D8",
"s	c #D7D7D8",
"t	c #D7D7D7",
"u	c #D8D7D7",
"v	c #D6D6D6",
"w	c #D7D6D6",
"x	c #D7D7D6",
"y	c #D6D6D7",
"z	c #D8D7D8",
"A	c #D6D5D6",
"B	c #D5D5D5",
"C	c #D5D6D5",
"D	c #D5D5D6",
"E	c #D5D6D6",
"F	c #D4D5D5",
"G	c #D4D4D5",
"H	c #D5D5D4",
"I	c #D5D4D5",
"J	c #D4D4D4",
"K	c #D5D4D4",
"L	c #D3D4D4",
"M	c #D3D3D3",
"N	c #D3D3D4",
"O	c #D4D4D3",
"P	c #D4D3D4",
"Q	c #D4D3D3",
"  .................",
" +@@@@##@@@@@@@$$@@",
".%&&**==--;;>>>&&&&",
".,''))))))))!!!))))",
".,~~~~{{~~]]~~~~~{{",
".^//((__::<<___[[__",
".^::}}:::::::::::}}",
".|11223344556666666",
".788991100111111111",
".=aaaaaaaaaabbbaaaa",
".=aaccddddeefffaaee",
".~gggggghhhhgggggii",
".:jjiikkjjjjllljjjj",
".6mmnnoooooopppqqoo",
".arrrrrrrrrrrrrrrrr",
".fssttssuuttuuutttt",
".jvvttwwxxwwtttxxvv",
".rvvvvvvvvvvvvvvvyy",
".zAABBvvCCCCAAAvvDD",
".EFFFFBBGGHHBBBIIFF",
".BJJKKJJJJJJJJJJJJJ",
".LLLMMNNMMOOPPPJJQQ"};
