/* XPM */
static char * close_pressed_xpm[] = {
"12 18 25 1",
" 	c None",
".	c #939393",
"+	c #FFFFFF",
"@	c #DEDEDE",
"#	c #CDD4D9",
"$	c #ACCB87",
"%	c #D0D5D9",
"&	c #CED5DA",
"*	c #9BC264",
"=	c #D2D7DB",
"-	c #CFD5DA",
";	c #E1E6EC",
">	c #E2E7EC",
",	c #E1E1E1",
"'	c #E5EBEF",
")	c #E8EDF0",
"!	c #D7DBDF",
"~	c #D4DADE",
"{	c #D3D9DD",
"]	c #E9EEF1",
"^	c #E7ECF1",
"/	c #E4EAEE",
"(	c #E7EDF2",
"_	c #E8EDF3",
":	c #F2F2F2",
"............",
"++++++++++++",
"@@@@@@@@@@@@",
"@@@@@@@@@@@@",
"@@@@@@@@@@@@",
"@@@@@@@@@@@@",
"@@#$%@@&$#@@",
"@@$**=-$*$@@",
"@@;$****$>@@",
"@@,'****),@@",
"@@@!****~@@@",
"@@{**$$**{@@",
"@@$*$]^$*$@@",
"@@/$(,,_$/@@",
"@@,:,@@,:,@@",
"@@@@@@@@@@@@",
"@@@@@@@@@@@@",
"@@@@@@@@@@@@"};
