/* XPM */
static char * hide_pressed_xpm[] = {
"12 18 7 1",
" 	c None",
".	c #939393",
"+	c #FFFFFF",
"@	c #DEDEDE",
"#	c #9BC264",
"$	c #ACCB87",
"%	c #ECECEC",
"............",
"++++++++++++",
"@@@@@@@@@@@@",
"@@@@@@@@@@@@",
"@@@@@@@@@@@@",
"@@@@@@@@@@@@",
"@@@@@@@@@@@@",
"@@@@@@@@@@@@",
"@@@@@@@@@@@@",
"@@########@@",
"@@$$$$$$$$@@",
"@@%%%%%%%%@@",
"@@@@@@@@@@@@",
"@@@@@@@@@@@@",
"@@@@@@@@@@@@",
"@@@@@@@@@@@@",
"@@@@@@@@@@@@",
"@@@@@@@@@@@@"};
