/* XPM */
static char * maximize_pressed_xpm[] = {
"12 18 6 1",
" 	c None",
".	c #939393",
"+	c #FFFFFF",
"@	c #DEDEDE",
"#	c #9BC264",
"$	c #F4F4F4",
"............",
"++++++++++++",
"@@@@@@@@@@@@",
"@@@@@@@@@@@@",
"@@@@@@@@@@@@",
"@@@@@@@@@@@@",
"@@@@@##@@@@@",
"@@@@@##@@@@@",
"@@@@@##@@@@@",
"@@########@@",
"@@########@@",
"@@$$$##$$$@@",
"@@@@@##@@@@@",
"@@@@@##@@@@@",
"@@@@@$$@@@@@",
"@@@@@@@@@@@@",
"@@@@@@@@@@@@",
"@@@@@@@@@@@@"};
