/* XPM */
static char * menu_pressed_xpm[] = {
"12 18 14 1",
" 	c None",
".	c #939393",
"+	c #FFFFFF",
"@	c #DEDEDE",
"#	c #B2E378",
"$	c #9BC264",
"%	c #EBECED",
"&	c #E1E9EE",
"*	c #E8ECEF",
"=	c #D3F4AC",
"-	c #E0E8EE",
";	c #E6E6E6",
">	c #E2E2E2",
",	c #EDEDED",
"............",
"++++++++++++",
"@@@@@@@@@@@@",
"@@@@@@@@@@@@",
"@@@@@@@@@@@@",
"@@@@@@@@@@@@",
"@@@@@@@@@@@@",
"@@@@@@@@@@@@",
"@@#$$$$$$#@@",
"@@%#$$$$#%@@",
"@@@&#$$#*@@@",
"@@@@=$$-@@@@",
"@@@@;#=>@@@@",
"@@@@@,;@@@@@",
"@@@@@@@@@@@@",
"@@@@@@@@@@@@",
"@@@@@@@@@@@@",
"@@@@@@@@@@@@"};
