/* XPM */
static char * shade_toggled_pressed_xpm[] = {
"12 18 15 1",
" 	c None",
".	c #8D8D8D",
"+	c #FFFFFF",
"@	c #DEDEDE",
"#	c #ACCB87",
"$	c #C4E1A1",
"%	c #EBECED",
"&	c #E1E8ED",
"*	c #E8EBEE",
"=	c #E1E1E1",
"-	c #B2E378",
";	c #E0E8EE",
">	c #DFDFDF",
",	c #E5E5E5",
"'	c #ECECEC",
"............",
"++++++++++++",
"@@@@@@@@@@@@",
"@@@@@@@@@@@@",
"@@@@@@@@@@@@",
"@@@@@@@@@@@@",
"@@@@@@@@@@@@",
"@@#$#@@#$#@@",
"@@%#$##$#%@@",
"@@@&####*@@@",
"@@@=-$$;>@@@",
"@@@@,#-=@@@@",
"@@@@@',@@@@@",
"@@@@@@@@@@@@",
"@@@@@@@@@@@@",
"@@@@@@@@@@@@",
"@@@@@@@@@@@@",
"@@@@@@@@@@@@"};
