/* XPM */
static char * shade_pressed_xpm[] = {
"12 18 10 1",
" 	c None",
".	c #8D8D8D",
"+	c #FFFFFF",
"@	c #DEDEDE",
"#	c #D3F4AC",
"$	c #B2E378",
"%	c #C4E1A1",
"&	c #E8EBEE",
"*	c #EBECED",
"=	c #E1E8ED",
"............",
"++++++++++++",
"@@@@@@@@@@@@",
"@@@@@@@@@@@@",
"@@@@@@@@@@@@",
"@@@@@@@@@@@@",
"@@@@@@@@@@@@",
"@@@@@##@@@@@",
"@@@@#$$#@@@@",
"@@@#$%%$#@@@",
"@@#$%&&%$#@@",
"@@*=&@@&&*@@",
"@@@@@@@@@@@@",
"@@@@@@@@@@@@",
"@@@@@@@@@@@@",
"@@@@@@@@@@@@",
"@@@@@@@@@@@@",
"@@@@@@@@@@@@"};
