/* XPM */
static char * stick_pressed_xpm[] = {
"12 18 8 1",
" 	c None",
".	c #8D8D8D",
"+	c #FFFFFF",
"@	c #DEDEDE",
"#	c #9BC264",
"$	c #ECECEC",
"%	c #96BF72",
"&	c #92BC81",
"............",
"++++++++++++",
"@@@@@@@@@@@@",
"@@@@@@@@@@@@",
"@@@@@@@@@@@@",
"@@@@@@@@@@@@",
"@@@@####@@@@",
"@@@######@@@",
"@@##$$$$##@@",
"@@##@@@@##@@",
"@@##@@@@##@@",
"@@##@@@@##@@",
"@@$%&&&&&$@@",
"@@@$####$@@@",
"@@@@$$$$@@@@",
"@@@@@@@@@@@@",
"@@@@@@@@@@@@",
"@@@@@@@@@@@@"};
