/* XPM */
static char * stick_toggled_pressed_xpm[] = {
"12 18 7 1",
" 	c None",
".	c #8D8D8D",
"+	c #FFFFFF",
"@	c #DEDEDE",
"#	c #9BC264",
"$	c #ECECEC",
"%	c #97C073",
"............",
"++++++++++++",
"@@@@@@@@@@@@",
"@@@@@@@@@@@@",
"@@@@@@@@@@@@",
"@@@@@@@@#@@@",
"@@@@##@@##@@",
"@@@###@####@",
"@@##$$@##$$@",
"@@##@@#$$@@@",
"@@##@@$@##@@",
"@@##@@@@##@@",
"@@$######$@@",
"@@@$%%%%$@@@",
"@@@@$$$$@@@@",
"@@@@@@@@@@@@",
"@@@@@@@@@@@@",
"@@@@@@@@@@@@"};
