/* XPM */
static char * close_pressed_xpm[] = {
"16 16 13 1",
" 	c None",
".	c #2D2D2D",
"+	c #3480CB",
"@	c #2A6AA9",
"#	c #1C466F",
"$	c #2B6DAE",
"%	c #317AC2",
"&	c #1E4C79",
"*	c #317CC6",
"=	c #317BC4",
"-	c #1F4F7E",
";	c #1E4B77",
">	c #1B456E",
"................",
"................",
"................",
"................",
"....+@#..#@+....",
"....$+%&&%+@....",
"....#*+==+%#....",
".....-*++=&.....",
".....-*++=&.....",
"....#*+**+%#....",
"....$+*;;*+@....",
"....+@>..>@+....",
"................",
"................",
"................",
"................"};
