/* XPM */
static char * close_prelight_xpm[] = {
"16 16 13 1",
" 	c None",
".	c #2D2D2D",
"+	c #4D90D2",
"@	c #2F77BE",
"#	c #1C4771",
"$	c #458BD0",
"%	c #20507F",
"&	c #478CD0",
"*	c #448ACF",
"=	c #215384",
"-	c #1F4F7E",
";	c #2F75BA",
">	c #1C466F",
"................",
"................",
"................",
"................",
"....+@#..#@+....",
"....@+$%%$+@....",
"....#&+**+$#....",
".....=&++*%.....",
".....=&++*%.....",
"....#&+**+$#....",
"....@+*--*+@....",
"....+;>..>;+....",
"................",
"................",
"................",
"................"};
