/* XPM */
static char * close_prelight_xpm[] = {
"16 16 12 1",
" 	c None",
".	c #2D2D2D",
"+	c #D95CB4",
"@	c #D13AA4",
"#	c #932272",
"$	c #D138A4",
"%	c #D855B1",
"&	c #9F247B",
"*	c #D857B2",
"=	c #A52680",
"-	c #D035A2",
";	c #922170",
"................",
"................",
"................",
"................",
"....+@#..#@+....",
"....$+%&&%+@....",
"....#*+%%+%#....",
".....=*++%&.....",
".....=*++%&.....",
"....#*+%%+%#....",
"....$+%&&%+@....",
"....+-;..;-+....",
"................",
"................",
"................",
"................"};
